<?xml version="1.0" encoding="UTF-8" standalone="no"?>
<!-- Created with Inkscape (http://www.inkscape.org/) -->

<svg
   version="1.1"
   id="svg2"
   xml:space="preserve"
   width="5333.3335"
   height="5333.3335"
   viewBox="0 0 5333.3335 5333.3335"
   sodipodi:docname="4000_2_11.eps"
   xmlns:inkscape="http://www.inkscape.org/namespaces/inkscape"
   xmlns:sodipodi="http://sodipodi.sourceforge.net/DTD/sodipodi-0.dtd"
   xmlns="http://www.w3.org/2000/svg"
   xmlns:svg="http://www.w3.org/2000/svg"><defs
     id="defs6"><clipPath
       clipPathUnits="userSpaceOnUse"
       id="clipPath230"><path
         d="m 22448.8,9429.2 c -481.5,285.2 -850.3,593.9 -1060.2,786.4 -18.8,198.8 -41.1,372.4 -63.4,519 59.9,-45.9 121.3,-89.1 183.7,-130.2 322.3,-210.2 672.8,-361.6 1032.7,-473.4 360.2,-111.5 731.7,-180.7 1107.1,-210.2 37.6,-2.9 75.1,-5.4 112.7,-7.4 -437.6,-184.3 -875.2,-345.7 -1312.6,-484.2"
         id="path228" /></clipPath></defs><sodipodi:namedview
     id="namedview4"
     borderopacity="1.0"
     inkscape:pageshadow="2"
     inkscape:pageopacity="0.0"
     inkscape:pagecheckerboard="0" /><g
     id="g8"
     inkscape:groupmode="layer"
     inkscape:label="ink_ext_XXXXXX"
     transform="matrix(1.3333333,0,0,-1.3333333,0,5333.3333)"><g
       id="g10"
       transform="scale(0.1)"><path
         d="M 0,0 H 40000 V 40000 H 0 Z"
         style="fill:#feebcd;fill-opacity:0;fill-rule:nonzero;stroke:none"
         id="path12" /><path
         d="m 27472.5,28582.3 c -353.5,34 -719,44 -1095,29 -364.5,372 -554,500.5 -720.5,490 -187.5,-12 -335,-207.5 -579.5,-531 -29,-38.5 -59.5,-79 -91.5,-121 -343,-64.5 -687,-148 -1028,-247 734.5,1114 1209,1685 1735.5,1713.5 458.5,24.5 976,-363 1779,-1333.5"
         style="fill:#968dcc;fill-opacity:1;fill-rule:nonzero;stroke:none"
         id="path14" /><path
         d="m 24808.3,29363.3 c 0.1,0.2 0.2,0.3 0.3,0.4 -0.1,-0.1 -0.2,-0.2 -0.3,-0.4 m 1.1,1.3 c 195.1,218.3 375.7,371.8 554.7,460.7 -178.9,-88.9 -359.6,-242.5 -554.7,-460.7 m 555.1,460.9 c 0.4,0.2 0.8,0.4 1.2,0.6 -0.4,-0.2 -0.8,-0.4 -1.2,-0.6"
         style="fill:#fff7eb;fill-opacity:1;fill-rule:nonzero;stroke:none"
         id="path16" /><path
         d="m 27312.7,28772.1 c -144.8,10.6 -291.4,17.3 -439.8,20 -563,611.9 -971.7,874.8 -1338.6,874.8 -13.7,0 -27.3,-0.3 -40.8,-1.1 -316,-17 -613.5,-229.5 -959.5,-638 95.2,125.1 186.2,236.9 274.3,335.5 0.1,0.2 0.2,0.3 0.3,0.4 0.3,0.3 0.5,0.6 0.8,0.9 195.1,218.2 375.8,371.8 554.7,460.7 0.2,0.1 0.3,0.1 0.4,0.2 0.4,0.2 0.8,0.4 1.2,0.6 108.8,53.8 217.1,83.7 327.8,89.7 13.5,0.8 27.1,1.1 40.8,1.1 417.1,0 887.8,-339.7 1578.4,-1144.8"
         style="fill:#d5d1eb;fill-opacity:1;fill-rule:nonzero;stroke:none"
         id="path18" /><path
         d="m 26310,28608.3 c -50.5,-2.5 -101.5,-5 -153,-8.5 -360,-23.5 -728.5,-70.5 -1098.5,-137.5 20,26.5 40,52.5 59,77.5 235.5,312.5 378,501.5 543,512 144,8.5 322,-112.5 649.5,-443.5"
         style="fill:#f978ed;fill-opacity:1;fill-rule:nonzero;stroke:none"
         id="path20" /><path
         d="m 33550.5,20714.8 c 30.5,408 31,813.5 1,1213.5 6.5,0 13,3 18,8.5 518,605 816,1034 698.5,1303.5 -89.5,205 -405.5,308.5 -1022.5,334 -121,399 -273.5,786 -457,1158 1267.5,-216 1948.5,-563 2142,-1090 228,-623 -198,-1527.5 -1380,-2927.5"
         style="fill:#968dcc;fill-opacity:1;fill-rule:nonzero;stroke:none"
         id="path22" /><path
         d="m 33738.3,21681.1 c -5,116.9 -12.4,233.9 -22.3,349.7 289,342.9 499.4,625.9 591.6,852.5 6.5,-10 12,-20.5 16.5,-31.5 108.6,-249.2 -138.4,-635.1 -585.8,-1170.7"
         style="fill:#d5d1eb;fill-opacity:1;fill-rule:nonzero;stroke:none"
         id="path24" /><path
         d="m 34968,23059.3 c 0,0.1 0,0.1 -0.1,0.1 38.5,218.6 25.3,411.4 -37.4,582.9 63,-171.5 76,-364.5 37.5,-583"
         style="fill:#fff7eb;fill-opacity:1;fill-rule:nonzero;stroke:none"
         id="path26" /><path
         d="m 34967.9,23059.4 c -9.4,68 -25.4,132.5 -47.9,194.4 -171.5,466.7 -725,792 -1729,1010.4 -57.7,144.7 -119.9,287.7 -186.5,429 1129.3,-218 1743.8,-554.6 1926,-1050.9 v 0 c 62.7,-171.5 75.9,-364.3 37.4,-582.9"
         style="fill:#d5d1eb;fill-opacity:1;fill-rule:nonzero;stroke:none"
         id="path28" /><path
         d="m 33547,21987.3 c -23,274 -59.5,546 -111,814 -47,245 -106,485.5 -175.5,722.5 576,-26 882.5,-122.5 961.5,-303.5 106,-243 -179,-652 -675,-1233"
         style="fill:#f978ed;fill-opacity:1;fill-rule:nonzero;stroke:none"
         id="path30" /><path
         d="m 27138,20248.8 c -63.5,-92.5 -139.5,-179 -231,-247.5 -64.5,-49.5 -137,-89 -214,-116.5 0,-7 -2.5,-13.5 -8,-18.5 -452,-410.5 -821.5,-732.5 -1173.5,-917.5 -0.5,0 -1,-0.5 -2,-1 -96,-50.5 -191,-91 -286,-119.5 -78,-24 -157.5,-35.5 -236.5,-35.5 -185.5,0 -367,64 -512.5,185.5 -207,173 -312,437 -281,707 10,87.5 28.5,175.5 51,265 0.5,1.5 1,2.5 1,4 49.5,190.5 122,385.5 198,588.5 76,204.5 155,415.5 211.5,629 -7,25 -12.5,50.5 -16,76 -16,112 0.5,227 41.5,330 39.5,104 102,197 174,279 2.5,3 7,3.5 10,1 3,-2.5 3.5,-7 1,-10 -66.5,-85.5 -120,-180.5 -155,-281 -35.5,-100 -46.5,-209 -27.5,-312 4.5,-25.5 11,-50.5 19,-74.5 0.5,-1 1,-2 1,-3 57.5,-172.5 197,-317 371.5,-370.5 99.5,-31 207.5,-34 309.5,-12 102,22.5 197.5,73.5 275,143.5 20,16.5 37,36.5 54,56.5 17.5,18.5 34,41.5 51,62.5 l 32,41 21.5,35 c 34.5,45.5 70.5,91 108,131 l 140,179 c 8.5,11 24,13 35,4.5 11,-8.5 12.5,-24.5 4,-35 l -200.5,-257.5 -67,-86 -21,-33.5 c -13,-24 -23,-49.5 -34.5,-74 -41.5,-100 -62.5,-208.5 -61,-317 0,-217.5 96.5,-434 262.5,-573 164,-140.5 391.5,-209.5 604.5,-168 106.5,19 207.5,65.5 298.5,126.5 90.5,62 170.5,140.5 241,227 2,3 6.5,3.5 10,1 2.5,-2.5 3.5,-6.5 1,-9.5 m 5588.5,4498.5 c -4.5,4 -7,9.5 -8,15 -421,839.5 -1006,1610 -1750,2280.5 -1883.5,1718 -4642,1807.5 -7054,1097.5 -4.5,-3.5 -9.5,-5.5 -15,-5.5 l -2,0.5 c -807,-239 -1574.5,-567 -2257.5,-953 -136,-77.5 -289,-127 -448,-146.5 886,-130 1612.5,-520 2116.5,-1144 723,-895 965.5,-2221 701,-3834.5 -212.5,-851 -318.5,-1741.5 -315.5,-2648 3,-824.5 -195,-1615 -573,-2286 -250.5,-445.5 -567,-836.5 -951.5,-1176 1513,-1669.5 6411.5,-2948.5 8628,-1274.5 722,806 1314.5,1688 1766,2635.5 1233,2583.5 1257,5245.5 163,7439"
         style="fill:#968dcc;fill-opacity:1;fill-rule:nonzero;stroke:none"
         id="path32" /><path
         d="m 24010.7,22229.6 c 1730.9,965.3 3756,-586.8 3712.7,-2405.5 -15.4,-645.5 -375,-1234.6 -929.6,-1565.2 -1196,-712.8 -2591.8,-730.2 -3208.9,224.3 l 425.8,3746.4"
         style="fill:#ffffff;fill-opacity:1;fill-rule:nonzero;stroke:none"
         id="path34" /><path
         d="m 29244.1,13990.4 c -209.1,1960 -128.3,2283.4 1728.4,844.2 l -1728.4,-844.2"
         style="fill:#807bb7;fill-opacity:1;fill-rule:nonzero;stroke:none"
         id="path36" /><path
         d="m 31665.6,15724.7 c -1430.6,1624.1 -1830.6,2097.2 1116,2005.9 l -1116,-2005.9"
         style="fill:#807bb7;fill-opacity:1;fill-rule:nonzero;stroke:none"
         id="path38" /><path
         d="m 23121,17123.3 c 165.5,294.1 296.6,611 391.4,943.7 -94.8,-332.8 -225.8,-649.6 -391.4,-943.7"
         style="fill:#b1a4b2;fill-opacity:1;fill-rule:nonzero;stroke:none"
         id="path40" /><path
         d="m 27935.3,13888.2 c -2055.9,0.1 -4369.4,803.8 -5508.2,1806.7 -77.5,70.9 -153.1,144 -226.6,219.4 l -0.4,-0.2 c -10.4,11.1 -20.6,22.1 -30.6,33.2 384.5,339.5 701,730.5 951.5,1176 v 0 c 165.6,294.1 296.6,610.9 391.4,943.7 36.1,126.6 66.9,255.5 92.3,386.3 329.8,-486.3 867.8,-709.9 1476,-709.9 352,0 727.6,74.9 1099.9,217.2 700.2,-161.1 1426.5,-253.4 2123.3,-253.4 1101,0.1 2128.7,230.6 2862.1,784.6 722,806 1314.5,1688 1766,2635.5 142.8,299 269.5,599.2 379.9,899.6 123.8,-1380.2 -119.4,-2843.8 -745.6,-4290.5 -146.4,3.3 -283.8,5 -412.4,5 -2171.6,0 -1835.5,-483 -623.7,-1862.8 -220.6,-317.3 -459.5,-625 -715.9,-922.4 -675.7,514.7 -1094.4,768.5 -1340.9,768.5 -372.4,0 -352,-579.4 -231.6,-1712.9 -412.8,-84.5 -853.4,-123.6 -1306.5,-123.6"
         style="fill:#6962b1;fill-opacity:1;fill-rule:nonzero;stroke:none"
         id="path42" /><path
         d="m 29323.4,14029.2 1172.4,572.6 c -83.4,-89.1 -168.5,-177.2 -255.2,-264.3 -282.2,-134.3 -590.3,-235.9 -917.2,-308.3"
         style="fill:#6962b1;fill-opacity:1;fill-rule:nonzero;stroke:none"
         id="path44" /><path
         d="m 25080.7,17743.4 c -608.2,0 -1146.2,223.6 -1476,709.9 28.9,148.4 50.9,299.3 65.8,452 705.2,-398.8 1584.6,-731.8 2510.1,-944.7 -372.3,-142.3 -747.9,-217.2 -1099.9,-217.2"
         style="fill:#b2b2d4;fill-opacity:1;fill-rule:nonzero;stroke:none"
         id="path46" /><path
         d="m 29241.8,14011.8 v 0 c -120.4,1133.5 -140.8,1712.9 231.6,1712.9 246.5,0 665.2,-253.8 1340.9,-768.5 -103.4,-119.9 -209.5,-237.9 -318.5,-354.4 l -1172.4,-572.6 c -27.1,-6 -54.2,-11.8 -81.6,-17.4"
         style="fill:#5956a2;fill-opacity:1;fill-rule:nonzero;stroke:none"
         id="path48" /><path
         d="m 31530.2,15878.6 c -1211.8,1379.8 -1547.9,1862.8 623.7,1862.8 128.6,0 266,-1.7 412.4,-5 -51,-117.8 -104.5,-235.4 -160.5,-352.9 -249.2,-522.2 -541.6,-1024.5 -875.6,-1504.9"
         style="fill:#5956a2;fill-opacity:1;fill-rule:nonzero;stroke:none"
         id="path50" /><path
         d="m 32169.3,25725.3 c -1703.2,-1414.7 -1379.1,-2052 972.3,-1911.7 l -972.3,1911.7"
         style="fill:#807bb7;fill-opacity:1;fill-rule:nonzero;stroke:none"
         id="path52" /><path
         d="M 29384.9,28086.3 C 27652.3,24694.2 28385,24153 31583,26462.8 l -2198.1,1623.5"
         style="fill:#807bb7;fill-opacity:1;fill-rule:nonzero;stroke:none"
         id="path54" /><path
         d="m 26459.5,28589.5 c 325.5,-2669.8 1242.1,-2569.8 2012.1,-286.5 l -2012.1,286.5"
         style="fill:#807bb7;fill-opacity:1;fill-rule:nonzero;stroke:none"
         id="path56" /><path
         d="m 32962.3,23716.7 c -11.7,28.8 -23.5,57.4 -35.5,86 2.1,0.1 4.1,0.2 6.3,0.3 9.9,-28.9 19.6,-57.3 29.2,-86.3"
         style="fill:#d5d1eb;fill-opacity:1;fill-rule:nonzero;stroke:none"
         id="path58" /><path
         d="m 31922,25512.7 c -197.8,253.6 -413.6,497.6 -647.2,731 47.8,33.4 96.1,67.5 145.2,102.3 217.2,-239.7 416.7,-490.1 597.7,-749.2 -32.8,-28.4 -64.7,-56.4 -95.7,-84.1"
         style="fill:#d5d1eb;fill-opacity:1;fill-rule:nonzero;stroke:none"
         id="path60" /><path
         d="m 21956.5,26844.8 c -91,33.4 -184.3,63.3 -279.9,89.7 95.6,-26.4 189.1,-56.3 280.1,-89.5 -0.1,-0.1 -0.2,-0.1 -0.2,-0.2"
         style="fill:#fff7eb;fill-opacity:1;fill-rule:nonzero;stroke:none"
         id="path62" /><path
         d="m 21956.7,26845 c -91,33.2 -184.5,63.1 -280.1,89.5 -31.2,8.6 -62.6,16.9 -94.3,24.8 49.5,20.6 97.6,44.2 144.1,70.5 1061.6,600.7 2874.3,1289.3 4760.7,1349.6 16.4,-116.2 34.1,-226.6 52.9,-331.1 -882.5,-15.4 -1775.7,-166.3 -2625.5,-416.5 -4.5,-3.5 -9.5,-5.5 -15,-5.5 l -2,0.5 c -684.5,-202.4 -1340.4,-469.4 -1940.8,-781.8 m 7202.2,785.9 c -273.8,102 -555.1,184.1 -841.9,247.6 38.8,98.2 77.3,201.8 115.5,310.8 292,-71.8 580,-165.3 861.4,-283.1 -47,-94.2 -92,-185.8 -135,-275.3"
         style="fill:#d5d1eb;fill-opacity:1;fill-rule:nonzero;stroke:none"
         id="path64" /><path
         d="m 32926.8,23802.7 c -62,147.3 -128.8,292.7 -200.3,436.1 -4.5,4 -7,9.5 -8,15 -220.7,440.1 -486.5,861.2 -796.5,1258.9 31,27.7 62.9,55.7 95.7,84.1 390.7,-559.4 696.4,-1161.3 915.4,-1793.8 -2.2,-0.1 -4.2,-0.2 -6.3,-0.3"
         style="fill:#cccae2;fill-opacity:1;fill-rule:nonzero;stroke:none"
         id="path66" /><path
         d="m 31274.8,26243.7 c -98.9,98.9 -201,195.7 -306.3,290.6 -540.8,493.3 -1153.5,852.2 -1809.6,1096.6 43,89.5 88,181.1 135,275.3 550.8,-230.7 1076.5,-554.9 1557.2,-993.5 201.7,-181.6 391.2,-370.6 568.9,-566.7 -49.1,-34.8 -97.4,-68.9 -145.2,-102.3"
         style="fill:#cccae2;fill-opacity:1;fill-rule:nonzero;stroke:none"
         id="path68" /><path
         d="m 28317,27878.5 c -528.6,117 -1075.9,171.1 -1628.2,171.1 -49.6,0 -99.1,-0.4 -148.8,-1.3 -18.8,104.5 -36.5,214.9 -52.9,331.1 88.1,2.8 176.3,4.3 264.7,4.3 562.4,0 1128.6,-58.5 1680.7,-194.4 -38.2,-109 -76.7,-212.6 -115.5,-310.8"
         style="fill:#cccae2;fill-opacity:1;fill-rule:nonzero;stroke:none"
         id="path70" /><path
         d="m 24582,10091.3 c -48,-23 -96.5,-46 -144.5,-68.5 -594,-278 -1188,-515.5 -1782,-710.5 -185.5,-61 -371.5,-118 -557,-171 -268,-76.5 -539.5,-135.5 -813,-177.5 8.5,565.5 -23.5,1043 -65.5,1414 -6.5,56.5 -13,110.5 -20,162 -38,289.5 -79.5,498 -105,613 22.5,-26 45.5,-52 69.5,-76.5 21,-21.5 42,-42.5 64,-63 111.5,-106 235,-199.5 362.5,-283.5 307.5,-200.5 646,-347.5 995,-455.5 309.5,-96 629,-160 951.5,-192.5 3.5,0 6.5,-0.5 9.5,-1 38,-4 75.5,-7.5 113.5,-10.5 306.5,-23.5 616,-19 921.5,21"
         style="fill:#968dcc;fill-opacity:1;fill-rule:nonzero;stroke:none"
         id="path72" /><path
         d="m 21235.5,8956.3 c -668.5,-98.5 -1344.5,-95.5 -1997.5,11.5 -65.5,10 -131,21.5 -196,34.5 -950.5,187 -1948.5,523 -3005.5,1014 367.5,-88.5 745,-133 1123,-139.5 473.5,-7 947,47 1408.5,153.5 460.5,108.5 910.5,270.5 1323,506 205.5,118 401.5,255.5 575.5,418 163,149 302.5,326.5 402,526 14.5,-27.5 30,-55 46.5,-81.5 32.5,-54.5 68.5,-107.5 107,-158 3,-11.5 20,-75.5 43,-188 15.5,-75 33.5,-171 52,-287.5 62.5,-392.5 131,-1014 118.5,-1809"
         style="fill:#f9a529;fill-opacity:1;fill-rule:nonzero;stroke:none"
         id="path74" /><path
         d="m 30646,14507.3 c -228,-245 -467.5,-482.5 -719.5,-712.5 -1711,-1558 -3450,-2772 -5194.5,-3630.5 -352,-61 -711.5,-71.5 -1067.5,-44 -360.5,28 -718.5,95 -1064,202 -345,107 -679.5,252 -982,449.5 -299,195 -569.5,449 -725,770.5 v 1872.5 c 74,188.5 192,361.5 356,480.5 164,120.5 368,182 571,180 203.5,-2 406.5,-64.5 573.5,-180.5 166.5,-114.5 294,-285 349.5,-479.5 12.5,-195.5 14.5,-393 7,-589.5 -8.5,-197.5 -26.5,-395.5 -72.5,-587.5 -1,-4 1.5,-8 5,-9 4,-1 8,1.5 9,5 52,192.5 76,391.5 90.5,589.5 12.5,187.5 16.5,375 11.5,563.5 356,-94 719.5,-155.5 1085,-193 376.5,-39 755,-56 1133,-52 756.5,8 1510.5,78 2257.5,187 3.5,0.5 6.5,4 6,8 -0.5,4 -4,6.5 -8,6 -374.5,-46 -750,-84 -1126,-112 -376,-27.5 -753,-43.5 -1129.5,-42 -376.5,1.5 -753.5,16 -1127.5,57 -369.5,40 -737,102.5 -1097,194.5 -60,201 -193.5,377 -365,495 -176,122 -388,187.5 -601.5,189.5 -213,2.5 -428,-62.5 -601,-189.5 -160,-116.5 -277.5,-281.5 -355.5,-461 -84,140.5 -187,272.5 -315,377 l -364.5,983 c 778,270 1424.5,628 1947,1079.5 1019,-1125 3564,-2073 5807,-2073 1023.5,0 1983.5,198 2707,666"
         style="fill:#968dcc;fill-opacity:1;fill-rule:nonzero;stroke:none"
         id="path76" /><path
         d="m 24885.1,13165.2 c 100.1,779 304.8,1113.1 304.8,1113.1 -1217.2,295.2 -2213.7,840.6 -2989.4,1636 l -1953,-1095.5 288.5,-930.6 332.3,-468.5 c 655.4,909 1312.2,832.6 1970.2,-43.7 650,-183.3 1332.3,-253 2046.6,-210.8"
         style="fill:#ffffff;fill-opacity:1;fill-rule:nonzero;stroke:none"
         id="path78" /><path
         d="m 24597,13170.9 c 242.8,-391.5 303.1,-953.9 301.5,-1574.3 -0.8,-285.1 296.7,-470.7 554.3,-348.6 596.1,282.4 1023.8,840.7 1083.3,2001.7 l -1939.1,-78.8"
         style="fill:#807bb7;fill-opacity:1;fill-rule:nonzero;stroke:none"
         id="path80" /><path
         d="m 23910,13305.1 -1036.7,114.6 c -914,1001.3 -1490.1,778 -1948.3,126.9 l -27.5,-1997.8 c 0,0 772.2,-1413.4 2192.3,-1375.4 1770.5,47.3 852.5,3039.7 852.5,3039.7 l -32.3,92"
         style="fill:#ffffff;fill-opacity:1;fill-rule:nonzero;stroke:none"
         id="path82" /><path
         d="m 24030.7,10255.8 c -118.2,0 -236.7,4.8 -354.8,13.9 -37.1,2.9 -74.2,6.3 -111.2,10 506,245.4 629.7,874.9 614.2,1488.1 243.6,22.2 484.5,51.2 716.3,86.2 2.5,-84.4 3.5,-170.4 3.3,-257.4 -0.6,-224.1 183.1,-386.8 386.9,-386.8 55.4,0 112.3,12.1 167.4,38.2 378.5,179.3 689.2,469.8 880.7,955.4 1034.2,400.7 921.1,891.4 841.5,1062.2 33.3,7 66.6,14 100,21.2 23.7,5.1 40.9,26.9 39.5,51.8 -1.5,26.7 -23.6,47.4 -50,47.4 -0.9,0 -1.9,-0.1 -2.9,-0.1 -377.3,-20.5 -753.3,-38.8 -1128.4,-50 -93.7,-3.9 -187.5,-4.8 -281.2,-6.4 -93.6,-2.5 -187.2,-3.4 -280.7,-3.5 -27.7,-0.4 -55.3,-0.5 -83,-0.5 -65.8,0 -131.5,0.9 -197.2,1.8 -1.3,0 -2.6,0 -3.8,0 -92.1,0 -184,1.8 -275.8,5.2 -33.9,1.1 -67.9,2.3 -101.8,3.5 89.8,558.9 229.5,848.6 269.3,922.8 888.1,-261 1849,-417.5 2760,-417.5 800.7,0 1562.6,121.3 2202.8,398.1 -108.6,-106.5 -219.7,-211.5 -333.3,-314.9 -1715.8,-1562.5 -3458.3,-2776.4 -5205.9,-3628.9 -188.5,-27.2 -379.9,-39.8 -571.9,-39.8 m -3450.4,3569.9 c -10.1,8.9 -20.4,17.6 -30.8,26.1 l -13.5,36.4 44.3,-62.5 m -44.3,62.6 -351,946.5 c 89.7,31.2 177.6,63.5 263.8,96.9 l -201.3,-112.9 288.5,-930.6 m 4094.5,548.4 c -391,127.5 -756.4,284 -1096.1,469.5 337,-172.8 706.2,-331 1096.1,-469.5 m -2641.2,1359.3 c 48.6,38.7 96.1,78.2 142.7,118.4 7.6,-8.4 15.4,-16.9 23.2,-25.4 l -165.9,-93"
         style="fill:#6962b1;fill-opacity:1;fill-rule:nonzero;stroke:none"
         id="path84" /><path
         d="m 24909.7,13336 c -338.1,12.8 -674.5,34.6 -1007.9,73.2 -336.7,38.1 -670.3,90 -999.8,160.2 -79.4,198.4 -221.2,371.1 -394.1,489.6 -201.6,139.8 -442.6,214 -685.8,216.2 -4.5,0.1 -9,0.1 -13.5,0.1 -238.5,0 -481.3,-74.5 -676.8,-218.5 -158.1,-114.4 -279,-268.8 -364.7,-435.8 -55.2,74.2 -117.1,143.5 -186.8,204.7 v 0 l -44.3,62.5 v 0.1 -0.1 l -288.5,930.6 201.3,112.9 c 594.9,231 1107.2,518.2 1540.5,864.2 l 165.9,93 c 328.5,-353.8 807.3,-689.4 1379.2,-982.8 339.7,-185.5 705.1,-342 1096.1,-469.5 178.9,-63.6 362,-123 548.5,-177.8 -39.8,-74.2 -179.5,-363.9 -269.3,-922.8"
         style="fill:#b2b2d4;fill-opacity:1;fill-rule:nonzero;stroke:none"
         id="path86" /><path
         d="m 25285.4,11209.8 c -203.8,0 -387.5,162.7 -386.9,386.8 0.2,87 -0.8,173 -3.3,257.4 475.5,71.9 912.8,169 1256.3,283.8 64.3,21.6 124.9,43.4 182,65.6 -191.5,-485.6 -502.2,-776.1 -880.7,-955.4 -55.1,-26.1 -112,-38.2 -167.4,-38.2"
         style="fill:#5956a2;fill-opacity:1;fill-rule:nonzero;stroke:none"
         id="path88" /><path
         d="m 23564.7,10279.7 c -311.7,31.6 -621.2,93.2 -920,185.7 -333.8,103.6 -656.7,244.3 -943.8,431.7 -274.9,178.8 -517.6,408 -657.6,680.2 v 540.8 c 352.2,-283.1 1156.5,-400.8 2059.1,-400.8 350.9,0 716.6,17.7 1076.5,50.5 15.5,-613.2 -108.2,-1242.7 -614.2,-1488.1"
         style="fill:#b2b2d4;fill-opacity:1;fill-rule:nonzero;stroke:none"
         id="path90" /><path
         d="m 19536.9,9101.7 c -154.9,18.2 -308.8,42.3 -461.2,72.2 -748.6,147.2 -1527.7,388.5 -2343,726.8 141.8,-13.6 284.3,-21.4 426.8,-23.9 27.2,-0.4 54.5,-0.6 81.7,-0.6 446.2,0 891.8,53.8 1326.8,154.1 7.8,1.9 15.6,3.7 23.4,5.6 359,41 703.2,177.2 1011.3,350.3 97.9,46.4 194,96.3 288.3,150.1 205.5,118 401.5,255.5 575.5,418 120.1,109.8 227.4,235.1 315.4,373.2 31.7,-53.2 66.1,-104.3 102.6,-153.4 19.1,-77.6 71.8,-307.7 118.6,-666.8 -187.3,-372.3 -594.5,-972.7 -1466.2,-1405.6"
         style="fill:#ae733f;fill-opacity:1;fill-rule:nonzero;stroke:none"
         id="path92" /><path
         d="m 20843.5,13412.8 v -1870.5 c -97,-208.5 -240.5,-395.5 -411,-551.5 -171,-159 -363.5,-294.5 -566.5,-411 -407,-232.5 -853,-393.5 -1309.5,-500.5 -457,-106 -927,-159.5 -1396.5,-152.5 -467,8 -934,73.5 -1380,211 -1205,583 -2487,1363.5 -3863.5,2352 -249.5,180 -490.5,362 -722.5,546.5 264.5,-84.5 518,-127 755.5,-127 104.5,0 206,8 304,24 483.5,79.5 884,353.5 1160.5,809.5 95.5,159 173,334.5 231.5,523.5 3.5,-2.5 8,-4.5 13,-5 651.5,-36 1264,-54.5 1840.5,-54.5 1558.5,0 2852.5,133 3923.5,401.5 249.5,63 488,133 715,210.5 l 338,-911 c -6.5,4.5 -12.5,9.5 -19.5,14 -184,123 -410,183 -630.5,169 -221.5,-12 -435,-87.5 -622.5,-202 -139,-84.5 -264.5,-190.5 -370.5,-313.5 l -1,-1 c -35,-40.5 -68,-83 -99,-127 -170,-52.5 -343,-95 -518,-128.5 -2.5,-0.5 -5,-1 -7.5,-1.5 -399.5,-75.5 -809,-101.5 -1216,-83 -326.5,15 -651.5,57.5 -972.5,122 0,0 -1.5,0.5 -5,1 -73,15 -146,31 -218.5,48 -183.5,43 -365.5,92.5 -545.5,148 -3.5,1 -7.5,-1 -9,-4.5 -1,-4 1,-8 5,-9 116.5,-37.5 233.5,-72 351,-104 455,-123.5 921.5,-207.5 1393,-233.5 588.5,-33 1184,27 1751,195.5 -19.5,-158.5 -28.5,-316 -34,-474.5 -5.5,-161.5 -6.5,-323 -3.5,-484.5 0,-3.5 3,-6.5 7,-7 4,0 7,3.5 7,7.5 3,161 10,322 21.5,482.5 11.5,160 27,321 52.5,478 v 1 1 c 1.5,10 -3.5,20 -12,24.5 85.5,121 189.5,229.5 307,320.5 45.5,36 93.5,69.5 143,99.5 181.5,110.5 387.5,183 599,195 211,13 425,-44 600.5,-161.5 73.5,-48 140,-106 200,-170 83.5,-89 154.5,-190.5 215,-297"
         style="fill:#f9a529;fill-opacity:1;fill-rule:nonzero;stroke:none"
         id="path94" /><path
         d="m 18425.1,10024 c -639.3,388.5 -1540.1,1774.8 -977.8,3189.1 l 1262.7,201.7 c 0,0 1016.6,1477.5 2158.3,68.3 l 35.8,-2017.2 c 0,0 -1163.9,-1404.3 -2479,-1441.9"
         style="fill:#ffffff;fill-opacity:1;fill-rule:nonzero;stroke:none"
         id="path96" /><path
         d="m 11949.5,12909.3 c 0.9,0 1.8,0 2.7,0 -0.9,0 -1.8,0 -2.7,0 m 3,0 c 0.9,0 1.7,0 2.6,0 -0.9,0 -1.7,0 -2.6,0 m 2.7,0 c 117.8,0.4 231.9,11.3 341.6,31.7 -14.4,-2.7 -28.8,-5.3 -43.3,-7.7 -96.3,-15.7 -195.9,-23.7 -298.3,-24 m 383.4,40.2 c 9.7,2.2 19.3,4.4 28.9,6.8 15.5,3.5 30.5,7.5 45.5,11.5 6,1.5 12,3 17.5,4.5 12,3 23.5,6.5 35,10 12.1,3.8 24.2,7.5 36,11.2 -53.1,-17.3 -107.4,-32 -162.9,-44 m 245.4,73.5 c 6.5,2.6 13,5.2 19.5,7.8 12.5,5 24.5,10 37,15.5 69.5,30 136,64.5 200,104.5 4.8,2.8 9.6,5.7 14.3,8.6 -85.7,-54.2 -176.2,-99.7 -270.8,-136.4 m 324.9,172.2 c 2.2,1.6 4.4,3.1 6.6,4.6 1.9,1.4 3.9,2.7 5.9,4.1 -4.2,-2.9 -8.3,-5.8 -12.5,-8.7 m 4308.5,13 c -352.7,0 -756.5,39.3 -1198.9,148.1 0,0 -1.5,0.5 -5,1 v 0 0 c 3.5,-0.5 5,-1 5,-1 321,-64.5 646,-107 972.5,-122 83.6,-3.8 167.3,-5.7 251.1,-5.7 130.4,0 260.9,4.7 390.9,14.2 l -179.4,-28.7 c -75.9,-3.8 -154.7,-5.9 -236.2,-5.9 m -4262.8,19.9 c 3,2.2 5.9,4.5 8.9,6.7 0.8,0.7 1.8,1.4 2.8,2 -3.9,-2.9 -7.8,-5.8 -11.7,-8.7 m 2840.4,177.2 v 0 c -58,10.5 -125,21.5 -198.5,30.5 v 0 c -117.5,32 -234.5,66.5 -351,104 -4,1 -6,5 -5,9 1.2,2.9 4.2,4.8 7.1,4.8 0.6,0 1.3,-0.1 1.9,-0.3 180,-55.5 362,-105 545.5,-148 v 0"
         style="fill:#b1a4b2;fill-opacity:1;fill-rule:nonzero;stroke:none"
         id="path98" /><path
         d="m 17241.7,9926.2 c -27.3,0 -54.5,0.2 -81.7,0.6 -196.7,3.4 -393.3,17 -588.4,41.8 -1400.1,599.3 -2907.5,1482 -4553,2663.3 -140.2,101.1 -277.4,202.8 -412.1,305.2 117.5,-18.5 232,-27.8 343,-27.8 v 0 c 0.9,0 1.8,0 2.7,0 0.1,0 0.2,0 0.3,0 0.9,0 1.7,0 2.6,0 0,0 0,0 0.1,0 102.4,0.3 202,8.3 298.3,24 14.5,2.4 28.9,5 43.3,7.7 0.6,0.1 1.1,0.2 1.7,0.3 1,0 2,0.5 3,0.5 12.5,2.5 24.9,5.1 37.1,7.7 55.5,12 109.8,26.7 162.9,44 0.8,0.3 1.6,0.6 2.5,0.8 17,5.5 34,11.5 51,17.5 9.8,3.6 19.4,7.4 29,11.2 94.6,36.7 185.1,82.2 270.8,136.4 4.6,2.9 9.2,5.7 13.7,8.4 13.7,9.1 27.1,18.1 40.4,27.4 4.2,2.9 8.3,5.8 12.5,8.7 11.1,7.7 22.1,15.7 33.2,24.2 3.9,2.9 7.8,5.8 11.7,8.7 1.3,0.9 2.5,1.7 3.7,2.5 170.5,130.5 320,298.5 444,503.5 95.5,159 173,334.5 231.5,523.5 3.5,-2.5 8,-4.5 13,-5 651.5,-36 1264,-54.5 1840.5,-54.5 1558.5,0 2852.5,133 3923.5,401.5 249.5,63 488,133 715,210.5 l 338,-911 c -6.5,4.5 -12.5,9.5 -19.5,14 -166.5,111.3 -367.4,171 -567.4,171 -13.4,0 -26.8,-0.2 -40.1,-0.8 -5.7,0.1 -11.3,0.2 -17,0.2 -223.1,0 -424.3,-78.5 -592.6,-182.1 -12.1,-6.9 -24.1,-14 -35.9,-21.3 -139,-84.5 -264.5,-190.5 -370.5,-313.5 l -1,-1 v 0 c -40,-30.5 -80.5,-63.5 -121.5,-98.5 0,0 -114.1,-53.5 -322.5,-112.5 l -754.5,-120.5 c -130,-9.5 -260.5,-14.2 -390.9,-14.2 -83.8,0 -167.5,1.9 -251.1,5.7 -326.5,15 -651.5,57.5 -972.5,122 0,0 -1.5,0.5 -5,1 v 0 c -19.5,5.5 -100,26.5 -218.5,48 v 0 c -183.5,43 -365.5,92.5 -545.5,148 -0.6,0.2 -1.3,0.3 -1.9,0.3 -2.9,0 -5.9,-1.9 -7.1,-4.8 -1,-4 1,-8 5,-9 116.5,-37.5 233.5,-72 351,-104 v 0 0 c -118,15 -252.8,26.1 -393.1,26.1 -529.8,0 -1140.1,-157.4 -1238.9,-855.1 631,-383 1241.5,-717 1833.5,-1003.5 446,-137.5 913,-203 1380,-211 27.2,-0.4 54.5,-0.6 81.8,-0.6 55,0 110.1,0.9 165.2,2.5 217.6,-629.3 625.7,-1127.5 968.4,-1350.3 -378.7,-77 -765.1,-117.7 -1151.7,-117.7"
         style="fill:#ae733f;fill-opacity:1;fill-rule:nonzero;stroke:none"
         id="path100" /><path
         d="m 18393.4,10043.9 v 0 c -342.7,222.8 -750.8,721 -968.4,1350.3 387,11.5 772.6,63.2 1149.5,150.6 456.5,107 902.5,268 1309.5,500.5 203,116.5 395.5,252 566.5,411 89.2,81.7 171,171.9 242.8,269.2 v -1189.2 -2.1 c 0.1,-24.2 5.4,-48.8 16.5,-72 13.9,-29.2 28.6,-57.8 44.1,-85.8 -87.9,-142.5 -197.5,-272.2 -321.4,-385.6 -171,-159 -363.5,-294.5 -566.5,-411 -407,-232.5 -853,-393.5 -1309.5,-500.5 -54.2,-12.5 -108.5,-24.3 -163.1,-35.4 m -939.8,3170.2 179.4,28.7 754.5,120.5 c -52,-14.7 -109.7,-29.8 -173,-44.5 -2.5,-0.5 -5,-1 -7.5,-1.5 -200.1,-46.1 -454.3,-88.1 -753.4,-103.2 m 1785.3,696 v 0 c 168.3,103.6 369.5,182.1 592.6,182.1 5.7,0 11.3,-0.1 17,-0.2 v 0 c -7.7,-0.3 -15.4,-0.7 -23,-1.2 -207.5,-11.2 -408,-78.2 -586.6,-180.7"
         style="fill:#b2b2d4;fill-opacity:1;fill-rule:nonzero;stroke:none"
         id="path102" /><path
         d="m 13371,13768.8 c -466.5,-771.5 -1302,-1004.5 -2292.5,-640.5 -3320.53,2675.5 -4842.53,5790 -4525.54,9269.5 78,859.5 297.51,1687.5 637,2453 102.5,33 774.5,229 1348.01,-92 396.99,-222 662.5,-640.5 788.99,-1244.5 389.01,-1850.5 741.04,-3132 2040.54,-4050.5 181,-128 323.5,-240 448,-352.5 891.5,-804.5 1525.5,-1824.5 1784.5,-2871.5 233,-944 150,-1844.5 -229,-2471"
         style="fill:#b1431f;fill-opacity:1;fill-rule:nonzero;stroke:none"
         id="path104" /><path
         d="m 11947.4,12960.2 c -137.3,0 -280,14.3 -427.3,43 -3502.28,2695.4 -5114.39,5848.3 -4792.99,9378.9 68.31,750.3 246.08,1476.5 519.69,2156.2 16.7,3.3 34.26,6.6 52.55,9.7 -39.85,-221.2 -70.29,-445.4 -90.88,-671.7 -305.02,-3347.8 1092.48,-6357.8 4156.43,-8964 349.3,-297.1 789.5,-473.5 1245.9,-473.6 27.8,0 55.7,0.7 83.7,2 339,16.1 642.3,122.3 896.5,315 -7.4,-284.4 -47.7,-554 -120.5,-800.9 93.5,195.8 162.1,412.8 205.1,645.3 -56.9,-308.9 -159.1,-590.2 -304.6,-831.3 v 0 c -322.1,-532.6 -820.2,-808.6 -1423.6,-808.6"
         style="fill:#7c2f38;fill-opacity:1;fill-rule:nonzero;stroke:none"
         id="path106" /><path
         d="m 13675.6,14600.1 c 0.8,4.1 1.6,8.2 2.3,12.4 v -0.1 c -0.8,-4.1 -1.5,-8.2 -2.3,-12.3 m -84.6,155.6 c 9.3,356.4 -33.2,735.9 -128.5,1122.6 -259,1047 -893,2067 -1784.5,2871.5 -124.5,112.5 -267,224.5 -448,352.5 -1299.54,918.5 -1651.53,2200 -2040.54,4050.5 -126.49,604 -392,1022.5 -789,1244.5 -249.29,139.6 -517.26,181.4 -748.91,181.4 -132.78,0 -253.58,-13.7 -352.2,-30.7 12.89,71.6 26.77,142.9 41.61,213.8 11.87,27 23.92,53.9 36.1,80.7 36.85,7.2 77.55,14.1 121.41,20.1 10.62,20.3 21.37,40.7 32.16,61 77.88,9.9 165.22,16.6 258.4,16.6 231.68,0 499.61,-41.8 748.94,-181.4 396.99,-222 662.5,-640.5 788.99,-1244.5 389.01,-1850.5 741.04,-3132 2040.54,-4050.5 181,-128 323.5,-240 448,-352.5 148.2,-133.8 289.4,-273.5 422.9,-418.4 -109,104.6 -215.5,212.3 -319.4,322.9 1047.2,-1285.2 1719.9,-2660.8 1757.7,-4190.2 -27.8,-24.4 -56.4,-47.7 -85.7,-69.9"
         style="fill:#e0b4a5;fill-opacity:1;fill-rule:nonzero;stroke:none"
         id="path108" /><path
         d="m 13470.5,13954.8 c 72.8,246.9 113.1,516.5 120.5,800.9 29.3,22.2 57.9,45.5 85.7,69.9 1.8,-70.7 2.2,-141.7 1.2,-213.1 -0.7,-4.2 -1.5,-8.3 -2.3,-12.4 -43,-232.5 -111.6,-449.5 -205.1,-645.3 M 7246.8,24538.3 c 30.23,75.1 61.6,149.6 94.16,223.5 -14.84,-70.9 -28.72,-142.2 -41.61,-213.8 -18.29,-3.1 -35.85,-6.4 -52.55,-9.7"
         style="fill:#cbacaf;fill-opacity:1;fill-rule:nonzero;stroke:none"
         id="path110" /><path
         d="m 22691.5,16638.8 c -170,-349.5 -489,-577.5 -875.5,-625 -46,-6 -92,-8.5 -138,-8.5 -284.5,0 -562,108 -777.5,306 -174.5,161 -296,367 -353,592 -28,111.5 -40.5,227.5 -36,345 34,847 18.5,1633.5 -47.5,2374 -1.5,4 -2,8 -1,12 -50,554.5 -129,1082.5 -236.5,1590.5 -155,4 -309,39.5 -448,108.5 -83,38.5 -157,93.5 -226.5,151 -68,60 -129.5,126.5 -185,197.5 -2.5,3 -2,7.5 1,10 3,2.5 7.5,2 10,-1 118,-133 256.5,-250.5 417.5,-322 80,-35.5 163.5,-64.5 250.5,-78.5 86.5,-15 174,-19.5 261.5,-14.5 87.5,6 174,22 258,47 83.5,26.5 163.5,62.5 239.5,106.5 74.5,45 146.5,98.5 216,153.5 69.5,55 136.5,113 199.5,175 63.5,62.5 123,127.5 178,197 54,70.5 107,141.5 145,219.5 77.5,156 107,335 87,508.5 -10,87.5 -33.5,170 -65,254.5 l -90,253 -180.5,506 c -5,13 2,27.5 15,32 13,5 27,-2 32,-15 l 180.5,-506.5 90,-253 c 28.5,-75 51.5,-156 63.5,-237.5 153.5,-101 332,-165.5 515,-175 91,-4.5 183.5,4.5 271,29 87,25.5 170,66 241.5,121 144.5,110 232.5,285 245,468.5 7.5,91.5 -1,184.5 -19.5,275.5 -19.5,91 -48.5,180 -84,266.5 -1.5,4 0,8 4,9.5 3.5,1.5 7.5,0 9,-3.5 39.5,-85.5 75,-174 98.5,-266 22,-92.5 34,-188.5 29,-284.5 -4.5,-96 -26,-192 -68.5,-280 -22.5,-49 -52.5,-93.5 -87,-134.5 h -0.5 c -679,-1313 -676.5,-2315.5 -672,-3475 139,-230.5 257.5,-455 354,-671 351.5,-787.5 417.5,-1468.5 180,-1958 m 1323.5,7378 c -99,730.5 -349.5,1353 -745.5,1843.5 -575,711.5 -1444,1115 -2513,1167.5 -1.5,0.5 -3,1 -4,1 -1055.5,31 -1941,288 -2698,786.5 -1635,1047.5 -3120,1406 -4386.5,1406 -1545,0 -2764,-533 -3533.5,-998 -1286.53,-777.5 -2296.03,-1943 -2917.54,-3312 189,53.5 808,191.5 1345,-108.5 410.5,-229.5 684.01,-659.5 814.01,-1278 386.49,-1839 736.03,-3112 2020.53,-4020.5 182.5,-129 326.5,-242 452.5,-356 256.5,-231.5 492,-481 704,-743.5 529,-657.5 908.5,-1398 1095.5,-2153 169,-685 173,-1348 19.5,-1903.5 -3,-12.5 -6.5,-25 -10,-37.5 1,0 2,0.5 3.5,0.5 h 4 c 2404.5,-134 4284,-21 5745,345.5 256.5,64.5 500.5,137 733,216.5 l 0.5,0.5 h 0.5 c 788.5,271 1441.5,632 1966.5,1089 1.5,2 2.5,4.5 5,6 2,2 4.5,3.5 7,4.5 386.5,338.5 704,729 954.5,1174.5 373.5,663.5 569.5,1445.5 566.5,2261 -3,911 103.5,1805.5 317,2658.5 116.5,710.5 133.5,1364.5 54,1949.5"
         style="fill:#f9a529;fill-opacity:1;fill-rule:nonzero;stroke:none"
         id="path112" /><path
         d="m 7405.25,24903.8 c 8.61,18.6 17.22,36.9 25.98,55.3 39.52,6.7 82.49,12.9 128.21,18 -9.68,-17.9 -19.26,-35.7 -28.81,-53.5 -45.2,-5.8 -87.24,-12.6 -125.38,-19.8"
         style="fill:#fff7eb;fill-opacity:1;fill-rule:nonzero;stroke:none"
         id="path114" /><path
         d="m 7377.06,24842.5 c 9.32,20.6 18.69,40.9 28.19,61.3 38.14,7.2 80.18,14 125.38,19.8 -10.79,-20.3 -21.54,-40.7 -32.16,-61 -43.86,-6 -84.56,-12.9 -121.41,-20.1"
         style="fill:#f3e1db;fill-opacity:1;fill-rule:nonzero;stroke:none"
         id="path116" /><path
         d="m 23924,24392.1 c -132,391 -319,738 -560,1036.5 -575,711.5 -1444,1115 -2513,1167.5 -1.5,0.5 -3,1 -4,1 -1055.5,31 -1941,288 -2698,786.5 -1635,1047.5 -3120,1406 -4386.5,1406 -1545,0 -2764,-533 -3533.5,-998 -1127.92,-681.6 -2042.56,-1661.2 -2669.56,-2814.5 -45.72,-5.1 -88.69,-11.3 -128.21,-18 610.69,1285.6 1575.31,2378 2793.87,3114.4 1074.5,649.4 2230.2,972.8 3418.9,972.8 1418.4,0 2883.8,-460.5 4314.3,-1377 836.3,-550.9 1819.6,-819.2 3003.9,-819.2 29.6,0 59.5,0.2 89.3,0.5 70.1,0.8 139.8,6.7 208.3,17.5 839.5,-138.3 1527.8,-518.2 2009.7,-1114.5 306,-378.5 525,-836.5 654.5,-1361.5"
         style="fill:#fddba9;fill-opacity:1;fill-rule:nonzero;stroke:none"
         id="path118" /><path
         d="m 15502.3,14256.9 v 0 c 0.1,0 0.2,0 0.3,0 -0.1,0 -0.2,0 -0.3,0 m -0.2,0 c -565.7,0 -1166.4,17.6 -1804.2,52.6 637.6,-35 1238.6,-52.5 1804.2,-52.6 m -1813.6,53.2 h -0.2 0.2 m -11.9,0.6 c -3.7,0.2 -7.5,0.4 -11.1,0.6 v 0 c 3.6,-0.2 7.4,-0.4 11.1,-0.6 m -8.6,37.6 c 5.4,88.4 8.7,176.2 9.9,263.5 19.6,108.7 33.7,220.8 42.2,335.7 0.1,0.1 0.1,0.4 0.1,0.5 0.1,0.9 0.1,1.9 0.2,2.8 29.6,403.6 -9.9,841.5 -120.4,1289 v 0 c -216,872.9 -692.5,1727 -1361.6,2453.1 102.8,-98.8 207.7,-194.8 314.6,-288.1 v 0 c 529,-657.5 908.5,-1398 1095.5,-2153 169,-685 173,-1348 19.5,-1903.5 m 5736.2,307 c 2.1,0.5 4.2,1 6.3,1.5 256.5,64.5 500.5,137 733,216.5 l 0.5,0.5 h 0.5 c 250,86 486.4,181 709.4,285.2 v 0 c -223,-104.2 -459.4,-199.2 -709.4,-285.2 h -0.5 l -0.5,-0.5 c -232.5,-79.5 -476.5,-152 -733,-216.5 -2.1,-0.5 -4.2,-1 -6.3,-1.5"
         style="fill:#b1a4b2;fill-opacity:1;fill-rule:nonzero;stroke:none"
         id="path120" /><path
         d="m 13677.9,14611.8 c 0,0.2 0,0.4 0,0.6 19.6,108.6 33.7,220.4 42.2,335.1 -8.5,-114.9 -22.6,-227 -42.2,-335.7 m 42.3,336.2 c 0.1,0.9 0.1,1.9 0.2,2.8 -0.1,-0.9 -0.1,-1.9 -0.2,-2.8"
         style="fill:#7c2f38;fill-opacity:1;fill-rule:nonzero;stroke:none"
         id="path122" /><path
         d="m 13720.1,14947.5 c 0.1,0.2 0.1,0.3 0.1,0.5 0,-0.1 0,-0.4 -0.1,-0.5 m 0.3,3.3 c 29.5,403.5 -10,841.4 -120.4,1289 110.5,-447.5 150,-885.4 120.4,-1289"
         style="fill:#b2acc6;fill-opacity:1;fill-rule:nonzero;stroke:none"
         id="path124" /><path
         d="m 13677.9,14612.4 v 0.1 c 14.4,79.8 25.7,161.5 34.1,244.8 -11.7,-10.7 -23.4,-21.3 -35.3,-31.7 -37.8,1529.4 -710.5,2905 -1757.7,4190.2 103.9,-110.6 210.4,-218.3 319.4,-322.9 669.1,-726.1 1145.6,-1580.2 1361.6,-2453.1 v 0 c 110.4,-447.6 149.9,-885.5 120.4,-1289 -0.1,-0.9 -0.1,-1.9 -0.2,-2.8 0,-0.2 0,-0.3 -0.1,-0.5 -8.5,-114.7 -22.6,-226.5 -42.2,-335.1"
         style="fill:#9c7e96;fill-opacity:1;fill-rule:nonzero;stroke:none"
         id="path126" /><path
         d="m 13677.9,14612.5 c 1,71.4 0.6,142.4 -1.2,213.1 11.9,10.4 23.6,21 35.3,31.7 -8.4,-83.3 -19.7,-165 -34.1,-244.8"
         style="fill:#8e789d;fill-opacity:1;fill-rule:nonzero;stroke:none"
         id="path128" /><path
         d="m 15502.3,14256.9 c -0.2,0 -0.1,0 -0.2,0 -565.6,0.1 -1166.6,17.6 -1804.2,52.6 -3.2,0.2 -6.2,0.4 -9.4,0.6 h -0.2 c -4,0.2 -7.7,0.4 -11.7,0.6 -3.7,0.2 -7.5,0.4 -11.1,0.6 1.5,12.5 2,25 2.5,37 v 0 c 153.5,555.5 149.5,1218.5 -19.5,1903.5 -187,755 -566.5,1495.5 -1095.5,2153 1540.1,-1344.7 3485.6,-2111.7 5334,-2111.7 933.1,0 1841.1,195.3 2660.5,610.2 57,-225 178.5,-431 353,-592 215.5,-198 493,-306 777.5,-306 46,0 92,2.5 138,8.5 386.5,47.5 705.5,275.5 875.5,625 94.1,194.1 140.6,418.3 140.5,667.3 -0.2,379 -108.4,815.5 -320.5,1290.7 900.5,1243 1472.5,3023.5 1503,5421 l 0.5,-1 c 32.6,-239.9 48.9,-491.5 48.9,-753.7 -0.1,-377.2 -34.2,-776.7 -102.9,-1195.8 -210.6,-841.3 -317.1,-1723 -317.1,-2621.1 0,-12.5 0,-24.9 0.1,-37.4 0,-6.3 0,-12.7 0,-19.1 -0.1,-808.6 -196,-1583.5 -566.5,-2241.9 -250.5,-445.5 -568,-836 -954.5,-1174.5 -2.5,-1 -5,-2.5 -7,-4.5 -2.5,-1.5 -3.5,-4 -5,-6 -151.3,-131.7 -313.3,-255.4 -486,-371.3 -236.6,-158.8 -493.5,-302.8 -771.1,-432.5 -223,-104.2 -459.4,-199.2 -709.4,-285.2 h -0.5 l -0.5,-0.5 c -232.5,-79.5 -476.5,-152 -733,-216.5 -2.1,-0.5 -4.2,-1 -6.3,-1.5 -1064.8,-266.4 -2351.7,-398.3 -3901.6,-398.4 -0.1,0 -0.2,0 -0.3,0"
         style="fill:#ae733f;fill-opacity:1;fill-rule:nonzero;stroke:none"
         id="path130" /><path
         d="m 22646.5,16660.8 c -162,-334 -467,-552 -836.5,-597.5 -317,-39 -636.5,64.5 -875.5,285 -250.5,230.5 -386.5,558 -373,898 34,847 18.5,1634 -47.5,2375 244,218.5 652.5,-69 656.5,-72 6.5,-5 15.5,-6 23,-3 445,160 744.5,63 917.5,-298 641,-1059.5 831,-1978.5 535.5,-2587.5"
         style="fill:#fc1515;fill-opacity:1;fill-rule:nonzero;stroke:none"
         id="path132" /><path
         d="m 22772.1,17112.9 c 0.1,0.3 0.1,0.6 0.1,0.9 0,-0.3 0,-0.6 -0.1,-0.9 m 0.2,1.5 c 6.7,62 10,125.9 10,191.5 0.1,243.1 -45.6,511 -135.9,798.7 0,0.2 0,0.5 0.1,0.7 114.8,-365.8 157.4,-699.5 125.8,-990.9 m -2210.8,131.9 c 6,151.5 10.5,301.5 13.5,449 v 0 c -3,-147.8 -7.4,-297.4 -13.5,-449"
         style="fill:#b1a4b2;fill-opacity:1;fill-rule:nonzero;stroke:none"
         id="path134" /><path
         d="m 21678.2,16055.3 c -272.3,0 -537.8,103.1 -743.7,293 -239.3,220.2 -374.1,528.8 -374,852.3 0.1,15.2 0.4,30.5 1,45.7 v 0 c 6.1,151.6 10.5,301.2 13.5,449 60.5,-115 141,-220.5 239,-311 205.8,-189.5 471.4,-292.5 743.7,-292.5 43.8,0 87.8,2.6 131.8,8 369.5,45.5 674.5,263 836.5,597 3.6,7.6 7.2,15.3 10.8,23 132.9,-487.6 131.4,-913.7 -9.8,-1252 17.1,22 33.4,44.7 48.8,68.2 -172.1,-263.2 -444.6,-433.1 -765.8,-472.7 -44,-5.4 -88,-8 -131.8,-8"
         style="fill:#b00f31;fill-opacity:1;fill-rule:nonzero;stroke:none"
         id="path136" /><path
         d="m 22575.8,16536 c 25.9,39.6 49.5,81.2 70.7,124.8 v 0 c 65.9,135.9 107.7,287.2 125.6,452.1 v 0 c -17.9,-164.9 -59.7,-316.2 -125.6,-452.1 -21.1,-43.6 -44.6,-85.2 -70.7,-124.8"
         style="fill:#fff7eb;fill-opacity:1;fill-rule:nonzero;stroke:none"
         id="path138" /><path
         d="m 22646.5,16660.8 c 65.9,136 107.6,287.3 125.6,452.1 -17.9,-164.9 -59.7,-316.2 -125.6,-452.1 m 125.7,453 c 0.1,0.2 0.1,0.4 0.1,0.6 0,-0.2 0,-0.4 -0.1,-0.6 m -235.4,606 c -106.2,389.5 -298.2,818.3 -573.3,1273 -119.4,249.1 -299,372.5 -545.1,372.5 -110.5,0 -234.5,-24.9 -372.4,-74.5 -2.9,-1.1 -5.9,-1.6 -8.9,-1.6 -5,0 -10.1,1.5 -14.1,4.6 -2.8,2.3 -217.9,153.7 -429,153.7 -21.8,0 -43.6,-1.6 -65,-5.2 -4.5,60 -9.5,119.5 -15,179 v 0 c 67.1,60.1 146.6,81.9 226.7,81.9 211.3,0 426.9,-151.7 429.8,-153.9 4,-3.1 9.1,-4.6 14.1,-4.6 3,0 6,0.5 8.9,1.6 137.9,49.6 261.9,74.5 372.4,74.5 246.1,0 425.7,-123.3 545.1,-372.5 245,-404.9 424.1,-789.3 535.4,-1143.7 -19.3,-138.7 -55.7,-267.2 -109.6,-384.8"
         style="fill:#fea1a1;fill-opacity:1;fill-rule:nonzero;stroke:none"
         id="path140" /><path
         d="m 22527,16467.8 c 141.2,338.3 142.7,764.4 9.8,1252 53.9,117.6 90.3,246.1 109.6,384.8 90.3,-287.7 136,-555.6 135.9,-798.7 0,-65.6 -3.3,-129.5 -10,-191.5 0,-0.2 0,-0.4 -0.1,-0.6 0,-0.3 0,-0.6 -0.1,-0.9 -18,-164.8 -59.7,-316.1 -125.6,-452.1 v 0 c -21.2,-43.6 -44.8,-85.2 -70.7,-124.8 -15.4,-23.5 -31.7,-46.2 -48.8,-68.2"
         style="fill:#df9fad;fill-opacity:1;fill-rule:nonzero;stroke:none"
         id="path142" /><path
         d="m 22107,19359.3 c -187.5,306 -495.5,386.5 -918.5,238 -68,46.5 -427.5,271.5 -680,84 -50,537 -127,1049.5 -231,1543.5 11,0.5 22,0 33,0.5 91.5,6.5 182,22.5 270,48.5 87.5,27 171.5,65 251,110.5 156,96 296,209.5 426,336.5 64,63.5 125.5,131 181,202.5 55,71.5 109.5,145.5 150,229 76.5,154.5 108,329.5 94.5,501 152,-93 326,-152.5 505.5,-162 186.5,-10 382.5,35.5 535,151.5 -606,-1229.5 -620,-2192 -616.5,-3283.5"
         style="fill:#000072;fill-opacity:1;fill-rule:nonzero;stroke:none"
         id="path144" /><path
         d="m 25531.5,19015.8 c 30,309 -87,596.5 -325,794 -249.5,206 -583,270.5 -901,176 48,174.5 115,353.5 184.5,539.5 69,184 139,373.5 194,566.5 70,-157 209.5,-284 375.5,-333 108.5,-33 225,-37 335.5,-12.5 110.5,24 213.5,79 297.5,155 7.5,6.5 14.5,13.5 21.5,21 -29.5,-90 -44.5,-184 -43.5,-278.5 0,-230.5 103,-460 279,-611 174,-152.5 419,-224.5 647.5,-176.5 1,0 2.5,0.5 3.5,1 -407.5,-369.5 -748,-663.5 -1069,-841.5"
         style="fill:#000072;fill-opacity:1;fill-rule:nonzero;stroke:none"
         id="path146" /><path
         d="m 25478,18987.8 c -90.5,-47 -180,-85 -269,-112 -245,-74 -507.5,-21.5 -702.5,141 -194,162 -292.5,409.5 -263.5,662.5 9.5,82.5 26.5,165.5 48,250 310.5,102 640,43.5 883.5,-158 233.5,-194 343.5,-479 303.5,-783.5"
         style="fill:#fc1515;fill-opacity:1;fill-rule:nonzero;stroke:none"
         id="path148" /><path
         d="m 22105.2,9117.1 h 0.5 -0.5 M 13644,29046.3 c -1188.7,0 -2344.4,-323.4 -3418.9,-972.8 C 8250.55,26880.2 6942.93,24752.6 6727.11,22382.1 6390.83,18688 8171.15,15407.6 12018.6,12631.9 c 2672.8,-1918.7 4981.3,-3049.9 7057.1,-3458 967,-190 1995.6,-143.2 2974.7,135.5 2597.1,739.6 5207.3,2292.3 7758.1,4615.1 1110.9,1011.4 1984.7,2175.3 2597.3,3459 1673.2,3506.7 1077.5,7158.1 -1554.7,9529.2 -2825.9,2578.1 -7204.3,1203.9 -9124.7,117.1 -202.4,-114.5 -435.7,-176.4 -674.9,-179.2 -29.8,-0.3 -59.7,-0.5 -89.3,-0.5 -1184.3,0 -2167.6,268.3 -3003.9,819.2 -1430.5,916.5 -2895.9,1377 -4314.3,1377 m 6622.9,-20387 c -428.1,0 -853.4,40.6 -1268.3,122.1 -2133.3,419.4 -4492.9,1572.8 -7213.6,3525.8 -1982.01,1429.9 -3446.17,3005.7 -4352.18,4684 -907.42,1680.9 -1278.85,3506.8 -1104.05,5427.2 227.29,2496.6 1606.49,4738.6 3689.33,5997.4 1139.3,688.5 2363.9,1037.6 3640.2,1037.6 8.4,0 16.7,0 25.1,0 1489.3,-5.4 3000.8,-492.8 4492.8,-1448.7 790.6,-520.7 1729.6,-769.1 2870.8,-754.1 171.9,2 338.7,46 482.4,127.3 1389.6,786.4 3072.2,1295.4 4616.3,1396.6 1988.2,130.4 3708.7,-411 4974.1,-1565.4 2768.1,-2493.6 3399.5,-6324.9 1647,-9997.9 -635,-1330.6 -1539.6,-2536 -2688.9,-3582.5 C 27481,11264 24817,9681.3 22160,8924.8 21539.7,8748.1 20900.3,8659.3 20266.9,8659.3"
         style="fill:#000072;fill-opacity:1;fill-rule:nonzero;stroke:none"
         id="path150" /><path
         d="m 23985,22061.3 h 0.5 z m -8487,-8004.4 c -579.2,0 -1194.2,18.3 -1847.7,54.7 -96.6,5.4 -170.5,88 -165,184.4 5.3,96.6 87.1,171.8 184.4,165 2391.1,-132.9 4256.9,-21.4 5704.1,341.5 1732.9,434.7 2901.6,1225.9 3573,2418.9 360.7,641.1 549.9,1397.3 547.2,2187 -3.3,920.9 104.2,1825.3 319.4,2688.3 253.2,1552.4 24.8,2821.1 -660.5,3669.3 -547.3,677.3 -1378.6,1061.9 -2404,1112.2 -96.5,4.8 -171,86.9 -166.2,183.4 4.7,96.6 85.9,171.5 183.4,166.2 1127.8,-55.3 2047.3,-484.8 2659.1,-1241.9 750.8,-929.2 1004.1,-2296.1 732.5,-3952.9 -0.8,-4.7 -1.8,-9.5 -3,-14.2 -209.4,-836.9 -313.9,-1714.8 -310.7,-2609.1 2.9,-850.2 -201.9,-1666.2 -592.2,-2359.9 -721,-1281.3 -1961.7,-2127.5 -3792.9,-2586.8 -1082.8,-271.5 -2389.2,-406 -3960.9,-406.1"
         style="fill:#000072;fill-opacity:1;fill-rule:nonzero;stroke:none"
         id="path152" /><path
         d="m 27925.8,13691.3 c -547.5,0 -1131,55.7 -1738.2,168.9 -1770.6,329.9 -3413.8,1104.7 -4186.1,1973.9 -64.2,72.3 -57.6,182.9 14.6,247.1 72.2,64.2 182.9,57.7 247,-14.5 724,-814.8 2289.6,-1545.9 3988.6,-1862.5 1875.4,-349.5 3500,-134.4 4457.3,590 77.1,58.4 186.9,43.1 245.2,-33.9 58.3,-77.1 43.1,-186.9 -33.9,-245.2 -716.8,-542.4 -1764,-823.8 -2994.5,-823.8"
         style="fill:#000072;fill-opacity:1;fill-rule:nonzero;stroke:none"
         id="path154" /><path
         d="m 27275,13286.8 c -370.8,-79.8 -745.2,-144.9 -1122.5,-193.4 -188.7,-24.5 -378,-45.8 -568.2,-60.6 -94.9,-8.6 -190.1,-15.8 -285.5,-20.8 -95.3,-6.1 -190.7,-10.4 -286.3,-13 -382.4,-14.2 -767,-4.8 -1150.8,32 -383.6,38 -766.4,107.2 -1138.3,219.5 l -0.1,0.1 -4,1.1 c -59.8,17.1 -103.3,63.9 -119.2,119.6 -45.7,161.8 -150.7,302.9 -292,400.4 -140.8,97.9 -315.4,152.3 -488.7,153.5 -173.4,1.8 -344.3,-50.3 -481.4,-151.1 -138.2,-100.2 -240.1,-248.4 -306.3,-417 v -0.1 l 11.6,62.7 v -1883.4 l -16.5,74.2 c 137,-286.8 388.1,-527.4 674.1,-713.4 287.1,-187.4 610,-328.1 943.8,-431.7 334.4,-103.5 682,-168.3 1031.2,-195.7 349.1,-26.9 701.3,-16 1042.1,44.5 l 0.6,0.1 c 95.2,16.9 186,-46.6 202.9,-141.7 16.9,-95.2 -46.5,-186 -141.7,-202.9 h -0.1 c -375.4,-66.6 -755.7,-77.8 -1131,-48.9 -375.4,29.5 -746.9,98.7 -1107.1,210.2 -359.9,111.8 -710.4,263.2 -1032.7,473.4 -160.5,105.7 -314.5,225.3 -451.9,367.3 -137,141.7 -258.7,304.9 -347.2,490.5 -11.1,23.2 -16.4,47.8 -16.5,72 v 2.1 1883.4 5.3 c 0,20 4.3,39.8 11.6,57.3 v 0.2 c 84.8,218.5 225.8,428.8 426.9,574.3 199.2,146.7 447.5,221.3 690.3,218.4 243.2,-2.2 484.2,-76.4 685.8,-216.2 201.8,-138.3 361.1,-350.4 428.6,-590.9 l -123.2,120.7 h 0.1 c 358.2,-80.1 721.5,-138.1 1088.4,-179.6 366.8,-42.5 737.4,-64.6 1109.7,-76.7 93.1,-3.4 186.3,-5.2 279.6,-5.2 93.3,-1.3 186.7,-2.6 280.2,-1.3 93.5,0.1 187.1,1 280.7,3.5 93.7,1.6 187.5,2.5 281.2,6.4 375.1,11.2 751.1,29.5 1128.4,50 27.7,1.6 51.3,-19.6 52.9,-47.3 1.4,-24.9 -15.8,-46.7 -39.5,-51.8"
         style="fill:#000072;fill-opacity:1;fill-rule:nonzero;stroke:none"
         id="path156" /><path
         d="m 22943,13429.9 c -5,-106.5 -13.8,-205.9 -24.4,-308.1 -10.8,-101.4 -23.9,-202.5 -39.8,-303.2 -32.6,-201.1 -75,-401.9 -145.5,-595 -9.5,-26 -38.3,-39.4 -64.4,-29.9 -22.6,8.3 -35.7,31.2 -32.5,54.2 l 0.2,1.2 c 27.2,191.9 27.1,387.4 17.6,582 -5.2,97.4 -13.1,194.7 -23.1,291.6 -10.2,96.1 -22.4,195.1 -37.5,286.7 -15.9,95.9 48.9,186.5 144.8,202.4 95.9,15.9 186.5,-49 202.4,-144.8 2,-12.1 2.7,-25.3 2.2,-37.1"
         style="fill:#000072;fill-opacity:1;fill-rule:nonzero;stroke:none"
         id="path158" /><path
         d="m 21913.5,13269.7 c -67.2,46.6 -137.9,94.6 -219.3,117.7 -80,26.2 -167.2,41.6 -257.5,37.8 -90.2,-2.2 -183,-17.6 -274.1,-45 -90.3,-27.4 -182.7,-66.5 -263,-114.1 l -3.4,-2 c -23.8,-14.1 -54.4,-6.2 -68.5,17.6 -12.3,20.7 -7.8,46.7 9.3,62.3 80.9,74.2 166.9,133.2 261.9,185.7 94.7,51.5 197.4,92.4 307.2,118.4 109.4,27.5 227.3,33.7 344.7,21.1 119.3,-9.4 233,-51.3 343.2,-99.6 89.1,-39 129.8,-143 90.7,-232.1 -39,-89.3 -142.9,-129.9 -232.2,-90.9 -10.3,4.6 -19.9,9.9 -28.9,16.1 l -10.1,7"
         style="fill:#000072;fill-opacity:1;fill-rule:nonzero;stroke:none"
         id="path160" /><path
         d="m 20835.4,12775.2 c 197.2,62.1 413.6,89.6 621.2,50.9 103.4,-19.1 203,-55.1 292.6,-105 89.1,-51.7 166,-117.3 233.5,-188.4 19.1,-20.1 18.2,-51.8 -1.8,-70.9 -17.3,-16.4 -43.2,-18.1 -62.3,-5.4 l -2.4,1.6 c -74.2,49.3 -151.8,89.2 -232.5,114.4 -81.4,23.4 -164.3,33.1 -246,29.5 -81.8,-3.4 -162.5,-19.8 -240.3,-45.6 -78.1,-25.7 -152.3,-60.8 -224.7,-103 -84.2,-49 -192.1,-20.5 -241.1,63.6 -49.1,84.2 -20.6,192.1 63.6,241.2 11.3,6.5 23,11.7 34.9,15.5 l 5.3,1.6"
         style="fill:#000072;fill-opacity:1;fill-rule:nonzero;stroke:none"
         id="path162" /><path
         d="m 15818.9,10282.9 c 431.9,-134.1 887,-198.4 1343.2,-206 456.6,-6.7 915,45.2 1360.1,148.4 444.3,104.2 878.4,261 1269.3,484.6 194.8,112 378.3,241.2 538.5,390.2 161.5,147.7 292.2,320.8 378.1,506.7 l -14.8,-70.5 v 1883.4 l 21.9,-84.9 -0.1,0.2 c -96.1,169.6 -217.4,321.3 -369.3,419.8 -150.2,99.9 -327.7,147.6 -510,136.6 -181.9,-9.9 -365.6,-73.6 -528.7,-173.1 -163.3,-99.6 -307.6,-234.9 -415.3,-391.3 l -3.4,-5 c -22.2,-32.4 -54.6,-54 -89.8,-63.5 -594.1,-160.1 -1212,-204.3 -1813.9,-152.4 -603,51.2 -1190.1,194.4 -1752.3,392.8 -26,9.3 -39.7,37.8 -30.5,63.8 8.8,24.9 35.6,38.4 60.6,31.6 568.2,-156.8 1151.5,-255.2 1733.5,-263.5 581.3,-9.1 1159.8,75.2 1700.3,262.4 l -93.2,-68.4 c 137.8,199.7 316.1,366.5 521.8,492.3 205.3,125 441.7,209.9 692.4,223.8 124.9,6.7 252.8,-4.5 375.8,-37.9 123,-32.9 240.5,-86.6 345.5,-156.1 212.5,-138.9 366.5,-337 482.6,-542.1 l 0.1,-0.3 c 14.8,-25 21.9,-52.4 22,-79.6 v -5.2 -1883.4 -2.5 c 0,-24 -5.5,-47.4 -14.8,-67.9 -111.3,-242.8 -273.7,-450.6 -459.3,-621.3 -185.2,-172.2 -390,-315.5 -603.6,-438.4 -428.4,-244.6 -891.1,-410.5 -1363.7,-521.7 -473.1,-109.7 -958.5,-164.6 -1444.9,-157.6 -485.9,8.1 -973.8,76.4 -1442.9,222 -92.4,28.7 -143.9,126.7 -115.3,219.1 28.7,92.3 126.7,143.9 219,115.2 l 1.1,-0.3"
         style="fill:#000072;fill-opacity:1;fill-rule:nonzero;stroke:none"
         id="path164" /><path
         d="m 18939,13376 c -20.7,-67.8 -39.6,-148.6 -56.8,-224.8 -17.2,-77.5 -32.9,-155.9 -47.6,-234.6 -29,-157.7 -53.8,-317.1 -74.6,-477.5 -3.6,-27.6 -28.8,-47.1 -56.4,-43.6 -23.3,3 -40.7,21.4 -43.6,43.6 -20.9,162 -37.7,325 -50.1,489.4 -5.9,82.2 -10.9,164.7 -14.1,247.8 -2.8,84.3 -5.5,164.1 -2.3,255.6 v 1.5 c 3.3,97.5 85,173.8 182.5,170.5 97.4,-3.3 173.8,-85 170.5,-182.5 -0.5,-15.4 -3.3,-31.2 -7.5,-45.4"
         style="fill:#000072;fill-opacity:1;fill-rule:nonzero;stroke:none"
         id="path166" /><path
         d="m 20751.6,13119.9 c -77.6,81 -170.8,146.3 -277.5,186 -106.4,39.9 -225.5,53.9 -344.4,39.3 -118.8,-14.5 -237.1,-57 -339,-126.1 -101.6,-68.9 -187.1,-165.3 -232.6,-282.5 l -0.6,-1.3 c -10,-25.8 -39,-38.6 -64.8,-28.6 -23.4,9.1 -36,33.7 -30.8,57.4 31.9,146.2 116.3,278.9 226.3,381.1 110.4,102.7 246.7,178 394.8,220.1 148.1,42.2 309.4,50.1 466.4,18 157.2,-31.4 307.3,-103.8 435.6,-202.5 l 0.5,-0.4 c 76.8,-59.2 91.1,-169.4 31.9,-246.2 -59.1,-76.8 -169.3,-91.1 -246.1,-31.9 -6.9,5.2 -13.9,11.6 -19.7,17.6"
         style="fill:#000072;fill-opacity:1;fill-rule:nonzero;stroke:none"
         id="path168" /><path
         d="m 19854.8,12309.9 c 59.9,63.6 126.8,124 204.4,174.9 77.3,50.9 166.3,91.4 262.3,113.3 95.7,22.2 197.3,27.2 295.3,15.5 98.2,-11.5 192.9,-37.1 283.9,-69.6 l 0.8,-0.3 c 91.7,-32.7 139.6,-133.5 106.9,-225.3 -32.7,-91.8 -133.5,-139.7 -225.3,-107 -13.8,4.9 -27.3,11.9 -38.9,19.6 -60.4,40.4 -123.2,76.1 -189.2,101.8 -65.9,25.8 -134.7,40 -205.9,42 -71.1,2.1 -144.5,-10.1 -217,-35.2 -72.6,-25 -143.9,-62.1 -212.9,-106.3 l -0.6,-0.3 c -23.5,-15 -54.6,-8.1 -69.6,15.2 -12.7,19.9 -9.7,45.3 5.8,61.7"
         style="fill:#000072;fill-opacity:1;fill-rule:nonzero;stroke:none"
         id="path170" /><path
         d="m 11955.7,12757.8 c -296.9,0 -616.4,60.9 -951.6,184.8 -90.7,33.5 -137,134.2 -103.5,224.8 33.5,90.7 134.4,136.9 224.8,103.5 932.4,-344.5 1684.2,-140 2117.2,575.7 710.4,1174.3 328.3,3478.4 -1527.8,5153.4 -119.8,108.2 -257.7,216.6 -434,341.3 -1341.09,948.1 -1716.48,2314.9 -2100.42,4142.4 -117.28,558.2 -357.37,942.9 -713.62,1143.2 -557.38,313.2 -1233.64,80.5 -1240.43,78.1 -91.12,-32 -191.02,15.5 -223.34,106.3 -32.33,90.9 14.84,190.8 105.66,223.4 33.5,12 828.47,289.3 1526.56,-101.1 449.76,-251.5 748.44,-715.1 887.65,-1377.9 379.05,-1804.1 720.24,-3052.2 1960.04,-3928.6 187.9,-132.9 336.1,-249.6 466.4,-367.2 2015.3,-1818.6 2392.4,-4272.6 1592.8,-5594.5 -361.5,-597.6 -916.7,-907.6 -1586.4,-907.6"
         style="fill:#000072;fill-opacity:1;fill-rule:nonzero;stroke:none"
         id="path172" /><path
         d="m 20528.1,13663.2 c -71,0 -137.9,43.6 -164,114.1 l -375.6,1012.2 c -33.7,90.6 12.5,191.3 103.2,224.9 90.4,33.7 191.3,-12.5 224.9,-103.2 l 375.6,-1012.1 c 33.6,-90.6 -12.6,-191.3 -103.2,-224.9 -20,-7.5 -40.6,-11 -60.9,-11"
         style="fill:#000072;fill-opacity:1;fill-rule:nonzero;stroke:none"
         id="path174" /><path
         d="m 21260.4,8759 c -1.1,0 -2.1,0 -3.2,0 -96.6,1.7 -173.5,81.4 -171.8,178.1 24.6,1406.1 -206.1,2257.8 -208.4,2266.2 -25.8,93.2 28.9,189.6 122,215.3 93.3,26 189.6,-28.9 215.3,-122 10.1,-36.5 246.5,-909.4 221,-2365.7 -1.7,-95.5 -79.7,-171.9 -174.9,-171.9"
         style="fill:#000072;fill-opacity:1;fill-rule:nonzero;stroke:none"
         id="path176" /><path
         d="m 33522.1,20442 c -45.8,0 -91.8,15.7 -129.4,47.7 -84.2,71.5 -94.4,197.8 -22.8,281.9 1156.5,1360.2 1600.1,2253.2 1396,2810.4 -169.3,462.5 -841.7,785 -2055.5,986 -109,18.1 -182.8,121 -164.7,230 18,108.9 121.2,182.4 230,164.6 1406.7,-232.9 2136.3,-616.3 2365.9,-1243.1 265.8,-725.9 -172.9,-1685 -1467,-3207 -39.6,-46.5 -95.8,-70.5 -152.5,-70.5"
         style="fill:#000072;fill-opacity:1;fill-rule:nonzero;stroke:none"
         id="path178" /><path
         d="m 33550.3,21803 c -34.6,0 -69.2,11.9 -97.5,36.1 -62.9,53.9 -70.3,148.6 -16.4,211.5 229.9,268.4 768.3,896.9 671,1119.7 -39.6,90.7 -225.7,204.4 -887,230.2 -82.7,3.3 -147.2,73 -144,155.8 3.2,82.8 73.4,147.1 155.7,144 692.6,-27.1 1036.6,-149.7 1150.3,-410 145,-332.1 -140.5,-760.5 -718.1,-1434.8 -29.7,-34.7 -71.7,-52.5 -114,-52.5"
         style="fill:#000072;fill-opacity:1;fill-rule:nonzero;stroke:none"
         id="path180" /><path
         d="m 23899.4,27959.7 c -37.6,0 -75.7,10.6 -109.5,32.8 -92.4,60.7 -118.1,184.6 -57.5,277 814.5,1240.6 1313.9,1836.9 1948.9,1870.8 552.8,30.2 1115.1,-379.9 2002.5,-1460.3 70.1,-85.4 57.8,-211.4 -27.6,-281.5 -85.3,-70 -211.4,-57.8 -281.5,27.6 -774.3,942.8 -1275.3,1336.3 -1672.1,1314.8 -457.9,-24.4 -928.1,-613.2 -1635.8,-1690.9 -38.4,-58.5 -102.2,-90.3 -167.4,-90.3"
         style="fill:#000072;fill-opacity:1;fill-rule:nonzero;stroke:none"
         id="path182" /><path
         d="m 25000.2,28276.9 c -31.7,0 -63.7,10 -90.9,30.7 -65.8,50.2 -78.6,144.3 -28.3,210.2 34,44.6 66.1,87.2 96.7,127.8 265.9,352.3 426.3,565 671.4,580.7 240.5,15.5 474.9,-176.4 825.5,-535.4 57.8,-59.3 56.7,-154.2 -2.6,-212.1 -59.1,-57.9 -154.1,-56.9 -212.1,2.5 -219.7,225 -461.7,453.6 -591.7,445.6 -107.6,-6.9 -251.7,-197.8 -451,-462 -30.9,-40.9 -63.3,-83.9 -97.7,-129 -29.5,-38.7 -74.1,-59 -119.3,-59"
         style="fill:#000072;fill-opacity:1;fill-rule:nonzero;stroke:none"
         id="path184" /><path
         d="m 18747.5,27369 c -109.6,-28.6 -216.8,-48.9 -319.8,-78.5 -102.7,-28.5 -201.9,-59.1 -293.9,-96.8 -185.5,-73.7 -335.8,-177.3 -425.3,-308.2 -89.1,-130.5 -126.5,-300.7 -116.6,-495.4 8.2,-194.3 58.5,-400.9 114.5,-617.3 l 0.6,-2.6 c 14.2,-54.7 -18.8,-110.6 -73.4,-124.7 -39.1,-10.1 -78.7,3.8 -103.4,32.4 -156.2,182.1 -276.1,402.4 -332.1,657.2 -27.4,127.2 -37.2,263.9 -16.4,403.7 21,139.2 72.4,280.7 156.1,401.3 83.9,120.4 194.3,218.2 312.8,288.2 118.6,70.7 244.5,115.5 368.8,143.3 249.8,54.1 495.3,47.1 728.1,-2.6 55.1,-11.8 90.4,-66.1 78.5,-121.3 -8.3,-39 -37.8,-68 -73.9,-77.5 l -4.6,-1.2"
         style="fill:#000072;fill-opacity:1;fill-rule:nonzero;stroke:none"
         id="path186" /><path
         d="m 13661.3,21650.2 c -158.4,276.7 -267.5,599 -260,948.9 4.3,173.7 38.7,353.3 113.5,520.7 74.7,167.1 189.1,318.8 328,438.6 33.2,32 72.1,56.2 108.4,84 37.4,25.9 76.6,48.5 115.3,72.1 79.7,42 161.7,78.6 245.7,106 168.3,54.4 341.6,79.9 511.6,79.6 340.3,-0.3 666.9,-93.6 946.3,-253.5 48.5,-27.8 65.4,-89.6 37.6,-138.2 -21.9,-38.1 -64.6,-56.6 -105.5,-49.5 l -2.3,0.5 c -294.1,52.3 -581.5,76.9 -853.7,42.8 -270.4,-34 -525.1,-124.1 -710.9,-285.2 -93.3,-79.6 -169.8,-175.2 -227.7,-284.2 -56.6,-109.7 -94.2,-232.9 -113.4,-364.2 -19.5,-131.2 -22,-270.1 -10.4,-412 10.8,-142.3 37.4,-285.9 64.1,-434.1 l 0.7,-4.1 c 9.9,-55 -26.7,-107.6 -81.6,-117.4 -43.2,-7.8 -85,13.3 -105.7,49.2"
         style="fill:#000072;fill-opacity:1;fill-rule:nonzero;stroke:none"
         id="path188" /><path
         d="m 23540,25388.2 c 229.6,63.6 472.6,72.2 717.8,24.3 30.7,-4.8 61.1,-13 91.5,-22.3 30.5,-8.5 60.7,-18.5 91.1,-28 60.9,-19.4 119.2,-50.4 178.5,-77.3 29.1,-15.2 56.9,-33.8 84.8,-51.7 27.5,-18.7 56.8,-34.9 82.6,-56.3 26.1,-21.3 51.4,-43.6 76.6,-66.1 l 37.7,-33.7 c 12.1,-11.8 22.7,-25 34.1,-37.6 44.6,-51.1 89,-102.6 122.5,-161 18,-28.5 34.7,-57.7 51.8,-86.5 14.1,-30.1 27.2,-60.5 40.2,-90.9 11.9,-30.7 26.3,-60.9 35.5,-92 8.9,-31.1 17.4,-62.4 24.9,-93.8 6.9,-31.4 17.5,-62.3 20.8,-93.7 l 10.7,-94 c 22.7,-250 -15.2,-491.5 -106.3,-712.2 -11.1,-26.8 -41.7,-39.5 -68.5,-28.5 -15.8,6.5 -26.6,19.8 -30.6,35.2 l -0.5,1.9 c -58,226.2 -98.2,437.4 -164.1,627.8 -64.8,190.5 -151.4,353.2 -268.9,485.5 -116.3,133.7 -273.2,236.3 -457,320.8 -183.3,86.8 -390,150.3 -608.2,230.1 l -1,0.4 c -27.2,9.9 -41.1,40 -31.2,67.1 6,16.4 19.6,28 35.2,32.5"
         style="fill:#000072;fill-opacity:1;fill-rule:nonzero;stroke:none"
         id="path190" /><path
         d="m 28946.7,20952.8 c 293.9,99.3 601.2,153.6 921.6,150.6 160,-2.8 323.8,-19.8 488.4,-65.4 164,-45.7 330.5,-122 476,-241.8 143,-122.1 257,-289.5 310.3,-466.3 54.4,-176.7 63.9,-354.2 46.3,-519.8 -36.4,-332.2 -157.5,-627.1 -323.8,-890.1 -15.1,-24 -46.8,-31.1 -70.8,-16 -16.5,10.4 -25,28.7 -23.8,46.9 l 0.2,1.8 c 10.6,153.3 29.7,300.5 38.2,445.7 9,144.7 13.5,286.2 3.5,420.2 -10.4,133.8 -33.6,259.4 -78.1,366.6 -10.4,27.1 -24.1,51.6 -36,77.2 -15.7,22.9 -27.2,48.5 -45.2,69.2 -29.3,46.4 -70.7,83.1 -111,121.3 -86.2,71.9 -194.3,129.5 -315.7,175.1 -121.7,45 -255.6,77.8 -394.1,104.2 -277.9,54.1 -573.1,77.3 -876.1,121.1 l -0.8,0.1 c -28.1,4 -47.5,30 -43.4,58.1 2.8,19.7 16.6,35.2 34.3,41.3"
         style="fill:#000072;fill-opacity:1;fill-rule:nonzero;stroke:none"
         id="path192" /><path
         d="m 19567.5,23759.2 c -18.1,765.9 1107.8,1478.8 1924.4,1390.8 192.7,-20.8 343.6,-178.3 349.4,-372 9.7,-322.5 -26.3,-613.7 -128,-860.1 -128.4,-310.9 -410.4,-525.7 -740,-592.8 -355.2,-72.4 -730.1,-40.8 -1119.6,67.8 -165.4,46.2 -282.1,194.6 -286.2,366.3"
         style="fill:#000072;fill-opacity:1;fill-rule:nonzero;stroke:none"
         id="path194" /><path
         d="m 21373.3,24708.1 c 93,-157.6 -109.7,-340.7 -394.1,-508.6 -284.3,-167.9 -542.6,-257 -635.6,-99.5 -93,157.5 107.2,345 391.5,512.9 284.3,167.9 545.2,252.7 638.2,95.2"
         style="fill:#ffffff;fill-opacity:1;fill-rule:nonzero;stroke:none"
         id="path196" /><path
         d="m 21483.1,23763.7 180.5,-506.3 90.3,-253.1 c 13.7,-39 33.2,-91.2 45.8,-142.5 13.9,-51.1 22.6,-103.4 29.5,-155.9 24.3,-210.5 -11.7,-428.4 -106.1,-620.3 -23.1,-47.5 -51.4,-95.4 -79.8,-137.2 -27.4,-40.5 -55.9,-80.2 -85.4,-119 -59.3,-77.4 -123.8,-150.3 -191.2,-219.6 -67.6,-69.2 -139.2,-133.7 -213.2,-194.5 -76.4,-60.7 -146,-115.3 -239.4,-171.1 -90.3,-52.4 -186.5,-94.4 -286.7,-123.4 -100.3,-28.7 -204.1,-42.9 -307.9,-46.9 -207.4,-4.4 -417,45.9 -591.7,152.6 -21.5,13.8 -43.2,27.1 -64.1,41.3 l -60.3,46 c -38.1,32.7 -75,68.1 -107.7,103.4 -64.1,73.3 -120.1,151.7 -161.8,237.2 -12.4,25.6 -1.8,56.4 23.8,68.8 17.6,8.6 37.7,6.2 52.6,-4.5 l 0.7,-0.5 c 72.6,-52.4 142.6,-102.4 216,-144.1 17.9,-11.3 36.3,-20.3 54.4,-29.4 18.3,-8.7 35.1,-19.5 54.3,-26.2 l 54.3,-23.9 55.9,-19.3 c 148.9,-48.4 302.6,-62.6 452.7,-47.9 75.2,8.3 148.4,26.3 220,48.3 70.9,24.5 138.7,56.6 203.7,93.4 60,37 135,88.8 199.2,139.1 66.4,50.5 130.2,103.8 189.9,160.6 59.9,56.8 116.3,116.6 167.6,180.2 25.6,31.7 50.6,64 73.5,97.7 22.1,32.1 39.6,61.3 56.3,94.2 64.9,129.5 89.2,279.2 72.7,424.8 -5,36.2 -10.7,72.5 -20.6,107.8 -8.6,35.8 -20.7,67.8 -36.7,113.2 l -90.2,253.1 -180.5,506.3 c -32.5,91.1 15,191.2 106,223.6 91,32.5 191.2,-15 223.6,-106"
         style="fill:#000072;fill-opacity:1;fill-rule:nonzero;stroke:none"
         id="path198" /><path
         d="m 21758.3,22841.6 c 133.6,-87.9 287,-142.5 440.2,-150.3 76.3,-4 152.7,3.2 222.3,25.8 69.6,22.7 130.9,58.5 185.3,98.6 54.3,40.5 104.4,86.5 142.8,145.7 37.7,59 66.7,128.6 81.9,206.1 16.5,77.4 19.8,161.7 15.2,248.8 -6.1,87.3 -22,176.3 -40,268.1 l -0.4,2 c -5.3,27.6 12.6,54.3 40.2,59.7 20.4,3.9 40.2,-4.8 51.4,-20.7 112.9,-160.5 197.7,-354.2 206.2,-575.8 3.3,-109.9 -13.4,-226.4 -59.4,-335.8 -44,-110 -117.7,-211.7 -211.7,-286.7 -93.6,-75.7 -204.4,-124 -315.5,-152.5 -111.7,-27.9 -224.9,-38.6 -336.2,-32.9 -223,11.6 -435.3,89.4 -615.5,208 -80.7,53.1 -103,161.7 -49.9,242.4 53.2,80.7 161.7,103.1 242.4,49.9 l 0.7,-0.4"
         style="fill:#000072;fill-opacity:1;fill-rule:nonzero;stroke:none"
         id="path200" /><path
         d="m 20671.5,19542.3 c 59.9,-720.4 72.9,-1483.7 40,-2302 -11.9,-295.9 106.3,-580.8 324.4,-781.6 210,-193.2 478,-281.1 755.5,-246.5 318.1,39.2 580.6,226.6 720.1,514 157.9,325.3 299.3,1075.4 -528.9,2444.6 -3,4.8 -5.7,9.9 -8.1,15 -97.3,203.4 -259.9,388.5 -730.3,219.2 -54.1,-19.5 -114.5,-11.1 -161.3,22.5 -2.4,1.7 -250.7,169.4 -411.4,114.8 z m 1006.4,-3687.1 c -322.1,0 -635.7,122 -879,346 -293.9,270.5 -453.2,654.4 -437.1,1053.2 33.6,836.5 18.4,1613.6 -46.5,2344.7 -1.9,10.3 -2.8,20.9 -2.8,31.4 -50.1,551.6 -128.7,1076.9 -236.2,1581.9 -20,94.5 40.3,187.5 134.8,207.6 94.5,19.8 187.5,-40.3 207.6,-134.8 95.1,-446.8 168.1,-908.7 219.3,-1389.7 203.8,35.5 420.2,-44 571.5,-133.3 624.8,190.6 929.7,-115.3 1076.9,-417.4 673.7,-1116.8 865.6,-2100.9 540,-2771.5 -192.4,-396.2 -554,-654.4 -992.1,-708.5 -52.2,-6.5 -104.4,-9.6 -156.4,-9.6"
         style="fill:#000072;fill-opacity:1;fill-rule:nonzero;stroke:none"
         id="path202" /><path
         d="m 22132.3,19086.3 c -96.4,0 -174.6,78 -175,174.4 -4.2,1138.9 -8.3,2214.7 694.8,3573.9 44.4,85.8 150,119.5 235.8,75 85.8,-44.4 119.4,-149.9 75,-235.8 -663.5,-1283 -659.9,-2269.5 -655.6,-3411.8 0.4,-96.7 -77.7,-175.3 -174.3,-175.7 h -0.7"
         style="fill:#000072;fill-opacity:1;fill-rule:nonzero;stroke:none"
         id="path204" /><path
         d="m 21330.8,19666.4 c 33.3,-61.4 57.2,-114.4 82.8,-171.6 24.6,-56.4 47.7,-113.1 69.4,-170 43.4,-114 80.9,-229.4 112.4,-346.3 32.1,-116.5 58.3,-234.5 77.4,-353.3 21,-118.3 31,-238.3 38.5,-357.3 1.7,-27.6 -19.2,-51.3 -46.8,-53.1 -24.6,-1.6 -46.2,14.9 -51.8,38 l -0.5,1.9 c -27.6,112.1 -57.2,222.8 -96.9,330.3 -37.7,107.9 -81.9,213.2 -131,315.8 -48.6,102.7 -102.3,202.8 -160.4,299.3 -29.1,48.3 -59.2,95.8 -90.2,142.2 -30.7,45.2 -64.7,93.7 -94.6,130.6 -61.1,75.5 -49.4,186.2 26.1,247.3 75.4,61 186.1,49.4 247.2,-26.1 6.7,-8.3 12.5,-17 17.5,-25.9 l 0.9,-1.8"
         style="fill:#000072;fill-opacity:1;fill-rule:nonzero;stroke:none"
         id="path206" /><path
         d="m 25972.7,22562.3 c 436.1,33.2 1255.3,-688 1277.1,-1124.5 5.2,-104.1 -83.6,-189.2 -187.8,-189.2 l -686,0.1 c -240.8,0.1 -444.3,178.4 -476,417.1 l -91.1,685.4 c -13.7,103.7 59.4,203.2 163.8,211.1"
         style="fill:#000072;fill-opacity:1;fill-rule:nonzero;stroke:none"
         id="path208" /><path
         d="m 26756.6,21736.1 c -40,-47.1 -182.5,8.4 -318.3,123.8 -135.7,115.5 -213.3,247.2 -173.3,294.3 40,47 162.1,-32.4 297.9,-147.8 135.7,-115.5 233.7,-223.3 193.7,-270.3"
         style="fill:#ffffff;fill-opacity:1;fill-rule:nonzero;stroke:none"
         id="path210" /><path
         d="m 26222.9,21320.3 -200.9,-257.4 -100.5,-128.7 c -17.6,-22.1 -30.4,-40.5 -55.9,-68.9 -22.6,-26.4 -45.6,-52.4 -72.3,-74.9 -103,-93.4 -230,-160.6 -365.4,-190.5 -135.4,-30 -278.3,-25.1 -413.2,15.2 -134.3,39.8 -263.4,116.2 -356.1,225 -94.1,106.2 -145.9,247 -155.7,385.9 -10.5,139.2 23.3,275.1 83.3,385.9 60.5,111.5 141.8,202.8 235.2,272.4 22.8,17 55.1,12.3 72.1,-10.5 11.6,-15.6 13,-35.7 5.5,-52.2 l -0.5,-1 c -45.1,-98 -79.8,-194.6 -94.2,-287.7 -16.3,-92.6 -9.5,-180.5 14.9,-256 10.9,-38.4 29.5,-73.1 49.8,-105.7 20.3,-32.1 42.7,-64.3 68.5,-91.5 48.7,-55.9 106.9,-106.7 181.5,-129.6 73.4,-23 154.7,-25.3 231.9,-8.7 77.4,16.9 148.9,55.6 206.9,108 49.2,43.2 122.4,147 188.3,228.9 l 200.9,257.4 c 59.5,76.2 169.5,89.7 245.6,30.3 76.2,-59.5 89.8,-169.5 30.3,-245.7"
         style="fill:#000072;fill-opacity:1;fill-rule:nonzero;stroke:none"
         id="path212" /><path
         d="m 26074.7,21131.2 c -41.7,-44.6 -65,-76.1 -92.6,-111.3 l -34.4,-56.2 c -10.6,-19.2 -18.2,-39.8 -28,-59.5 -33.4,-81.1 -50.4,-169.1 -49.4,-257.4 0.4,-176.5 77.8,-353.4 212.3,-459.3 66.9,-52.4 145.3,-91.5 227.6,-113.3 81.4,-23 163.5,-32.5 248.9,-26.6 85.3,6.3 172.8,31.6 262.7,71.3 89.8,40.4 177.7,98.9 270.6,164 l 1.2,0.8 c 23.5,16.6 56.1,10.9 72.7,-12.8 10,-14.4 11.7,-32.4 6.3,-47.8 -41.5,-113.7 -108.9,-220.4 -201.5,-310.5 -91.8,-90.6 -211.2,-163.3 -345.9,-200.3 -67.4,-18.4 -137.8,-26.9 -208.3,-27.5 -70.2,2.1 -141,9.6 -207.7,30 -134.4,36 -256,110.2 -359.2,202 -102.6,92.9 -186.3,205.4 -242.9,329.8 -57.4,124.2 -84.8,260.1 -86.8,395.4 -1.6,135.5 24.4,271.4 76.5,397.2 14.4,30.8 27.3,62.5 43.7,92.2 l 53.4,87.1 c 39.9,54 86.2,110.5 121.2,147.4 l 4.8,5.1 c 66.4,70.3 177.2,73.3 247.3,6.9 70.3,-66.4 73.9,-176.5 7.5,-246.7"
         style="fill:#000072;fill-opacity:1;fill-rule:nonzero;stroke:none"
         id="path214" /><path
         d="m 24986.9,18642.9 c -220.1,0 -435.4,76 -608.6,220.5 -245.8,205.2 -370.6,518.8 -333.8,839 33.7,293.1 142.8,584.7 258.3,893.4 75.5,201.6 153.6,410.1 208,617.4 24.5,93.5 120.3,149.5 213.6,124.9 93.5,-24.5 149.4,-120.2 124.9,-213.6 -58.9,-224.6 -140.1,-441.6 -218.7,-651.5 -107.8,-288 -209.6,-560.1 -238.4,-810.5 -23.6,-205.8 53,-399.1 210.3,-530.4 158.3,-132 363.3,-173.1 563.1,-112.6 403.1,122.2 828.4,489.3 1385.1,994.8 71.5,64.9 182.2,59.6 247.2,-12 65,-71.5 59.6,-182.2 -12,-247.2 -590.9,-536.4 -1045.7,-927.2 -1518.8,-1070.5 -92.3,-28 -186.7,-41.7 -280.2,-41.7"
         style="fill:#000072;fill-opacity:1;fill-rule:nonzero;stroke:none"
         id="path216" /><path
         d="m 25501.3,18821.4 c -7.2,0 -14.5,0.5 -21.8,1.5 -82,12 -138.7,88.1 -126.8,170.1 38.7,265.5 -55.4,514 -258.1,681.9 -213.2,176.6 -503.3,226 -776.2,132 -78.4,-27.1 -163.7,14.7 -190.7,93 -27,78.3 14.6,163.7 93,190.6 372.5,128.5 770.8,59.4 1065.3,-184.5 281,-232.8 416.9,-590.2 363.6,-956.2 -10.9,-74.7 -75,-128.4 -148.3,-128.4"
         style="fill:#000072;fill-opacity:1;fill-rule:nonzero;stroke:none"
         id="path218" /><path
         d="m 20628.5,13709.8 -6,-73.5 c 0,0 -574,676 -1536.5,110.5 45.5,36 93.5,69.5 143,99.5 181.5,110.5 387.5,183 599,195 211,13 425,-44 600.5,-161.5 73.5,-48 140,-106 200,-170"
         style="fill:#000072;fill-opacity:1;fill-rule:nonzero;stroke:none"
         id="path220" /><path
         d="m 27150,13312.3 c -79.5,-11 -159,-22 -239,-32 75.5,14.5 152,30.5 228.5,47.5 0,0 4,-5.5 10.5,-15.5"
         style="fill:#807bb7;fill-opacity:1;fill-rule:nonzero;stroke:none"
         id="path222" /><g
         id="g224"><g
           id="g226"
           clip-path="url(#clipPath230)"><path
             d="m 21325.2,9429.2 h 2436.2 v 1305.4 h -2436.2 z"
             style="fill:#6962b1;fill-opacity:1;fill-rule:nonzero;stroke:none"
             id="path232" /></g></g><path
         d="m 22655.5,9312.3 c -71,38.3 -139.9,77.4 -206.7,116.9 437.4,138.5 875,299.9 1312.6,484.2 89.8,-5 179.8,-7.6 269.9,-7.6 52.2,0 104.5,0.9 156.7,2.7 -510.8,-229.3 -1021.7,-428.5 -1532.5,-596.2"
         style="fill:#000072;fill-opacity:1;fill-rule:nonzero;stroke:none"
         id="path234" /><path
         d="m 24031.3,9905.8 c -90.1,0 -180.1,2.6 -269.9,7.6 -37.6,2 -75.1,4.5 -112.7,7.4 -375.4,29.5 -746.9,98.7 -1107.1,210.2 -359.9,111.8 -710.4,263.2 -1032.7,473.4 -62.4,41.1 -123.8,84.3 -183.7,130.2 -25.5,167.3 -50.9,299.5 -71,393.5 487.8,-685.5 1513.9,-947.4 2283.3,-1046.3 3.5,0 6.5,-0.5 9.5,-1 414.5,-52.5 753,-58 890.5,-58 -83.2,-38.9 -166.3,-77 -249.5,-114.3 -52.2,-1.8 -104.5,-2.7 -156.7,-2.7"
         style="fill:#000072;fill-opacity:1;fill-rule:nonzero;stroke:none"
         id="path236" /><path
         d="m 21388.6,10215.6 c -80.4,73.7 -137.4,130.4 -168.6,162.2 -18.5,19 -28,29 -28,29 l 8,133 28.5,473.5 8.5,139.5 c 5.6,-8.2 11.4,-16.5 17.2,-24.7 20.1,-94 45.5,-226.2 71,-393.5 22.3,-146.6 44.6,-320.2 63.4,-519"
         style="fill:#000072;fill-opacity:1;fill-rule:nonzero;stroke:none"
         id="path238" /></g></g></svg>
