<?xml version="1.0" encoding="UTF-8" standalone="no"?>
<!-- Created with Inkscape (http://www.inkscape.org/) -->

<svg
   version="1.1"
   id="svg2"
   xml:space="preserve"
   width="5333.3335"
   height="5333.3335"
   viewBox="0 0 5333.3335 5333.3335"
   sodipodi:docname="3500_2_13.eps"
   xmlns:inkscape="http://www.inkscape.org/namespaces/inkscape"
   xmlns:sodipodi="http://sodipodi.sourceforge.net/DTD/sodipodi-0.dtd"
   xmlns="http://www.w3.org/2000/svg"
   xmlns:svg="http://www.w3.org/2000/svg"><defs
     id="defs6"><clipPath
       clipPathUnits="userSpaceOnUse"
       id="clipPath160"><path
         d="m 18380.3,6640.8 c -345.3,41.4 -687,96.3 -1025.1,164.5 -21.2,184.5 -62.6,479.4 -138,813.3 -65.3,287.7 -155.9,604.4 -280.7,904 -0.1,0.3 -0.2,0.7 -0.4,0.9 0,0.1 -0.1,0.3 -0.1,0.4 -31.5,75.4 -65.1,149.8 -101,222.3 247.8,-202.7 573.2,-309.9 896.3,-309.9 223.5,0 445.9,51.4 640.6,157.8 107,-565.1 134.5,-1219.9 8.4,-1953.3 m -4290.6,1291.8 c -282.2,141.9 -558.8,293.9 -829.8,455.8 9.9,91.2 14.7,184 14.7,277.4 0,0.7 0,1.5 0,2.2 0,0 0,0 0,0.1 -0.3,972.7 -515.6,2014.9 -1127.8,2106.6 -35.1,5.3 -69.8,9.4 -103.9,12.5 -51.8,4.7 -102.3,6.9 -151.6,6.9 -555.7,0 -947.9,-279.9 -1139,-455.2 -554.2,551.6 -1062.46,1156.5 -1517.02,1809.9 56.58,80 112.13,159.8 166.62,239.3 357.29,-502.9 875.3,-894.8 1464.9,-1082.4 571.6,-181.6 1214.7,-190.3 1707,-532.9 501.1,-348.4 749.4,-981.8 1257.7,-1320.5 189.7,-126.2 396.8,-201.3 614.4,-242.8 -238.1,-349.5 -351.8,-819.2 -356.2,-1276.9"
         id="path158" /></clipPath></defs><sodipodi:namedview
     id="namedview4"
     borderopacity="1.0"
     inkscape:pageshadow="2"
     inkscape:pageopacity="0.0"
     inkscape:pagecheckerboard="0" /><g
     id="g8"
     inkscape:groupmode="layer"
     inkscape:label="ink_ext_XXXXXX"
     transform="matrix(1.3333333,0,0,-1.3333333,0,5333.3333)"><g
       id="g10"
       transform="scale(0.1)"><path
         d="M 0,0 H 40000 V 40000 H 0 Z"
         style="fill:#ffffff;fill-opacity:0;fill-rule:nonzero;stroke:none"
         id="path12" /><path
         d="m 33189,19546.1 c 0,-2267.1 -569.7,-4400.8 -1574.2,-6266.3 C 29689.8,9703.3 26168,7114 22003.5,6465.6 h -0.5 c -669.2,-104.4 -1354.8,-158.5 -2053,-158.5 -477.4,0 -949,25.1 -1412.8,74.9 -3964,420.3 -7405.6,2589.8 -9537.88,5722.2 C 7555.11,14225.4 6711,16787.1 6711,19546.1 c 0,7311.9 5927.1,13239 13239,13239 7311.9,0 13239,-5927.1 13239,-13239"
         style="fill:#02daff;fill-opacity:1;fill-rule:nonzero;stroke:none"
         id="path14" /><path
         d="m 32105.7,14339.6 c -513.6,-1141.3 -1393.5,-2505.8 -1946.2,-3174.5 -1264,-1529.7 -2864.8,-2771 -4689.7,-3609.3 -28,-13.5 -56.1,-26.1 -84.1,-38.6 -8.7,-3.9 -16.9,-7.8 -25.6,-11.2 -839.3,-376.8 -1724.4,-668.7 -2645.9,-863.9 -61.8,-13.5 -124.6,-26.1 -186.9,-38.6 -71.6,-14 -142.6,-27.6 -214.6,-40.6 -101.9,-18.4 -204.8,-35.3 -307.8,-51.7 h -0.4 c -43,2.4 -2086.4,119.3 -2947.4,1314.7 -188.9,262.8 -339.7,687.6 -421.3,1218.1 -251.3,1630.7 145.9,4258.7 2057.8,6240.2 326.1,338.2 696.7,657.1 1115.7,949.4 l 6474,1113.3 c 0,0 581.3,-26.1 1301.7,-433.9 870.7,-492.4 1634.1,-810.3 2520.7,-2573.4"
         style="fill:#ff9331;fill-opacity:1;fill-rule:nonzero;stroke:none"
         id="path16" /><path
         d="m 18762.1,9895.7 c -4.1,325.2 15.5,677.6 65.6,1050.1 206.7,1536 875.9,2978.8 1890,4082 122.5,-84.6 254,-164.5 393,-239.4 -87.6,-82.3 -172.3,-166 -254.2,-251 -1367,-1416.8 -1959.7,-3164.5 -2094.4,-4641.7 m 13117.5,4394.8 c -727.7,1164.4 -1390.6,1456.9 -2131.7,1876.2 -100.4,56.8 -198.1,106.1 -291.9,149.1 87.1,109.1 168.6,221.4 244.6,337.3 642.3,-300.9 1477.9,-945.9 2193.8,-2325.2 -4.8,-12.5 -9.7,-24.9 -14.8,-37.4"
         style="fill:#ffd4ad;fill-opacity:1;fill-rule:nonzero;stroke:none"
         id="path18" /><path
         d="M 30159.5,11165.1 C 28252.9,8857 25578.5,7206 22527.3,6603.5 c -243.6,623.8 -378.9,1316.1 -378.9,2045.2 0,2748.8 1925.5,4976.7 4300.3,4976.7 1581.4,0 2963.8,-988 3710.8,-2460.3"
         style="fill:#f2d4d4;fill-opacity:1;fill-rule:nonzero;stroke:none"
         id="path20" /><path
         d="m 21884.8,16050.5 c -382.3,-269.9 -736,-572.7 -1052.1,-900.5 -1078.5,-1117.8 -1790.6,-2610.8 -2005,-4204.2 -192.4,-1430.2 65.3,-2561.3 386.2,-3007 766.1,-1063.5 2561.6,-1218.3 2781.8,-1233.4 173.6,27.5 335.4,56.2 494,87.6 2934,579.4 5604.9,2175.8 7520.8,4495.2 543,657 1499.7,2056.3 1883.9,3039.7 -802,1545.3 -1754.3,2168.9 -2416.7,2419.6 -631.5,239.1 -1074.2,366.2 -1203.5,401.7 l -6389.4,-1098.7 m 120.1,-9732.6 c -3.6,0 -7.7,0.1 -11.3,0.3 -88.9,5 -2187.3,136.9 -3093.3,1394.7 -452.4,628.2 -635.5,1948.2 -455.7,3284.5 225.4,1674.3 974.7,3244.4 2109.9,4421 343,355.7 728,683.3 1144.1,973.7 23.3,16.3 49.9,27.2 77.9,32 l 6474.1,1113.2 c 26.8,4.7 54.4,3.6 80.8,-3.2 20.4,-5.3 508.1,-131.6 1283.1,-425.1 737.2,-279 1797.6,-970.9 2663.5,-2682.1 24.2,-47.9 27.5,-103.6 9,-153.9 -381.9,-1039.7 -1386.9,-2515.3 -1978.6,-3231 C 28336,8654.1 25585.8,7010.4 22564.7,6413.9 c -169.8,-33.7 -343.2,-64.3 -529.8,-93.7 -9.9,-1.5 -19.9,-2.3 -30,-2.3"
         style="fill:#000072;fill-opacity:1;fill-rule:nonzero;stroke:none"
         id="path22" /><path
         d="M 29546.1,16701 C 28711,15458.1 26658.9,14278.3 24516,14277.7 c -1493.5,-0.3 -2824.8,233 -3822.3,1006.4 326.1,338.3 696.6,657.3 1115.5,949.7 l 6474.2,1112.9 c 0,0 582.3,-175.3 1262.7,-645.7"
         style="fill:#42f4d2;fill-opacity:1;fill-rule:nonzero;stroke:none"
         id="path24" /><path
         d="m 20991.7,15309.6 c 769.1,-506.6 2091.8,-938.4 3510.8,-839.1 2203,154.2 3962.6,1017.9 4864.6,2379 -518.2,300.4 -990.9,305.6 -1064.3,304.4 l -6418.1,-1103.2 c -319.4,-225.7 -618.8,-474.3 -893,-741.1 m 3118.8,-1239.1 c -1303,0 -2680.2,406.1 -3534.3,1060.1 -43.7,33.5 -71,84.1 -75.2,139 -4.1,54.9 15.4,109 53.6,148.6 342.9,355.8 727.7,683.5 1143.9,974.1 23.3,16.2 49.9,27.2 77.9,32 l 6474.3,1112.9 c 7.6,1.3 15.4,2.1 23.1,2.5 30.1,1.5 743.2,30.7 1469.3,-471.2 83.7,-57.9 108.2,-170.8 56,-258.1 -933.4,-1563 -2854.1,-2556.4 -5269.6,-2725.5 -138.2,-9.6 -278.3,-14.4 -419,-14.4"
         style="fill:#000072;fill-opacity:1;fill-rule:nonzero;stroke:none"
         id="path26" /><path
         d="m 26255.4,13770.4 c 0,-480.3 -389.3,-869.7 -869.7,-869.7 -480.3,0 -869.7,389.4 -869.7,869.7 0,480.3 389.4,869.7 869.7,869.7 480.4,0 869.7,-389.4 869.7,-869.7"
         style="fill:#ffb012;fill-opacity:1;fill-rule:nonzero;stroke:none"
         id="path28" /><path
         d="m 26255.2,13801.3 c -0.1,0.2 -0.2,0.4 -0.3,0.6 -4.8,133.4 -39.3,259.4 -97.9,370.8 -26.8,51.4 -58.7,99.8 -94.9,144.5 0.1,0 0,0 0.1,0 114.9,-141.9 186.1,-320.8 193,-515.9"
         style="fill:#ffd4ad;fill-opacity:1;fill-rule:nonzero;stroke:none"
         id="path30" /><path
         d="m 25602.5,14612.9 c -69.3,17.8 -141.8,27.2 -216.7,27.2 0.1,0 0.1,0 0.2,0 74.8,0 147.4,-9.4 216.6,-27.2 h -0.1"
         style="fill:#b3fbed;fill-opacity:1;fill-rule:nonzero;stroke:none"
         id="path32" /><path
         d="m 26062.1,14317.2 c -115.8,143 -276,248.6 -459.6,295.7 h 0.1 c 183.7,-47.1 343.9,-152.6 459.6,-295.7 -0.1,0 0,0 -0.1,0"
         style="fill:#9999c7;fill-opacity:1;fill-rule:nonzero;stroke:none"
         id="path34" /><path
         d="m 24668.1,13722.4 c -54.9,55.1 -102.4,117.5 -141,185.7 -0.5,-3.2 -1,-6.4 -1.5,-9.7 61.9,419.6 423.5,741.7 860.2,741.7 74.9,0 147.4,-9.4 216.7,-27.2 183.6,-47.1 343.8,-152.7 459.6,-295.7 36.2,-44.7 68.1,-93.1 94.9,-144.5 -4.6,8.7 -9.3,17.3 -14.1,25.8 -9.7,-61.3 -25.8,-120.4 -47.7,-176.7 -157.5,158.1 -375.3,255.9 -616,255.9 -369.4,0 -685.1,-230.4 -811.1,-555.3"
         style="fill:#ffdfa0;fill-opacity:1;fill-rule:nonzero;stroke:none"
         id="path36" /><path
         d="m 24722.1,13208.1 c -126.8,149.5 -204,342.6 -206.1,553.6 2.1,-211 79.3,-404 206.2,-553.6 -0.1,-0.1 0,0 -0.1,0"
         style="fill:#cc763e;fill-opacity:1;fill-rule:nonzero;stroke:none"
         id="path38" /><path
         d="m 25385.7,12900.7 c -266.1,0 -504.1,119.3 -663.6,307.4 0.1,0 0,-0.1 0.1,0 159.5,-188.1 397.6,-307.4 663.5,-307.4 v 0 0"
         style="fill:#c2aac0;fill-opacity:1;fill-rule:nonzero;stroke:none"
         id="path40" /><path
         d="m 26255.4,13770.4 c 0,0.8 0,1.7 0,2.5 0,-0.8 0,-1.7 0,-2.5 m -1739.4,0 c 0,0.8 0,1.7 0,2.5 0,-0.8 0,-1.7 0,-2.5 m 1739.4,3.1 c 0,0.9 0,1.7 0,2.5 0,-0.8 0,-1.7 0,-2.5 m -1739.4,0.6 c 0,0.4 0,0.7 0,1.1 0,-0.4 0,-0.7 0,-1.1 m 1739.4,2 c 0,0.8 0,1.8 0,2.6 0,-0.9 0,-1.7 0,-2.6 m 0,2.8 c -0.1,7.7 -0.3,15.4 -0.5,23.1 v -0.1 c 0.2,-7.6 0.4,-15.3 0.5,-23"
         style="fill:#cc763e;fill-opacity:1;fill-rule:nonzero;stroke:none"
         id="path42" /><path
         d="m 25385.7,12900.7 c -265.9,0 -504,119.3 -663.5,307.4 -126.9,149.6 -204.1,342.6 -206.2,553.6 0,2.9 0,5.8 0,8.7 v 0 0 c 0,0.8 0,1.7 0,2.5 0,0.4 0,0.8 0,1.2 0,0.4 0,0.7 0,1.1 0.2,41.8 3.6,82.9 9.6,123.2 -6.2,-41.7 -9.3,-84.5 -9.3,-128 0,-141.6 33.8,-274.9 93.7,-392.8 -0.5,10.1 -0.5,20.3 -0.5,30.4 0,110.9 20.7,216.9 58.6,314.4 157.4,-158.1 375.4,-255.9 616.2,-255.9 369.4,0 685.1,230.3 810.9,555.3 64,-64.2 118.1,-138.3 159.7,-219.8 0.2,-7.7 0.4,-15.4 0.5,-23.1 0,0 0,-0.1 0,-0.2 0,-0.8 0,-1.8 0,-2.6 v -0.1 c 0,-0.8 0,-1.6 0,-2.5 0,-0.2 0,-0.4 0,-0.6 0,-0.8 0,-1.7 0,-2.5 v 0 0 c 0,-480.3 -389.4,-869.7 -869.7,-869.7 v 0"
         style="fill:#cc8d25;fill-opacity:1;fill-rule:nonzero;stroke:none"
         id="path44" /><path
         d="m 26254.9,13801.9 v 0.1 c -4.8,133.4 -39.6,259.1 -97.9,370.7 58.6,-111.4 93.1,-237.4 97.9,-370.8"
         style="fill:#ccaaa1;fill-opacity:1;fill-rule:nonzero;stroke:none"
         id="path46" /><path
         d="m 24610,13377.6 c -59.9,117.9 -93.7,251.2 -93.7,392.8 0,43.5 3.1,86.3 9.3,128 0.5,3.3 1,6.5 1.5,9.7 38.6,-68.2 86.1,-130.6 141,-185.7 -37.9,-97.5 -58.6,-203.5 -58.6,-314.4 0,-10.1 0,-20.3 0.5,-30.4 m 1644.9,424.4 c -41.6,81.5 -95.7,155.6 -159.7,219.8 21.9,56.3 38,115.4 47.7,176.7 4.8,-8.5 9.5,-17.1 14.1,-25.8 58.3,-111.6 93.1,-237.3 97.9,-370.7"
         style="fill:#ccb297;fill-opacity:1;fill-rule:nonzero;stroke:none"
         id="path48" /><path
         d="m 25385.7,14446.9 c -373,0 -676.4,-303.5 -676.4,-676.5 0,-373 303.4,-676.4 676.4,-676.4 373,0 676.5,303.4 676.5,676.4 0,373 -303.5,676.5 -676.5,676.5 z m 0,-1739.5 c -586.1,0 -1063,476.9 -1063,1063 0,586.1 476.9,1063 1063,1063 586.2,0 1063,-476.9 1063,-1063 0,-586.1 -476.8,-1063 -1063,-1063"
         style="fill:#000072;fill-opacity:1;fill-rule:nonzero;stroke:none"
         id="path50" /><path
         d="m 25105.5,5912 c -708.4,-693.3 -2179.1,-600.5 -2792.8,650.9 -105.3,215 -185.5,463.8 -231.4,749.4 l -0.5,1 c -12.1,72.4 -21.7,146.8 -29,224.1 l -1787.7,1014.7 c 0,0 83.5,26.6 230,65.7 887.6,237.3 4082.3,939.3 4856.4,-1005 12.5,-30.9 24.1,-62.8 35.2,-95.2 v -0.4 c 241.1,-703.6 77.8,-1254.9 -280.2,-1605.2"
         style="fill:#ff9331;fill-opacity:1;fill-rule:nonzero;stroke:none"
         id="path52" /><path
         d="m 23984.9,5481.2 c -580.3,0 -1193.7,280.5 -1574.2,903.1 v 0 c 380.6,-622.4 993.9,-903.1 1574.2,-903.1 426.6,0 835.4,151.7 1120.6,430.8 v 0 0 c 241.2,236.1 394.1,563.4 394.3,967 0.1,86.6 -6.8,176.6 -21.4,270 163.1,-1044.1 -628.4,-1667.8 -1493.5,-1667.8"
         style="fill:#cccce3;fill-opacity:1;fill-rule:nonzero;stroke:none"
         id="path54" /><path
         d="m 21995.7,6705.4 c -220.2,15.1 -2015.7,169.9 -2781.8,1233.4 -118.9,165.2 -229.1,424.4 -311,758.1 371,-544.6 1200.5,-1407 2732,-1407 142.6,0 291,7.5 445.9,23.4 l 0.5,-1 v 0 c 33.5,-208.3 85.2,-397 151.6,-567.3 -77.1,-13.6 -155.8,-26.7 -237.2,-39.6"
         style="fill:#cc763e;fill-opacity:1;fill-rule:nonzero;stroke:none"
         id="path56" /><path
         d="m 22410.7,6384.3 c -34.7,56.7 -67.4,116.2 -98,178.6 -101.9,-18.4 -204.8,-35.3 -307.8,-51.7 h -0.4 c -43,2.4 -2086.4,119.3 -2947.4,1314.7 -92.5,128.6 -175.8,296 -246.3,495.6 -34.9,284.6 -89.6,550.8 -157.2,797 1.4,4.5 2.9,9 4.4,13.4 0,0 73.7,-183.7 244.9,-435 81.9,-333.7 192.1,-592.9 311,-758.1 766.1,-1063.5 2561.6,-1218.3 2781.8,-1233.4 81.4,12.9 160.1,26 237.2,39.6 24.6,-63.2 51.3,-123.9 79.8,-182.1 30.6,-62.4 63.3,-121.9 98,-178.6 v 0"
         style="fill:#000072;fill-opacity:1;fill-rule:nonzero;stroke:none"
         id="path58" /><path
         d="m 25478.3,7149.4 c -0.2,1 -0.3,2 -0.5,3 0.2,-1 0.3,-2 0.5,-3 m -0.6,4 c -0.2,0.8 -0.3,1.7 -0.4,2.5 0.1,-0.9 0.2,-1.7 0.4,-2.5 m -0.6,3.8 c -0.2,0.7 -0.2,1.2 -0.3,1.9 0,-0.6 0.2,-1.3 0.3,-1.9 m -0.7,3.8 c 0,0.3 0,0.5 -0.1,0.8 0.1,-0.3 0.1,-0.4 0.1,-0.8"
         style="fill:#cccce3;fill-opacity:1;fill-rule:nonzero;stroke:none"
         id="path60" /><path
         d="m 25388.2,7509.8 v 0 0 m -1.2,3.6 c -0.4,1.3 -0.9,2.5 -1.3,3.8 0.5,-1.3 0.9,-2.5 1.3,-3.8 m -1.3,3.8 v 0 0.4 0 c -11.1,32.4 -22.7,64.3 -35.2,95.2 l 119.3,-57 c -28,-13.5 -56.1,-26.1 -84.1,-38.6"
         style="fill:#000072;fill-opacity:1;fill-rule:nonzero;stroke:none"
         id="path62" /><path
         d="m 23984.9,5481.2 c -580.3,0 -1193.6,280.7 -1574.2,903.1 -34.7,56.7 -67.4,116.2 -98,178.6 -28.5,58.2 -55.2,118.9 -79.8,182.1 -66.4,170.3 -118.1,359 -151.6,567.3 13.5,-19.3 246.4,-355.6 632.9,-670.2 348.1,-283.1 820.4,-548.2 1368.6,-548.2 64.5,0 129.9,3.7 196.5,11.4 535.9,62.1 810.7,336.8 949.2,635.2 12.2,-249.9 -26.3,-525.6 -123,-828.5 v 0 c -285.2,-279.1 -694,-430.8 -1120.6,-430.8 m 1400.8,2036.4 c -11.1,32.4 -22.7,64.3 -35.2,95.2 v 0 c 12.5,-30.9 24.1,-62.8 35.2,-95.2 v 0"
         style="fill:#cc763e;fill-opacity:1;fill-rule:nonzero;stroke:none"
         id="path64" /><path
         d="m 25228.5,6740.5 c -32.4,665.6 -424.7,1147.7 -1036.9,1469.9 -736.3,387.5 -1732.8,478.5 -2505.7,478.5 -683.3,0 -1191.8,-71.1 -1191.8,-71.1 411.2,109.9 1318,319.7 2249.5,319.7 1079.1,0 2191.4,-281.2 2606.9,-1324.7 v 0 c 0,0 6.2,-40.1 9.6,-106.8 8.8,-159.9 3.7,-474 -131.6,-765.5 m 249.9,408.5 c -0.1,0.1 -0.1,0.3 -0.1,0.4 0,-0.1 0,-0.3 0.1,-0.4 m -0.6,3.4 c 0,0.4 -0.1,0.6 -0.1,1 0,-0.3 0.1,-0.7 0.1,-1 m -0.5,3.5 c -0.1,0.4 -0.2,0.9 -0.2,1.3 0,-0.4 0.1,-0.9 0.2,-1.3 m -0.5,3.2 c -0.1,0.6 -0.3,1.4 -0.4,1.9 0.1,-0.6 0.3,-1.3 0.4,-1.9 m -0.5,2.7 c -18.2,111.3 -47.2,227.4 -88.1,348 40.9,-120.6 69.9,-236.7 88.1,-348 m -88.1,348 c -0.4,1.2 -0.8,2.5 -1.2,3.6 0.4,-1.2 0.8,-2.4 1.2,-3.6"
         style="fill:#ffd4ad;fill-opacity:1;fill-rule:nonzero;stroke:none"
         id="path66" /><path
         d="m 25105.5,5912 c 96.7,302.9 135.2,578.6 123,828.5 135.3,291.5 140.4,605.6 131.6,765.5 -3.4,66.7 -9.6,106.8 -9.6,106.8 12.5,-30.9 24.1,-62.8 35.2,-95.2 v -0.4 0 0 0 c 0.4,-1.3 0.9,-2.5 1.3,-3.8 0.4,-1.1 0.8,-2.4 1.2,-3.6 v 0 c 40.9,-120.6 69.9,-236.7 88.1,-348 0.1,-0.3 0.1,-0.5 0.1,-0.8 0.1,-0.5 0.3,-1.3 0.4,-1.9 0.1,-0.7 0.1,-1.2 0.3,-1.9 0,-0.4 0.1,-0.9 0.2,-1.3 0.1,-0.8 0.2,-1.7 0.4,-2.5 0,-0.4 0.1,-0.6 0.1,-1 0.2,-1 0.3,-2 0.5,-3 0,-0.1 0,-0.3 0.1,-0.4 14.6,-93.4 21.5,-183.4 21.4,-270 -0.2,-403.6 -153.1,-730.9 -394.3,-967"
         style="fill:#ebc8b2;fill-opacity:1;fill-rule:nonzero;stroke:none"
         id="path68" /><path
         d="m 20255.1,8580.4 c 225.1,113.1 459.4,199.8 697.6,276.5 119.3,37.3 239.5,73 361.1,102.7 121.3,31.1 243.7,59.1 367,82.8 246.6,47.8 497,80.5 749.8,95.7 252.7,14.2 507.8,7.6 762.5,-16.4 254.6,-26 509.8,-65.5 761.5,-134 251.2,-68 500.2,-163.9 729.3,-304.8 228.7,-139.8 437.3,-323.8 597.2,-545.1 159.4,-220.9 274,-472.7 337.7,-730.4 67.6,-257.8 97,-535.8 50,-812.7 -44.1,-276.3 -169,-545.4 -357,-758.1 -187.2,-214.5 -434,-366 -694.4,-459.3 -261.4,-93.6 -541,-125.7 -815.1,-103.1 -273.9,24.7 -544,104.2 -784.4,238.8 -240.8,133.5 -452.3,317.9 -615.5,534.6 -163.9,215.8 -289.2,457.8 -356,713.1 -14.2,64.4 -27.9,128.6 -39.4,192.8 -9.3,64.6 -11.8,130.2 -15.6,194.8 l -3.3,96.8 c 2.3,32.6 4.3,65 7.6,97.3 6.5,64.7 14.1,128.8 26.6,192.2 3.3,16.8 19.6,27.7 36.3,24.3 10,-1.9 17.8,-8.5 21.9,-17 l 0.8,-1.6 c 109.7,-233.5 183.3,-457.5 287.3,-665 101.2,-206.4 206,-405.6 348.8,-575.2 142.2,-168.6 312.5,-310.3 504.7,-411.3 192,-100.6 403.1,-165.1 619.2,-183.6 215.6,-20.9 435.3,3.3 638.8,69.9 202.6,67.4 391.5,177.8 531.9,332.2 140.8,153.5 234.7,345.5 271.8,553.9 36.7,208.7 17.8,431 -38.7,647.7 -54.2,220 -148.6,423.3 -276.6,601.5 -128.6,177.9 -295.7,326 -486.2,442.7 -383.1,233 -850.7,341.3 -1320.5,367.6 -235.9,13 -473.6,10.9 -712.2,1.8 -238.7,-7.4 -478.5,-22 -719.2,-41.3 -481.9,-36.8 -965.8,-97.9 -1457.4,-157.3 l -0.8,-0.1 c -16.4,-2 -31.4,9.7 -33.4,26.2 -1.5,12.8 5.4,24.8 16.3,30.4"
         style="fill:#000072;fill-opacity:1;fill-rule:nonzero;stroke:none"
         id="path70" /><path
         d="m 30895.8,12135.3 c -82.6,-139.1 -324.6,-517.9 -757.1,-995.8 0,0 803.5,-2973.9 -1177.5,-3360.5 -286.5,-56 -532.9,-16.9 -740.2,93.8 -750.9,399.1 -983.7,1737.5 -733.9,2896.1 25.1,116 55,230.5 89.8,342.1 v 1 l 0.5,0.9 c 183.6,588.6 501.5,1094.9 949,1352.9 1127.2,650.4 2165.5,-86 2367.5,-244.5 23.2,-17.8 35.3,-28.5 35.3,-28.5 0,0 -10.6,-19.8 -33.4,-57.5"
         style="fill:#ff9331;fill-opacity:1;fill-rule:nonzero;stroke:none"
         id="path72" /><path
         d="m 27853.4,8188.5 c -0.3,0.3 -0.5,0.7 -0.8,1 0.3,-0.3 0.5,-0.7 0.8,-1 m -1.2,1.6 c -86.9,111.1 -161.5,240.1 -223.7,382.5 -51.7,118.5 -95,246.4 -129.8,381.2 -72.1,279.6 -107.9,588.8 -108,905.8 -0.1,302.3 32.2,611.7 96.4,909.3 25.1,116 55,230.5 89.8,342.1 v 1 l 0.5,0.9 c 183.6,588.6 501.5,1094.9 949,1352.9 334.7,193.1 661.6,264 961.1,264 709.1,0 1264.4,-397 1406.4,-508.5 23.2,-17.8 35.3,-28.5 35.3,-28.5 v 0 c 0,0 -12.1,10.7 -35.3,28.5 -28.5,-20.8 -57.8,-41.9 -87.6,-63.1 -305.4,81.7 -749.3,227.8 -1203,227.8 -294.6,0 -593.4,-61.7 -861,-242.6 -602.4,-407.2 -1361.1,-2064 -889.1,-3528.1 -698.1,605.5 -294.2,2416 -276.3,2494.7 l -89.8,-341.1 c -202.7,-940.7 -87.5,-1999.7 365.1,-2578.8 m 3066.5,3984.1 c 6.9,12.1 10.4,18.4 10.5,18.6 -0.1,-0.1 -3.5,-6.5 -10.5,-18.6 m 10.5,18.6 v 0 0"
         style="fill:#ffd4ad;fill-opacity:1;fill-rule:nonzero;stroke:none"
         id="path74" /><path
         d="m 28574.2,7761.8 c -296.8,36 -536.6,191.7 -720.8,426.7 104.5,-133.3 227,-241 367.6,-315.7 v 0 0 c 107.2,-57.3 224.9,-95.4 353.2,-111 m -721.6,427.7 c -0.1,0.2 -0.3,0.4 -0.4,0.6 0.1,-0.2 0.2,-0.4 0.4,-0.6"
         style="fill:#cccce3;fill-opacity:1;fill-rule:nonzero;stroke:none"
         id="path76" /><path
         d="m 30138.7,11139.5 v 0 c 125.8,139 235.5,269.6 329.8,388.4 -94.3,-118.8 -204,-249.4 -329.8,-388.4 m 330.1,388.8 c 0.1,0 0.1,0.1 0.2,0.2 -0.1,-0.1 -0.2,-0.2 -0.2,-0.2 m 367.9,511.2 c 24.8,39 44.5,71.2 59.1,95.8 v 0 c 9.9,16.4 17.5,29.4 22.9,38.9 -13.6,-23.9 -40.7,-70 -82,-134.7 m 92.5,153.3 v 0 0"
         style="fill:#000072;fill-opacity:1;fill-rule:nonzero;stroke:none"
         id="path78" /><path
         d="m 28709.1,7753.7 c -46.2,0 -91.2,2.7 -134.9,8.1 -128.3,15.6 -246,53.7 -353.2,111 v 0 c -165.2,236.4 -285.3,486.6 -367.8,742.5 140.7,-122.1 326.3,-195.1 568.9,-195.1 75.3,0 155.8,7 242.4,21.8 1780.6,303.9 1180.4,3257.5 1180.4,3257.5 5.3,-0.2 10.8,-0.3 16.2,-0.3 240.1,0 627.6,234.1 945.2,459 31.3,-8.3 61.2,-16.1 89.5,-22.9 -14.6,-24.6 -34.3,-56.8 -59.1,-95.8 -74.6,-116.7 -195.5,-294.1 -367.7,-511 -0.1,-0.1 -0.1,-0.2 -0.2,-0.2 -0.1,-0.1 -0.2,-0.2 -0.3,-0.4 -94.3,-118.8 -204,-249.4 -329.8,-388.4 v 0 0 c 0,0 161.1,-596.2 161.2,-1289.4 0.1,-855 -244.7,-1857.6 -1338.7,-2071.1 v 0 c -87.7,-17.1 -171.8,-25.3 -252.1,-25.3"
         style="fill:#cc763e;fill-opacity:1;fill-rule:nonzero;stroke:none"
         id="path80" /><path
         d="m 28221,7872.8 c -140.6,74.7 -263.1,182.4 -367.6,315.7 -0.3,0.3 -0.5,0.7 -0.8,1 -0.2,0.2 -0.3,0.4 -0.4,0.6 -452.6,579.1 -567.8,1638.1 -365.1,2578.8 l 89.8,341.1 c -17.9,-78.7 -421.8,-1889.2 276.3,-2494.7 82.5,-255.9 202.6,-506.1 367.8,-742.5 m 2674.8,4262.5 c -28.3,6.8 -58.2,14.6 -89.5,22.9 29.8,21.2 59.1,42.3 87.6,63.1 23.2,-17.8 35.3,-28.5 35.3,-28.5 v 0 0 0 c -0.1,-0.2 -3.6,-6.5 -10.5,-18.6 -5.4,-9.5 -13,-22.5 -22.9,-38.9 v 0"
         style="fill:#ccaaa1;fill-opacity:1;fill-rule:nonzero;stroke:none"
         id="path82" /><path
         d="m 29493.3,12537.7 c -271.1,0 -567,-64.3 -870.4,-239.3 -951.1,-548.7 -1272.8,-2439 -859.3,-3544.3 160.9,-430.2 492.8,-915.7 1160.6,-785.4 397.3,77.5 686.6,269.8 884.7,587.7 570.5,916 147.4,2516.7 143.1,2532.8 -17.2,63.5 -0.9,131.3 43.3,180.1 346.6,382.8 567.9,701.5 678.7,874.8 -207.7,143.6 -646,393.6 -1180.7,393.6 z M 28710,7560.5 c -584.2,0 -1052.2,373.3 -1308.5,1058.2 -476.8,1274.6 -124.4,3349.5 1028.3,4014.5 1359.9,784.6 2613.8,-283.8 2626.4,-294.7 68.2,-59.3 86.1,-158.1 43.1,-237.7 -9.9,-18.3 -238.6,-436.8 -748.7,-1014.1 91.2,-395.4 360.7,-1812.7 -213.6,-2734.6 -254.3,-408.3 -637.5,-665 -1138.8,-762.8 -98.7,-19.2 -195,-28.8 -288.2,-28.8"
         style="fill:#000072;fill-opacity:1;fill-rule:nonzero;stroke:none"
         id="path84" /><path
         d="m 29939.2,11046.9 c -9.4,71.9 -22.3,148.3 -35.4,222.6 -13.4,74.7 -27.8,149.5 -44,223.8 -32.9,148.8 -69.7,296.6 -125.5,441 110.1,-109.5 208,-234.3 301.4,-361 46.7,-63.5 91.8,-128.1 136.2,-193.5 44.5,-66 87.4,-130.5 130.6,-200.8 l 1.8,-3 c 57.2,-93.2 28,-215.1 -65.2,-272.3 -93.2,-57.2 -215.2,-27.9 -272.3,65.3 -14.9,24.2 -24,51.4 -27.6,77.9"
         style="fill:#000072;fill-opacity:1;fill-rule:nonzero;stroke:none"
         id="path86" /><path
         d="m 32248.3,21909.5 c 0,-38.7 -0.5,-78.3 -1.5,-118.4 -48.3,-1884.4 -1691.1,-2899 -2850.7,-3140.6 l -3913.7,8165.6 v 145 c 261.4,332.9 731.5,557.1 1234.5,642.6 519.4,88.9 1074.1,30.4 1471.2,-207.8 966.4,-579.8 1014.7,-1642.8 1836.1,-2174.2 574,-371.1 2212,-1302.7 2224.1,-3312.2"
         style="fill:#ae531e;fill-opacity:1;fill-rule:nonzero;stroke:none"
         id="path88" /><path
         d="m 32017.8,21888.6 c -48.1,0 -96.3,2.7 -144,8.2 -150.8,1820.5 -1664.8,2683.4 -2212,3037.1 -821.4,531.5 -869.7,1594.5 -1836.1,2174.3 -193.2,115.9 -423.7,189.2 -669.2,223.8 -55.4,37.8 -111.7,74.9 -169,111.1 62.8,4.7 125.5,7.1 187.8,7.1 337.2,0 663.3,-69.9 913.4,-220 465.2,-279.1 696.2,-677.2 940.8,-1098.7 226.7,-390.8 461.2,-794.8 889.7,-1072.1 30.5,-19.7 63.9,-41 99.9,-63.9 612.8,-390 2034,-1294.6 2035.7,-3106.4 -12.4,-0.3 -24.7,-0.5 -37,-0.5"
         style="fill:#dfbaa5;fill-opacity:1;fill-rule:nonzero;stroke:none"
         id="path90" /><path
         d="m 30882.9,19556.2 c 18.1,136.6 29.8,275.2 35,415.9 v 0.1 c 15.6,427.6 -3.8,839.5 -57.7,1224.4 -219.5,1560.6 -967.2,2458.7 -1513.2,3114.4 -227.8,273.5 -424.5,509.8 -524.4,725.9 -83.6,181.1 -738.4,1512 -2254.7,2307.1 82.1,7.5 164.4,11.4 246.2,11.4 115.9,0 230.7,-7.7 342.4,-23.4 173.8,-118.7 338.3,-244.5 491,-372.4 804,-673 1326.3,-1615.2 1996,-2422.1 288.4,-346.9 607.3,-673.6 832,-1064.5 262.8,-457.5 403.4,-1011.2 815.6,-1340.8 167,-133.5 371.3,-211.3 582.7,-235.4 7.4,-89.3 11.5,-181.1 12.1,-275 0,-38.7 -0.5,-78.3 -1.5,-118.4 -10.4,-410.6 -96.7,-779.9 -237.1,-1108.9 -206.8,-337.5 -475.2,-614.9 -764.4,-838.3"
         style="fill:#8b422f;fill-opacity:1;fill-rule:nonzero;stroke:none"
         id="path92" /><path
         d="m 31647.3,20394.5 c 140.4,329 226.7,698.3 237.1,1108.9 1,40.1 1.5,79.7 1.5,118.4 -0.6,93.9 -4.7,185.7 -12.1,275 47.7,-5.5 95.9,-8.2 144,-8.2 12.3,0 24.6,0.2 37,0.5 0,-30.8 -0.4,-61.7 -1.2,-93 -14.1,-551.7 -169.9,-1015.9 -406.3,-1401.6 M 27156.5,27332 c -111.7,15.7 -226.5,23.4 -342.4,23.4 -81.8,0 -164.1,-3.9 -246.2,-11.4 -13.8,7.3 -27.7,14.4 -41.7,21.6 149.4,39.6 305.3,65.7 461.3,77.5 57.3,-36.2 113.6,-73.3 169,-111.1"
         style="fill:#b2959b;fill-opacity:1;fill-rule:nonzero;stroke:none"
         id="path94" /><path
         d="m 21056.9,26132 -761,-9023.3 c -470.6,-74.4 -1059.1,-59.9 -1640.3,97.6 -863.9,234.3 -1712.9,784.2 -2139.5,1826.9 -792.4,1936 447.9,3434.4 860.5,3996.3 579.3,788.1 246.9,1799.3 944.6,2684 457.6,580.8 1453.9,876 2207.2,729.6 175.4,-33.8 337.7,-91.8 476.9,-175.9 l 51.6,-135.2"
         style="fill:#ae531e;fill-opacity:1;fill-rule:nonzero;stroke:none"
         id="path96" /><path
         d="m 18217.3,23368.7 c 91.1,297.3 182.6,594.8 274,891.9 86,280.3 173,562.9 313.6,820.5 224.1,410.1 575.6,737.3 972.5,987.3 -727.2,-834.3 -1079.8,-1766.6 -1177.9,-2386.8 -11.7,-73.4 -33,-152.6 -61.7,-237.2 -101.1,-7.9 -208,-33.2 -320.5,-75.7"
         style="fill:#8b422f;fill-opacity:1;fill-rule:nonzero;stroke:none"
         id="path98" /><path
         d="m 17590.6,22999.2 c 254.1,389.5 324.6,818.2 392.9,1233.7 79.1,480.9 153.8,935 489.6,1361.1 313.3,397.4 925.8,650.3 1501.8,688.7 -62.3,-64 -122.4,-129 -180.1,-194.5 -466.6,-116.5 -902.9,-354.8 -1164.1,-686.1 -551.3,-699.2 -459.6,-1477.3 -682.9,-2162 -114.1,-65 -233.2,-145.3 -357.2,-240.9"
         style="fill:#dfbaa5;fill-opacity:1;fill-rule:nonzero;stroke:none"
         id="path100" /><path
         d="m 25666,26880 3837.1,-8005.7 c 938.8,246.5 2504.2,1115.3 2550.5,2921.8 48,1874.1 -1411.3,2802.8 -2034.5,3199.4 -36,22.9 -69.4,44.2 -99.9,63.9 -428.5,277.3 -663,681.3 -889.7,1072.1 -244.6,421.5 -475.6,819.6 -940.8,1098.7 -681.2,408.7 -1925.6,222.8 -2422.7,-350.2 m 3730,-8422.8 c -73.2,0 -141.6,41.7 -174.2,109.7 l -3913.7,8165.7 c -24.5,51 -24.6,107.4 -4.9,156 -25.1,62.1 -17.2,135.5 27.2,191.9 596.5,759.2 2088.9,1002.1 2957.2,481.2 550.6,-330.4 829.9,-811.7 1076.2,-1236.2 213.3,-367.5 414.7,-714.6 765.4,-941.6 29.7,-19.2 62.3,-40 97.4,-62.3 678.4,-431.7 2267.1,-1442.7 2213.4,-3535.4 -22.9,-893.5 -393.1,-1696.9 -1070.6,-2323.4 -531.1,-491.1 -1236,-856.1 -1933.9,-1001.5 -13.2,-2.8 -26.4,-4.1 -39.5,-4.1"
         style="fill:#000072;fill-opacity:1;fill-rule:nonzero;stroke:none"
         id="path102" /><path
         d="m 20126.5,26287.9 c -617.1,0 -1312.4,-261.4 -1653.4,-693.9 -335.8,-426.1 -410.5,-880.2 -489.6,-1361.1 -73.3,-445.7 -149.1,-906.7 -451.3,-1318 -21.5,-29.3 -45.2,-61 -70.7,-95.2 -441.9,-591.9 -1476.7,-1978.2 -766.6,-3713.2 684.4,-1672.5 2456.2,-1929.3 3421.3,-1826.5 l 746.2,8846.4 c -204.9,110.2 -462.8,161.5 -735.9,161.5 m -407.1,-9416.7 c -529.7,0 -1073.7,101.8 -1556.8,296.8 -855.8,345.3 -1487,965 -1825.5,1792.1 -792.8,1937.4 333.6,3446.4 814.6,4090.8 24.9,33.4 48,64.3 69,92.8 247.4,336.7 312.5,732.7 381.4,1151.9 79.6,484.4 169.9,1033.4 567.5,1537.7 626.8,795.2 2108.3,1097.7 2935.5,599.6 61.4,-37 94.9,-102.8 93.5,-169.7 35.6,-38.5 55.5,-91.3 50.8,-147.6 l -761.1,-9023 c -7.5,-88.7 -74.4,-160.7 -162.3,-174.7 -197,-31.3 -400.8,-46.6 -606.6,-46.7"
         style="fill:#000072;fill-opacity:1;fill-rule:nonzero;stroke:none"
         id="path104" /><path
         d="m 30724.8,19979.2 c -144.9,-3913.7 -5363.2,-4783.4 -5363.2,-4783.4 0,0 -5749.8,-966.4 -7235.1,2998.1 -1080.4,2882.6 506.4,4464.5 663.9,5457.4 157,993 1174.6,3511.8 4348.6,4010.4 818.9,128.5 1539.3,89.9 2167.5,-55.6 1965.1,-455.6 3021.3,-1958.3 3340.7,-2650.2 361.8,-783.2 1716.7,-1617.7 2021.6,-3786.1 50.2,-358.6 72,-753.3 56,-1190.6"
         style="fill:#ff9331;fill-opacity:1;fill-rule:nonzero;stroke:none"
         id="path106" /><path
         d="m 30668.8,21169.8 c -708.9,-549.4 -1598.9,-876.5 -2565.2,-876.5 -2314.9,0 -4191.6,1876.6 -4191.6,4191.5 0,1239.8 538.3,2354.1 1394.5,3121.3 1965.1,-455.6 3021.3,-1958.3 3340.7,-2650.2 361.8,-783.2 1716.7,-1617.7 2021.6,-3786.1"
         style="fill:#ae531e;fill-opacity:1;fill-rule:nonzero;stroke:none"
         id="path108" /><path
         d="m 19083.6,24060.2 c 360.1,1197.5 1522,3007.8 4085.3,3410.5 320,50.3 633.7,75.4 939.5,75.4 354.1,0 697.7,-33.7 1028.3,-100.8 -98,-98.2 -191.2,-201.2 -279.1,-308.7 -237.5,33 -486.6,50.8 -747.7,50.8 -306.9,0 -630.4,-24.6 -970.9,-78 -2390.4,-375.5 -3557.7,-1896.8 -4055.4,-3049.2"
         style="fill:#ffd4ad;fill-opacity:1;fill-rule:nonzero;stroke:none"
         id="path110" /><path
         d="m 30293.3,21972.4 c -525.5,1213.3 -1371.6,1837 -1646.1,2431.2 -284.2,615.6 -1151,1872.3 -2721.8,2463.3 0,-1.5 -0.5,-2.9 -0.9,-4.4 -21.4,-75.6 -126.2,-117.5 -265.3,-117.5 -71.6,0 -152.2,11.1 -235.3,34.4 -242.1,68.1 -412.6,214.5 -384.1,328.6 -60,10.5 -120.7,20.1 -182.2,28.6 87.9,107.5 181.1,210.5 279.1,308.7 42.3,-8.6 84.3,-17.8 126.1,-27.5 1799,-417.1 2863.5,-1794.7 3208.9,-2543 121.2,-262.3 333,-516.7 578.3,-811.2 431.3,-518 946.1,-1136.3 1243.3,-2091.2"
         style="fill:#dfbaa5;fill-opacity:1;fill-rule:nonzero;stroke:none"
         id="path112" /><path
         d="m 23858.3,15285.7 c -455.1,0 -981.5,28 -1527.4,113.4 -1378.1,215.6 -2437.4,711.2 -3166.9,1478.8 26.7,265.6 33.4,528.9 21.2,788.4 1328.2,-1314.2 3367,-1570.2 4752.4,-1570.2 882.8,0 1500.3,103.8 1500.3,103.8 0,0 3916.6,652.8 5057.6,3372 -188.4,-1355.3 -1057.6,-2456.3 -2589.2,-3277 -1279.9,-685.8 -2563.8,-906.4 -2576.8,-908.5 -9.2,-1.5 -614.1,-100.7 -1471.2,-100.7 m -4801.4,1709.6 c -4.9,5.7 -9.9,11.3 -14.8,17 21,269.7 21.5,537 2.6,800 40.1,-43.8 81,-86.4 122.6,-128.1 -9.1,-95.7 -20.6,-191.6 -35,-287.8 -20.5,-137.7 -45.7,-271.6 -75.4,-401.1"
         style="fill:#cc763e;fill-opacity:1;fill-rule:nonzero;stroke:none"
         id="path114" /><path
         d="m 30724.8,19979.2 h 0.5 -0.5 m -6616.4,7566.9 c -305.8,0 -619.5,-25.1 -939.5,-75.4 -2902.9,-456 -4008.6,-2717.5 -4187.6,-3849.6 -45.4,-286.1 -190.6,-599.6 -358.7,-962.7 -457.8,-988.8 -1084.8,-2343 -315.1,-4396.7 589.7,-1574 1943.4,-2537.1 4023.4,-2862.6 1573.9,-246.3 2984.6,-15 2998.6,-12.7 13,2.1 1296.9,222.7 2576.8,908.5 1684.8,902.8 2568.1,2144.8 2625.4,3691.5 v -0.1 c 14.7,405 -3.5,794.1 -54.3,1156.6 -204.1,1451.6 -882.4,2266.2 -1427.4,2920.7 -245.3,294.5 -457.1,548.9 -578.3,811.2 -345.4,748.3 -1409.9,2125.9 -3208.9,2543 -369,85.5 -755,128.3 -1154.4,128.3 m -242.1,-12648.2 c -472.6,0 -1021.1,29.5 -1595.2,119.3 -2196.6,343.7 -3692.4,1418.7 -4325.6,3108.9 -826.4,2205 -132.7,3703.3 326.3,4694.7 156,336.9 290.7,627.9 327.7,860.8 194.2,1228.1 1386.7,3680.4 4509.5,4171 786.8,123.5 1540.9,103.9 2241.1,-58.2 2394.2,-555.1 3369.2,-2533.7 3472.5,-2757.5 99.9,-216.1 296.6,-452.4 524.4,-725.9 546,-655.7 1293.7,-1553.8 1513.2,-3114.4 53.9,-384.9 73.3,-796.8 57.7,-1224.4 v -0.1 c -61.9,-1672.9 -1043.3,-3063.9 -2838,-4022.7 -1335.3,-713.4 -2632,-935.2 -2686.6,-944.3 -38.7,-6.5 -653.3,-107.2 -1527,-107.2"
         style="fill:#000072;fill-opacity:1;fill-rule:nonzero;stroke:none"
         id="path116" /><path
         d="m 23538.1,21031.4 1440,162.4 c 162.8,18.4 270.1,-165.2 174.2,-298.1 l -643.3,-891.6 c -66.1,-91.6 -197.3,-105 -280.6,-28.8 l -796.6,729.2 c -119.6,109.4 -54.7,308.7 106.3,326.9"
         style="fill:#000072;fill-opacity:1;fill-rule:nonzero;stroke:none"
         id="path118" /><path
         d="m 24372.1,20414.7 c 92.6,-203.3 112.3,-439.1 73.9,-666.5 -39,-227.8 -138.7,-447.3 -281.7,-633.3 -143,-186.8 -331.5,-336.9 -539.2,-444.4 -207.8,-109 -434.5,-174 -666.5,-206.3 -228.3,-26.6 -468,-13.1 -694.7,47.6 -227.4,59.4 -442.8,168.7 -624.1,318.8 -43.4,39.7 -87,79.2 -129.3,119.7 -39.2,43.8 -77.6,88.2 -114.5,133.5 -33.4,48.1 -68.8,94.7 -99.4,144.2 -28,51.3 -56,102.4 -79.6,155.3 -90.4,213.5 -121.9,452.1 -63.5,672.5 4.9,18.5 23.8,29.5 42.2,24.6 9.5,-2.5 17,-8.8 21.4,-16.7 l 0.4,-0.7 c 105.1,-192.6 200.6,-357.8 310.8,-508.2 27.6,-37.3 57.6,-72.7 83.9,-109.9 l 89.2,-103.6 c 32,-32.3 66.2,-62.4 97.6,-94.7 l 104,-86.7 c 143.4,-109.4 304.1,-195 475.9,-250.7 172.4,-55 354.6,-76.8 539.5,-58.1 179.7,20.7 357.6,77.5 513,171.1 156,92.9 290.6,215.9 407.1,353.3 116.6,138 212.8,293.6 290,464.7 78.2,171.4 133.7,357.7 179.6,567.4 l 0.1,0.3 c 4,18.3 22.1,29.9 40.3,25.9 10.8,-2.3 19.3,-9.8 23.6,-19.1"
         style="fill:#000072;fill-opacity:1;fill-rule:nonzero;stroke:none"
         id="path120" /><path
         d="m 27526.8,20767.5 c 93.4,-206.7 112.9,-446.5 72.5,-677.4 -12.5,-57 -26.7,-114.3 -42.2,-171.4 -20.9,-54.9 -40.1,-111.3 -64.6,-165.3 -27.6,-52.3 -53.5,-106.1 -83.7,-157.4 -34,-48.7 -65.6,-99.5 -102.6,-146.2 -148.2,-187.7 -342.7,-336.4 -555.5,-441.6 -106.4,-53.2 -217.8,-95.3 -331.5,-127.8 -57.2,-13.7 -114.8,-33.1 -171.6,-40.6 l -85.4,-14.5 -42.8,-7.1 c -21.3,-2.2 -43.3,-3.9 -65,-4.9 l 17.7,0.8 c -16.4,-1.2 -35.9,-2.7 -49.7,-3.1 l -41.4,-1.4 -82.7,-2.9 c -13.9,-0.4 -27.5,-1.3 -41.5,-1.2 l -43.1,2.5 -86.1,5.2 c -114.7,9.4 -228.8,30.3 -340.1,61.7 -222.6,62.6 -432.9,172.8 -609,323.1 -43.7,37.8 -84.4,79.2 -126.2,118.8 -38.6,43 -74.6,88.3 -111.4,132.4 -32.9,47.2 -66.1,94.2 -96.6,142.6 -27.3,50.7 -53.1,101.9 -76.9,153.5 -87.3,210.7 -116.8,445.5 -59.3,662.3 4.9,18.4 23.8,29.4 42.3,24.5 9.5,-2.5 17,-8.7 21.4,-16.7 l 0.3,-0.7 c 103.4,-189.4 197.5,-352.1 305.6,-500.7 27.9,-36.4 56.5,-71.7 82.2,-108.5 30.7,-33.3 58.2,-68.6 87.4,-102.3 l 95.8,-93.6 c 34.3,-28.4 66.7,-58.8 101.6,-86.1 140.4,-108.2 297,-194.7 465,-251.9 84.1,-28.2 171,-48.7 259.4,-60.4 l 66.7,-6.8 33.3,-3.5 c 11.5,-0.5 23.4,-0.1 35.1,-0.2 l 70.5,0.1 35.3,0.1 26.8,1.1 16.5,0.7 1.1,0.1 c 4.7,0.9 8.9,1.1 13.9,1 l 35.4,5.5 70.7,10.8 c 48.4,4.5 90.6,22 135.9,32.9 88.8,25.8 173.7,63.7 253.9,108.9 160.5,91 298.9,214.5 418.4,353 30.7,34.1 56.6,72 85.8,107.7 27.6,36.8 51.9,76.1 78.7,114.1 l 70,121 c 20.4,42 40.7,84.5 63,127 79.3,173.9 135.6,362.7 182.7,575.6 l 0.1,0.5 c 4,18.3 22.1,29.8 40.3,25.8 10.8,-2.4 19.3,-9.9 23.6,-19.1"
         style="fill:#000072;fill-opacity:1;fill-rule:nonzero;stroke:none"
         id="path122" /><path
         d="m 26022.5,19006.1 -491.8,-2385 -1497.9,-96.6 -970.7,2152.6 c 806.9,153.6 1370.8,904.9 1278,1734.1 94.7,-848 839.8,-1463.1 1682.4,-1405.1"
         style="fill:#000072;fill-opacity:1;fill-rule:nonzero;stroke:none"
         id="path124" /><path
         d="m 23332.1,18548.6 821.9,-1822.6 1217.2,78.5 414.3,2008.9 c -562.6,39.5 -1059.9,342.4 -1357.5,796.4 -186.1,-490.3 -584,-888.4 -1095.9,-1061.2 z m 700.7,-2217.4 c -75.6,0 -144.8,44.3 -176.2,113.9 l -970.7,2152.5 c -24.3,54 -22.5,116.1 4.8,168.6 27.3,52.5 77.1,89.6 135.3,100.7 709.3,135.1 1202.1,803.4 1122.2,1521.8 l -0.2,1 c -11.8,106.1 64.6,201.7 170.7,213.5 105.8,12.1 201.6,-64.5 213.5,-170.5 l 0.1,-1 c 83.4,-742.6 732.3,-1284.5 1477,-1232.8 60.4,4 119,-20.2 158.8,-65.7 39.8,-45.5 55.9,-107 43.7,-166.1 l -491.8,-2385 c -17.6,-85.3 -90,-148.2 -176.9,-153.8 l -1497.8,-96.7 c -4.2,-0.2 -8.4,-0.4 -12.5,-0.4"
         style="fill:#000072;fill-opacity:1;fill-rule:nonzero;stroke:none"
         id="path126" /><path
         d="m 24920.5,15592.9 v 0 c -410.1,-53.6 -786.1,235.4 -839.7,645.5 l -131.6,1006.1 c -53.6,410.1 235.3,786.1 645.5,839.7 410.1,53.7 786,-235.3 839.7,-645.5 l 131.6,-1006.1 c 53.6,-410.1 -235.4,-786 -645.5,-839.7"
         style="fill:#ff48a0;fill-opacity:1;fill-rule:nonzero;stroke:none"
         id="path128" /><path
         d="m 24692.2,17897.3 c -24,0 -48.1,-1.5 -72.5,-4.7 -303.8,-39.8 -518.6,-319.3 -478.9,-623 l 131.6,-1006.1 c 19.3,-147.2 94.7,-278.1 212.4,-368.5 117.6,-90.5 263.5,-129.7 410.7,-110.5 h -0.1 c 303.8,39.8 518.7,319.3 479,623.1 l -131.7,1006.1 c -36.5,279.4 -275.9,483.6 -550.5,483.6 z m 228.3,-2304.4 h 0.5 z m -99,-199.7 c -206.4,0 -406,67.4 -572.3,195.3 -199.5,153.4 -327.4,375.3 -360,624.8 l -131.6,1006.1 c -67.4,515.1 296.9,989.1 812,1056.4 515,67.3 989,-296.9 1056.4,-812 l 131.6,-1006.1 c 67.4,-515.1 -296.9,-989 -812,-1056.4 v 0 c -41.5,-5.5 -83,-8.1 -124.1,-8.1"
         style="fill:#000072;fill-opacity:1;fill-rule:nonzero;stroke:none"
         id="path130" /><path
         d="m 23609.2,5522.2 c -1.6,42.5 0.8,93.7 3.5,140.9 1.9,48.4 5.6,96.7 9.4,145.2 6.9,96.9 17.5,194.5 23.5,293 6.5,98.5 10.4,197.9 10.4,298.4 2.8,101.3 -3.6,202.1 -5.1,308.1 v 1 c -0.2,12.2 9.6,22.2 21.8,22.4 8,0.1 15.1,-4.1 19,-10.4 56.7,-90.7 104.4,-188.3 140.2,-289.7 36.5,-101.4 64.7,-206.2 83.6,-312.5 19.2,-106.2 33.4,-214.2 32.3,-322.3 -0.2,-54.1 -2.7,-108.2 -9.7,-162.1 -6.7,-54.9 -15.6,-105.8 -33.6,-164.6 -24.3,-79.6 -108.6,-124.5 -188.2,-100.1 -63.1,19.2 -104.4,76.1 -106.7,138.5 l -0.4,14.2"
         style="fill:#000072;fill-opacity:1;fill-rule:nonzero;stroke:none"
         id="path132" /><path
         d="m 24553,5653.7 c -4.2,39.2 -5.1,87.8 -5.1,132.2 -1.1,45.6 0.1,91.3 1,137.2 l 9.8,278.1 c 2,93.5 3.5,188.1 1.4,283.6 0.4,96.2 -5.4,192.3 -5.8,292.9 v 0.8 c -0.1,12.2 9.8,22.2 22.1,22.3 7.8,0 14.7,-4.1 18.7,-10.1 111,-170 185,-362.1 232.4,-559.8 23.8,-99 42.3,-199.9 47.4,-301.8 2.9,-51 3.2,-102.2 -0.4,-153.5 -3.6,-52.4 -9.3,-100.6 -23.7,-157.8 -20.3,-80.8 -102.2,-129.8 -183,-109.5 -62.9,15.9 -106.6,69 -113.2,129.9 l -1.6,15.5"
         style="fill:#000072;fill-opacity:1;fill-rule:nonzero;stroke:none"
         id="path134" /><path
         d="m 28275.5,7736 c -27.7,46.6 -44,85.5 -59.6,129.5 -15.5,42.7 -27.3,86.4 -36.3,130.3 -19,87.9 -25.4,177.8 -27.3,267.1 -2.6,178.5 16.6,357.1 72.4,527.4 3.9,11.9 16.6,18.3 28.4,14.4 6.9,-2.2 12,-7.5 14.2,-13.9 l 0.2,-0.7 c 29.1,-84.1 51.4,-166.1 77.3,-246.5 23.5,-80.6 49.8,-159.3 74.4,-237.2 25.1,-77.8 53.7,-153.6 76.2,-229.8 11.4,-38.1 23.1,-75.8 32.4,-114 9.8,-36.7 20.3,-78.1 24.2,-110.1 l 2.6,-21.3 c 10,-82.6 -48.7,-157.7 -131.3,-167.8 -61.1,-7.5 -118.2,22.9 -147.8,72.6"
         style="fill:#000072;fill-opacity:1;fill-rule:nonzero;stroke:none"
         id="path136" /><path
         d="m 29314.5,7861.6 c -21,24 -34.1,41.4 -48.4,62.3 -13.8,20.4 -26.4,40.6 -37.8,61.7 -23.3,41.7 -42.8,85 -58.9,129.2 -33.1,88.3 -52.5,180.8 -64.6,273.2 -11.6,92.5 -16.6,185.3 -10.9,277.5 4.9,92.1 19.6,183.3 44.6,271.6 3.4,11.9 15.8,18.8 27.7,15.4 7.1,-2 12.4,-7.1 14.8,-13.5 l 0.4,-0.9 c 32,-85.1 57.7,-167.3 89.3,-246.8 28.7,-79.9 62.3,-156.6 94.9,-231.8 33,-75.2 71.3,-146.8 104.5,-218.8 16.8,-36.1 34.3,-71.3 49.6,-107.4 8.6,-17.3 15.6,-35.8 23.6,-52.9 6.7,-17.1 16,-37 18.7,-49.2 l 8.9,-39.6 c 17.9,-79.9 -32.4,-159.2 -112.3,-177.1 -54.8,-12.3 -109.4,7.7 -144.1,47.1"
         style="fill:#000072;fill-opacity:1;fill-rule:nonzero;stroke:none"
         id="path138" /><path
         d="m 21277.1,21897.6 c -68.9,-564.4 186.8,-1060 571.3,-1107 384.4,-47 752,372.5 821,936.9 69,564.4 -186.8,1060 -571.2,1107 -384.5,47 -752.1,-372.4 -821.1,-936.9"
         style="fill:#000072;fill-opacity:1;fill-rule:nonzero;stroke:none"
         id="path140" /><path
         d="m 21963.3,22004.8 c -20.2,-164.9 54.5,-309.6 166.8,-323.3 112.3,-13.8 219.7,108.7 239.8,273.6 20.2,164.9 -54.5,309.6 -166.8,323.3 -112.3,13.8 -219.7,-108.8 -239.8,-273.6"
         style="fill:#ffffff;fill-opacity:1;fill-rule:nonzero;stroke:none"
         id="path142" /><path
         d="m 26854.7,22528.3 c 134.4,-552.5 -61.8,-1074.6 -438.2,-1166.1 -376.3,-91.5 -790.3,282.2 -924.7,834.7 -134.3,552.5 61.9,1074.6 438.2,1166.1 376.4,91.5 790.4,-282.2 924.7,-834.7"
         style="fill:#000072;fill-opacity:1;fill-rule:nonzero;stroke:none"
         id="path144" /><path
         d="m 26160.8,22554.6 c 39.2,-161.3 -18.1,-313.8 -128,-340.5 -110,-26.8 -230.9,82.4 -270.1,243.8 -39.3,161.3 18,313.8 128,340.6 109.9,26.7 230.8,-82.5 270.1,-243.9"
         style="fill:#ffffff;fill-opacity:1;fill-rule:nonzero;stroke:none"
         id="path146" /><path
         d="m 16157.1,21163 c 0,0 1787.7,2512.5 2705.8,2029.3 918,-483.2 -193.3,-4880 -193.3,-4880 L 16157.1,21163"
         style="fill:#d5b3f5;fill-opacity:1;fill-rule:nonzero;stroke:none"
         id="path148" /><path
         d="m 12738.6,21756.8 -3357.09,-1781 c 0,0 111.62,981.8 335.33,2041.9 255.6,1210.9 657.16,2524.1 1205.96,2592.7 517,64.3 972.2,-655.1 1297.8,-1387.6 322.8,-726.2 518,-1466 518,-1466"
         style="fill:#d5b3f5;fill-opacity:1;fill-rule:nonzero;stroke:none"
         id="path150" /><path
         d="m 18537.2,6428.6 c -3964,420.3 -7405.6,2589.8 -9537.88,5722.2 95.67,133.4 193.75,273 291.84,418 244.96,360.9 492.35,754.2 721.34,1164.9 241.1,433.4 462,886.1 636.4,1341.3 l 5943,-531.5 305.9,-1356.8 467.2,-2073.8 c 0,0 877,-876.9 1186.2,-2419.7 129.5,-644.1 159.9,-1404.1 -14,-2264.6"
         style="fill:#d5b3f5;fill-opacity:1;fill-rule:nonzero;stroke:none"
         id="path152" /><g
         id="g154"><g
           id="g156"
           clip-path="url(#clipPath160)"><path
             d="m 9235.28,6640.8 h 9271.12 v 5747.3 H 9235.28 Z"
             style="fill:#aa8fdb;fill-opacity:1;fill-rule:nonzero;stroke:none"
             id="path162" /></g></g><path
         d="m 9235.28,12148.8 c 2133.92,-3067.5 5452.02,-5065.3 9145.02,-5508 461.6,2684.5 -1135.4,4318.9 -1151.9,4335.5 -25.9,25.8 -43.9,58.5 -51.9,94.2 l -742.1,3293 -5658.6,506.1 c -157.3,-390 -356.9,-803 -594.4,-1229.9 -268.57,-481.8 -586.53,-982.7 -946.12,-1490.9 M 18537.4,6235.3 c -6.8,0 -13.7,0.3 -20.6,1.1 -3921.6,415.8 -7448.8,2531.9 -9677.25,5805.6 -45.66,67.1 -44.55,155.6 2.78,221.5 383.61,534.2 720.52,1060.5 1001.4,1564.3 256.37,460.9 466.57,903.8 624.67,1316.3 30.9,80.7 111.4,131.1 197.7,123.4 l 5943,-531.5 c 83.7,-7.5 152.9,-68.1 171.4,-150 l 761.3,-3378.4 c 272.8,-294.8 1745.9,-2041.2 1184.8,-4817.3 -18.3,-91 -98.3,-155 -189.2,-155"
         style="fill:#000072;fill-opacity:1;fill-rule:nonzero;stroke:none"
         id="path164" /><path
         d="m 16897.8,13186.7 c -778.4,-775.5 -2261.3,-1167.3 -3872.2,-920.4 -1282.8,196.6 -2367.1,755.7 -3013.1,1467.4 241.1,433.4 462,886.1 636.4,1341.3 l 5943,-531.5 305.9,-1356.8"
         style="fill:#ff0068;fill-opacity:1;fill-rule:nonzero;stroke:none"
         id="path166" /><path
         d="m 10249.8,13764.2 c 650.6,-658.4 1663.7,-1131.9 2805.1,-1306.9 1444.9,-221.4 2853.6,89.7 3630.2,793.9 l -250.7,1112.3 -5658.6,506.1 c -142,-352 -318.4,-722.7 -526,-1105.4 m 3739.8,-1765.7 c -323.9,0 -656.6,25.2 -993.3,76.7 -1284.1,196.9 -2423.8,754 -3126.86,1528.6 -55.72,61.4 -66.09,151.4 -25.8,223.8 256.46,461.1 466.66,904 624.76,1316.5 30.9,80.7 111.4,131.1 197.7,123.4 l 5943,-531.5 c 83.7,-7.5 152.9,-68.1 171.4,-150 l 305.8,-1356.8 c 14.6,-64.8 -5.1,-132.5 -52.1,-179.4 -679,-676.5 -1794.8,-1051.3 -3044.6,-1051.3"
         style="fill:#000072;fill-opacity:1;fill-rule:nonzero;stroke:none"
         id="path168" /><path
         d="m 14031.1,11837.7 c 0,-453.6 -367.7,-821.4 -821.4,-821.4 -453.6,0 -821.4,367.8 -821.4,821.4 0,453.7 367.8,821.4 821.4,821.4 453.7,0 821.4,-367.7 821.4,-821.4"
         style="fill:#ffb012;fill-opacity:1;fill-rule:nonzero;stroke:none"
         id="path170" /><path
         d="m 12389.5,11793.5 c -0.9,14.6 -1.2,29.3 -1.2,44.2 0,-14.8 0.4,-29.5 1.2,-44.2 m 1641.5,31.8 c 0,0.1 0,0.3 0,0.4 0,-0.1 0,-0.3 0,-0.4 m 0,2.4 c 0,0.2 0,0.5 0,0.7 0,-0.2 0,-0.5 0,-0.7 m 0.1,2.5 c 0,0.3 0,0.6 0,1 0,-0.4 0,-0.7 0,-1 m 0,2.4 c 0,0.5 0,1 0,1.5 0,-0.5 0,-1 0,-1.5 m 0,2.6 c 0,0.8 0,1.6 0,2.5 0,-0.8 0,-1.7 0,-2.5 m -1642.8,2.5 c 0,0.9 0,1.8 0,2.7 v 0 c 0,-0.9 0,-1.8 0,-2.7 m 1642.8,2.4 v 0 c 0,0.1 0,0.3 0,0.5 v 0 c 0,-0.2 0,-0.4 0,-0.5 m -1642.8,0.7 c 0,0.8 0,1.5 0,2.3 v 0 c 0,-0.7 0,-1.5 0,-2.3 v 0 m 1642.8,2.2 v 0 0.1 0 -0.1 m -1642.8,0.5 c 0,0.8 0,1.6 0.1,2.3 v 0 c -0.1,-0.7 -0.1,-1.5 -0.1,-2.3 v 0 m 0.1,2.4 c 0.9,97.6 18.9,191.1 51,277.7 -1.8,-4.8 -3.5,-9.6 -5.2,-14.5 -28.9,-82.5 -44.9,-171 -45.8,-263.1 0,0 0,0 0,-0.1 m 67.6,318.8 v 0 c 2.1,5 4.3,9.9 6.6,14.9 v 0 c -2.2,-5 -4.5,-9.9 -6.6,-14.9"
         style="fill:#eee1fb;fill-opacity:1;fill-rule:nonzero;stroke:none"
         id="path172" /><path
         d="m 12742.4,12513.3 h -0.1 c 132.7,91.9 293.8,145.8 467.4,145.8 -173.6,0 -334.7,-53.9 -467.3,-145.8"
         style="fill:#ff99c3;fill-opacity:1;fill-rule:nonzero;stroke:none"
         id="path174" /><path
         d="m 12462.6,12179.6 v 0 c 61.8,134.8 159,250 279.7,333.7 h 0.1 c -120.7,-83.7 -218,-198.9 -279.8,-333.7"
         style="fill:#9999c7;fill-opacity:1;fill-rule:nonzero;stroke:none"
         id="path176" /><path
         d="m 12388.3,11837.7 v 0 0 c 0,0.9 0,1.8 0,2.7 0,-0.9 0,-1.8 0,-2.7 m 1642.8,2.4 c 0,0.1 0,0.3 0,0.5 0,-0.2 0,-0.4 0,-0.5 m -1642.8,0.7 c 0,0.8 0,1.6 0,2.3 0,-0.8 0,-1.5 0,-2.3 m 1642.8,2.2 v 0.1 -0.1 m -1642.8,0.5 c 0,0.8 0,1.6 0.1,2.3 -0.1,-0.7 -0.1,-1.5 -0.1,-2.3 m 0.1,2.5 c 0.9,92.1 16.9,180.6 45.8,263.1 -28.8,-82.7 -44.9,-171.2 -45.8,-263.1 m 1494.9,3.4 c -137.8,259.8 -411.2,436.7 -725.8,436.7 -254.4,0 -482,-116 -632.6,-297.8 -29.4,55.3 -52.7,114.4 -68.9,176.4 2.1,5 4.4,9.9 6.6,14.9 61.8,134.8 159.1,250 279.8,333.7 132.6,91.9 293.7,145.8 467.3,145.8 v 0 c 381.2,0 702.2,-260.1 794.6,-612.7 -31,-71.6 -71.9,-137.8 -121,-197"
         style="fill:#ffdfa0;fill-opacity:1;fill-rule:nonzero;stroke:none"
         id="path178" /><path
         d="m 13209.7,11016.3 c -438.9,0 -797.3,344.1 -820.2,777.2 v 0 c 23,-433.1 381.4,-777.2 820.2,-777.2 449.5,0 814.7,361.1 821.3,809 v 0 c -6.6,-448 -371.7,-809 -821.3,-809 m 821.3,809.4 v 0 c 0,0.7 0,1.3 0,2 v 0 c 0,-0.7 0,-1.3 0,-2 m 0,2.7 v 0 c 0.1,0.6 0.1,1.2 0.1,1.8 v 0 c 0,-0.6 0,-1.2 -0.1,-1.8 m 0.1,2.8 v 0 c 0,0.5 0,0.9 0,1.4 v 0 c 0,-0.5 0,-0.9 0,-1.4 m 0,2.9 v 0 c 0,0.3 0,0.7 0,1.1 v 0 c 0,-0.4 0,-0.8 0,-1.1 m 0,3.6 c 0,0.8 0,1.6 0,2.4 0,-0.8 0,-1.6 0,-2.4 m -1642.8,2.7 c 0,0.1 0,0.3 0,0.4 0,-0.1 0,-0.3 0,-0.4 m 1642.8,0.2 c 0,0.8 0,1.6 0,2.4 0,-0.8 0,-1.6 0,-2.4 m 0,2.5 c 0,0.1 0,0.2 0,0.3 -0.4,53.1 -5.8,104.9 -15.7,155.2 0,0 0.1,0 0.2,0 9.8,-50.4 15.1,-102.5 15.5,-155.5 m -1642.8,0 c 0,0.1 0,0.3 0,0.4 0,-0.2 0,-0.3 0,-0.4 m 0.1,2.7 c 0,0.1 0,0.1 0,0.1 0,0 0,0 0,-0.1 m 51,277.8 c 5.2,13.9 10.7,27.7 16.6,41.2 0,0 0,0 0,-0.1 -5.9,-13.5 -11.4,-27.2 -16.6,-41.1"
         style="fill:#aa8fdb;fill-opacity:1;fill-rule:nonzero;stroke:none"
         id="path180" /><path
         d="m 14015.4,11998.6 c -3.2,16.1 -6.9,32.1 -11.1,47.9 0.1,0.1 0.2,0.3 0.2,0.4 4.2,-15.9 7.9,-32 11.1,-48.3 -0.1,0 -0.2,0 -0.2,0"
         style="fill:#000072;fill-opacity:1;fill-rule:nonzero;stroke:none"
         id="path182" /><path
         d="m 13209.7,11016.3 c -438.8,0 -797.2,344.1 -820.2,777.2 0.6,-10.5 1.5,-20.9 2.7,-31.2 32,82.7 77.1,158.8 132.7,226 138.1,-259.6 411.3,-436.2 725.9,-436.2 254.5,0 481.9,115.6 632.5,297.3 49.7,-93.8 81.8,-198.4 91.8,-309.3 34.8,88.6 54.4,184.8 55.9,285.2 -6.6,-447.9 -371.8,-809 -821.3,-809 m 821.3,809.4 c 0,0.7 0,1.3 0,2 0,-0.7 0,-1.3 0,-2 m 0,2.7 c 0.1,0.6 0.1,1.2 0.1,1.8 0,-0.6 0,-1.2 -0.1,-1.8 m 0.1,2.8 c 0,0.5 0,0.9 0,1.4 0,-0.5 0,-0.9 0,-1.4 m 0,2.9 c 0,0.3 0,0.7 0,1.1 0,-0.4 0,-0.8 0,-1.1 m 0,9.3 c -0.5,70.1 -9.8,138.1 -26.8,203 v 0.1 c 4.2,-15.8 7.9,-31.8 11.1,-47.9 9.9,-50.3 15.3,-102.1 15.7,-155.2"
         style="fill:#cc8d25;fill-opacity:1;fill-rule:nonzero;stroke:none"
         id="path184" /><path
         d="m 12389.5,11793.5 v 0 c -0.8,14.7 -1.2,29.4 -1.2,44.2 v 0 0 c 0,-14.8 0.4,-29.6 1.2,-44.2 m 1641.5,31.8 c 0,0.1 0,0.3 0,0.4 v 0 c 0,-0.1 0,-0.3 0,-0.4 v 0 m 0,2.4 c 0,0.3 0,0.5 0,0.7 v 0 c 0,-0.2 0,-0.5 0,-0.7 v 0 m 0.1,2.5 c 0,0.3 0,0.6 0,1 v 0 c 0,-0.4 0,-0.7 0,-1 v 0 m 0,2.4 c 0,0.5 0,1 0,1.5 v 0 c 0,-0.5 0,-1 0,-1.5 v 0 m 0,2.6 c 0,0.8 0,1.6 0,2.5 v 0 0 c 0,-0.9 0,-1.7 0,-2.5 v 0 m 0,2.5 c 0,0.8 0,1.6 0,2.4 v 0 c 0,-0.8 0,-1.6 0,-2.4 v 0 m -1642.8,2.7 v 0 c 0,0.1 0,0.3 0,0.4 v 0 c 0,-0.1 0,-0.3 0,-0.4 m 1642.8,0.2 c 0,0.8 0,1.6 0,2.4 v 0 c 0,-0.8 0,-1.6 0,-2.4 v 0 m 0,2.5 c 0,0.1 0,0.2 0,0.3 0,-0.1 0,-0.2 0,-0.3 v 0 m -1642.8,0 v 0 c 0,0.1 0,0.2 0,0.4 v 0 c 0,-0.1 0,-0.3 0,-0.4 m 0.1,2.7 v 0 c 0,0.1 0,0.1 0,0.1 0,0.1 0,0.1 0,0.1 0,-0.1 0,-0.1 0,-0.2 m 45.8,263.3 c 1.7,4.9 3.4,9.7 5.2,14.5 5.2,13.9 10.7,27.6 16.6,41.1 v 0 c -7.9,-18.2 -15.2,-36.8 -21.8,-55.6"
         style="fill:#beb4e0;fill-opacity:1;fill-rule:nonzero;stroke:none"
         id="path186" /><path
         d="m 13975.1,11540.1 c -10,110.9 -42.1,215.5 -91.8,309.3 49.1,59.2 90,125.4 121,197 17,-64.9 26.3,-132.9 26.8,-203 0,-0.1 0,-0.2 0,-0.3 v -0.1 c 0,-0.8 0,-1.6 0,-2.4 0,-0.2 0,-0.4 0,-0.5 0,-0.8 0,-1.6 0,-2.4 v 0 c 0,-0.9 0,-1.7 0,-2.5 0,-0.4 0,-0.8 0,-1.1 0,-0.5 0,-1 0,-1.5 0,-0.5 0,-0.9 0,-1.4 0,-0.4 0,-0.7 0,-1 0,-0.6 0,-1.2 -0.1,-1.8 0,-0.2 0,-0.4 0,-0.7 0,-0.7 0,-1.3 0,-2 0,-0.1 0,-0.3 0,-0.4 -1.5,-100.4 -21.1,-196.6 -55.9,-285.2 m -1582.9,222.2 c -1.2,10.3 -2.1,20.7 -2.7,31.2 -0.8,14.6 -1.2,29.4 -1.2,44.2 0,0.9 0,1.8 0,2.7 0,0.1 0,0.3 0,0.4 0,0.8 0,1.5 0,2.3 0,0.1 0,0.3 0,0.4 0,0.8 0,1.6 0.1,2.3 0,0.1 0,0.1 0,0.2 0.9,91.9 17,180.4 45.8,263.1 6.6,18.8 13.9,37.4 21.8,55.6 16.2,-62 39.5,-121.1 68.9,-176.4 -55.6,-67.2 -100.7,-143.3 -132.7,-226"
         style="fill:#ccb297;fill-opacity:1;fill-rule:nonzero;stroke:none"
         id="path188" /><path
         d="m 13209.7,12465.8 c -346.3,0 -628.1,-281.7 -628.1,-628.1 0,-346.4 281.8,-628.1 628.1,-628.1 346.4,0 628.1,281.7 628.1,628.1 0,346.4 -281.7,628.1 -628.1,628.1 z m 0,-1642.8 c -559.5,0 -1014.7,455.2 -1014.7,1014.7 0,559.5 455.2,1014.7 1014.7,1014.7 559.5,0 1014.7,-455.2 1014.7,-1014.7 0,-559.5 -455.2,-1014.7 -1014.7,-1014.7"
         style="fill:#000072;fill-opacity:1;fill-rule:nonzero;stroke:none"
         id="path190" /><path
         d="m 13250.8,8314.9 c -59.9,-428.6 -237.8,-816.1 -572.6,-1067.4 -1159.6,-869.7 -1809,1303.2 -1484.3,2415 l -574,538.2 c 0,0 10.6,13.5 31.4,36.7 130.5,145 661.9,662.5 1495.4,537.3 687.6,-102.9 1252.4,-1404.6 1104.1,-2459.8"
         style="fill:#d5b3f5;fill-opacity:1;fill-rule:nonzero;stroke:none"
         id="path192" /><path
         d="m 12162,7046.9 c -655.4,0 -1051.5,1057.6 -1051.6,1961 0,235.9 27,461.2 83.5,654.6 v 0 0 l -454.7,426.3 c 59.3,37.8 125.1,74.7 197.2,108.4 239.2,-57 502.5,-181.6 745.5,-430.4 0,0 -310.7,-1740.4 458.1,-1988.7 71,-23 140.9,-33.4 209.1,-33.4 244.3,0 468.4,133.4 654.7,302.9 -14.6,-217.4 -56.9,-428.2 -131.8,-620.3 211.5,239.7 331.3,551.1 378.7,887.5 0,0 0,0 0.1,0.1 -15.8,-112.6 -39.6,-222.3 -72.3,-327.4 -91.9,-295.3 -253.4,-554.7 -500.3,-740 -185.8,-139.3 -358.5,-200.6 -516.2,-200.6 m -1541.9,3153.6 -0.2,0.2 c 0,0 10.6,13.5 31.4,36.7 0.2,0 0.3,0 0.5,0 -19.5,-21.6 -30.2,-35.1 -31.7,-36.9"
         style="fill:#aa8fdb;fill-opacity:1;fill-rule:nonzero;stroke:none"
         id="path194" /><path
         d="m 13274.6,8665.8 c 0,0.7 0,1.5 0,2.2 0,-0.7 0,-1.5 0,-2.2 m 0,2.3 c -0.5,972.5 -515.5,2015 -1127.9,2106.6 -35.1,5.3 -69.7,9.4 -103.8,12.5 34.1,-3.1 68.8,-7.2 103.9,-12.5 612.2,-91.7 1127.5,-1133.9 1127.8,-2106.6"
         style="fill:#ddd2f1;fill-opacity:1;fill-rule:nonzero;stroke:none"
         id="path196" /><path
         d="m 10738.8,10088.6 -118.8,111.6 c 0,0 0,0.1 0.1,0.3 l 119.1,-111.7 c -0.1,0 -0.3,-0.1 -0.4,-0.2"
         style="fill:#9999c7;fill-opacity:1;fill-rule:nonzero;stroke:none"
         id="path198" /><path
         d="m 13003.8,8047.6 c 68.2,1019.3 -472.4,2187 -1122.3,2284.5 -88.4,13.3 -173.5,19.3 -255,19.3 -270.1,0 -501.5,-66 -690.1,-154.2 -100.2,23.9 -196.2,35.9 -284.6,40.2 117.2,130.1 554.2,556.6 1240,556.6 49.2,0 99.4,-2.2 151.1,-6.8 34.1,-3.1 68.7,-7.2 103.8,-12.5 612.4,-91.6 1127.4,-1134.1 1127.9,-2106.6 v -0.1 c 0,-0.7 0,-1.5 0,-2.2 0,-118.8 -7.7,-236.2 -23.9,-351 -71.5,-90 -154.6,-183.1 -246.9,-267.2"
         style="fill:#eee1fb;fill-opacity:1;fill-rule:nonzero;stroke:none"
         id="path200" /><path
         d="m 12872,7427.3 c 74.9,192.1 117.2,402.9 131.8,620.3 92.3,84.1 175.4,177.2 246.9,267.2 -47.4,-336.4 -167.2,-647.8 -378.7,-887.5 m -2132.8,2661.5 -119.1,111.7 c 1.5,1.8 12.2,15.3 31.7,36.9 88.4,-4.3 184.4,-16.3 284.6,-40.2 -72.1,-33.7 -137.9,-70.6 -197.2,-108.4"
         style="fill:#ddd2f1;fill-opacity:1;fill-rule:nonzero;stroke:none"
         id="path202" /><path
         d="m 10867.6,10208.2 446,-417.8 c 48.1,-45.1 66.8,-113.5 48.3,-176.8 -223.7,-766.2 56.7,-1971.8 535.7,-2303.5 200.3,-138.8 421.2,-113.4 675.6,77.4 581.8,436.4 598.8,1341.7 436.5,1984.3 -169.4,671 -535,1176.8 -888.9,1229.9 -628,94.2 -1061.7,-215.5 -1253.2,-393.5 z M 12160,6872.7 c -161.5,0 -317.4,49.7 -461.6,149.6 -626.1,433.6 -893.2,1742.6 -699.9,2583.7 l -498.3,466.8 c -66,61.9 -74,163.9 -18.4,235.3 25.5,32.6 635.5,797.7 1690.9,639.7 505.2,-75.8 966.9,-660.7 1176.4,-1490.3 197.6,-782.7 152.7,-1811 -565.9,-2349.9 -208.3,-156.3 -420.1,-234.9 -623.2,-234.9"
         style="fill:#000072;fill-opacity:1;fill-rule:nonzero;stroke:none"
         id="path204" /><path
         d="m 17374.7,6604.4 -1334.6,336.3 c 0,0 -511.1,-949.4 -1332.6,-514.6 -316.9,167.7 -521.8,596.8 -590.9,1093.5 -144.9,1031.1 291.9,2354.5 1509,2240.4 947,-88.8 1390.1,-1252.8 1591.6,-2141.4 127,-562.4 157.5,-1014.2 157.5,-1014.2"
         style="fill:#d5b3f5;fill-opacity:1;fill-rule:nonzero;stroke:none"
         id="path206" /><path
         d="m 15133.1,6312.2 c -130.2,0 -272.5,32.9 -425.6,113.9 -316.9,167.7 -521.8,596.8 -590.9,1093.5 14,-20.3 453.1,-652.3 971.2,-652.3 1,0 1.9,0 2.9,0 528.1,2.4 1085.7,421.3 1179.4,910.8 0,0 151.4,-378.3 479.6,-378.3 102.5,0 222.3,37 360.2,134 99.2,-334 162.9,-658.8 202.9,-913.8 l -1272.7,320.7 c 0,0 -38.9,-72.2 -112.4,-167.7 -143.5,-186.2 -418.8,-460.8 -794.6,-460.8 m 2229.6,423.9 c -18.1,174 -59.9,503.1 -145.7,882.3 l 0.2,0.2 c 85.7,-379.4 127.4,-708.5 145.5,-882.5"
         style="fill:#aa8fdb;fill-opacity:1;fill-rule:nonzero;stroke:none"
         id="path208" /><path
         d="m 16835,8746.2 -0.1,0.1 c -237.7,479.9 -576.8,880.4 -1058.3,989.7 481.6,-109.2 820.7,-509.8 1058.4,-989.8 m -2389,463.3 h -0.1 c 227.2,333.4 567.7,557.5 1034.8,557.5 14.7,0 29.6,-0.3 44.6,-0.7 -14.9,0.4 -29.7,0.6 -44.3,0.6 -467.2,0 -807.8,-224 -1035,-557.4 m 1330.2,526.6 c -0.6,0.1 -1.1,0.3 -1.8,0.4 0.6,-0.1 1.2,-0.3 1.8,-0.4 m -2.8,0.6 c -0.3,0.1 -0.7,0.2 -1.1,0.3 0.4,-0.1 0.8,-0.2 1.1,-0.3"
         style="fill:#eee1fb;fill-opacity:1;fill-rule:nonzero;stroke:none"
         id="path210" /><path
         d="m 14090,7932.5 c -0.2,0.1 -0.1,0 -0.3,0.1 4.4,457.7 118.1,927.4 356.2,1276.9 h 0.1 c -238.2,-349.6 -351.9,-819.5 -356,-1277 m 2846.5,590.1 c -0.1,0.3 -0.2,0.6 -0.4,0.9 0.2,-0.2 0.3,-0.6 0.4,-0.9 m -0.5,1.3 c -31.5,75.5 -65.1,149.8 -101.1,222.4 l 0.1,-0.1 c 35.9,-72.5 69.5,-146.9 101,-222.3"
         style="fill:#ddd2f1;fill-opacity:1;fill-rule:nonzero;stroke:none"
         id="path212" /><path
         d="m 17374.7,6604.4 -61.9,15.5 v 0.1 l 61.9,-15.6 v 0 0 0 c 0,0 -3.2,47.8 -12,131.7 8.8,-83.9 12,-131.7 12,-131.7 m -3274.5,1053.8 c -7.9,90.3 -11.4,182.1 -10.5,274.4 0.2,-0.1 0.1,0 0.3,-0.1 -0.8,-91.2 2.8,-181.8 10.5,-270.9 -0.1,-1.1 -0.2,-2.3 -0.3,-3.4"
         style="fill:#9999c7;fill-opacity:1;fill-rule:nonzero;stroke:none"
         id="path214" /><path
         d="m 17109.9,7533.8 c -237.5,800.1 -678.5,1653.4 -1484.3,1729 -49.5,4.7 -97.7,6.9 -144.6,6.9 -876.5,0 -1307.6,-788.3 -1380.5,-1608.1 -7.7,89.1 -11.3,179.7 -10.5,270.9 4.1,457.5 117.8,927.4 356,1277 227.2,333.4 567.8,557.4 1035,557.4 14.6,0 29.4,-0.2 44.3,-0.6 32.8,-1 66.2,-3.1 100.3,-6.3 50.3,-4.7 99.2,-12.5 146.7,-23 0.4,-0.1 0.8,-0.2 1.1,-0.3 0.4,-0.1 0.7,-0.1 1,-0.2 0.7,-0.1 1.2,-0.3 1.8,-0.4 0.1,0 0.3,-0.1 0.4,-0.1 481.5,-109.3 820.6,-509.8 1058.3,-989.7 36,-72.6 69.6,-146.9 101.1,-222.4 0,-0.2 0.1,-0.2 0.1,-0.4 0.2,-0.3 0.3,-0.6 0.4,-0.9 124.8,-299.7 215.3,-616.4 280.5,-904.2 l -0.3,-0.3 c -36.7,-32.1 -72.3,-60.1 -106.8,-84.3"
         style="fill:#eee1fb;fill-opacity:1;fill-rule:nonzero;stroke:none"
         id="path216" /><path
         d="m 17374.7,6604.4 -61.9,15.6 c -40,255 -103.7,579.8 -202.9,913.8 34.5,24.2 70.1,52.2 106.8,84.3 l 0.3,0.3 c 85.8,-379.2 127.6,-708.3 145.7,-882.3 8.8,-83.9 12,-131.7 12,-131.7"
         style="fill:#ddd2f1;fill-opacity:1;fill-rule:nonzero;stroke:none"
         id="path218" /><path
         d="m 15481,9592 c -715.4,0 -1004.9,-597.4 -1115.4,-967.8 -241.1,-807.4 -35.1,-1800.4 423.8,-2043.4 656.1,-347.4 1079.4,410.9 1097.1,443.3 38.2,70.2 119.2,105.9 196.6,86.4 l 1091.7,-275.2 c -85.5,694.2 -426.6,2643.7 -1565.5,2750.5 -44.2,4.2 -87,6.2 -128.3,6.2 z m -347.6,-3455.4 c -157.8,0 -327.9,39.7 -507.7,134.9 -675.8,357.7 -856.2,1579.8 -595.5,2452.9 251.2,841.4 838.6,1282.2 1611.7,1209.9 1675.2,-157.1 1898.5,-3189 1907.2,-3318 3.8,-55.9 -19.4,-110.2 -62.4,-146.1 -43,-35.9 -100.6,-49 -154.9,-35.3 l -1209.1,304.6 c -186.9,-277.2 -537.3,-602.9 -989.3,-602.9"
         style="fill:#000072;fill-opacity:1;fill-rule:nonzero;stroke:none"
         id="path220" /><path
         d="m 15824.4,6957.6 c 25.6,32.1 54.4,74.4 80.3,113.5 26.5,39.9 52.3,80.9 76.7,122.5 48.9,83.3 95.4,169.1 134.9,257.8 78.9,177.2 141,365.7 137.4,569.2 34,-95.5 51.4,-199 58.6,-303.5 6.5,-104.7 1.1,-209.9 -9.1,-315 -10.6,-105.1 -29.1,-209 -51.3,-312.7 -11.1,-51.9 -23.8,-103.4 -37.8,-155 -14.4,-52.5 -27.9,-101 -48.2,-157.8 l -2.7,-7.8 c -36.6,-102.2 -149,-155.5 -251.3,-119 -102.3,36.5 -155.6,149 -119.1,251.2 7.5,20.8 18.6,40.2 31.6,56.6"
         style="fill:#000072;fill-opacity:1;fill-rule:nonzero;stroke:none"
         id="path222" /><path
         d="m 16404.4,21174.7 2163.2,-2454.4 c 94.7,416.4 247.8,1139.4 351.9,1880.4 284.4,2024.8 -40.4,2364.7 -146.7,2420.6 -507.6,267.1 -1655.9,-882.5 -2368.4,-1846.6 M 18669.6,18119 c -54.8,0 -107.8,23.3 -145,65.5 l -2512.5,2850.7 c -59.4,67.3 -64.6,166.7 -12.5,239.8 18.6,26.2 462.5,647.5 1028.7,1219.8 812.2,821 1459.8,1113.3 1924.6,868.5 297.9,-156.8 658.3,-619.6 349,-2819.1 -162.7,-1156.6 -442.1,-2268.2 -444.9,-2279.3 -17.6,-69.5 -72.2,-123.6 -142,-140.5 -15,-3.7 -30.3,-5.4 -45.4,-5.4"
         style="fill:#000072;fill-opacity:1;fill-rule:nonzero;stroke:none"
         id="path224" /><path
         d="m 17369.8,21035.7 757.3,-823.1 c 177.9,846.4 252.1,1605 168.2,1783.7 -152.2,-19.9 -567,-450.7 -925.5,-960.6 m 864.9,-1418.9 c -53.3,0 -105.1,22.1 -142.2,62.4 l -1111.3,1208 c -60.3,65.6 -68,163.9 -18.6,238 9.2,13.8 227.2,339.8 497.7,653.3 422.6,489.9 736.4,674.2 987.2,580.1 275.4,-103.2 332.1,-522.5 195.9,-1447.2 -84.9,-575.7 -215.2,-1123.2 -220.7,-1146.2 -16.6,-69.5 -70.2,-124.2 -139.3,-142.1 -16.1,-4.2 -32.5,-6.3 -48.7,-6.3"
         style="fill:#000072;fill-opacity:1;fill-rule:nonzero;stroke:none"
         id="path226" /><path
         d="m 16404.4,21174.7 2163.2,-2454.4 c 94.7,416.4 247.8,1139.4 351.9,1880.4 284.4,2024.8 -40.4,2364.7 -146.7,2420.6 -507.6,267.1 -1655.9,-882.5 -2368.4,-1846.6 M 18669.6,18119 c -54.8,0 -107.8,23.3 -145,65.5 l -2512.5,2850.7 c -59.4,67.3 -64.6,166.7 -12.5,239.8 18.6,26.2 462.5,647.5 1028.7,1219.8 812.2,821 1459.8,1113.3 1924.6,868.5 297.9,-156.8 658.3,-619.6 349,-2819.1 -162.7,-1156.6 -442.1,-2268.2 -444.9,-2279.3 -17.6,-69.5 -72.2,-123.6 -142,-140.5 -15,-3.7 -30.3,-5.4 -45.4,-5.4"
         style="fill:#000072;fill-opacity:1;fill-rule:nonzero;stroke:none"
         id="path228" /><path
         d="m 10986.6,24420.9 c -13.3,0 -26.5,-0.8 -39.7,-2.4 -119.2,-14.8 -543,-218.3 -991.38,-2213.1 -164.13,-730.1 -276,-1460.7 -334.33,-1883.6 l 2890.21,1533.1 c -319,1126.8 -964.5,2566 -1524.8,2566 M 9381.75,19782.7 c -38.15,0 -76.15,11.3 -108.83,33.5 -59.27,40.4 -91.32,110.3 -83.23,181.5 1.31,11.4 132.11,1150.1 388.08,2289.7 486.83,2167.2 987.23,2473.1 1321.43,2514.7 521.1,64.9 1023.9,-437.1 1494.2,-1491.9 327.8,-735.3 523.9,-1473.2 532.1,-1504.3 22.9,-86.8 -17,-177.9 -96.3,-220 L 9472.31,19805.2 c -28.41,-15.1 -59.54,-22.5 -90.56,-22.5"
         style="fill:#000072;fill-opacity:1;fill-rule:nonzero;stroke:none"
         id="path230" /><path
         d="m 11030.9,23289.8 c -141.4,-140.3 -339.1,-874.7 -470.9,-1727.2 l 999,502.9 c -154.5,599.8 -388.9,1146 -528.1,1224.3 m -713.7,-2259.1 c -39.2,0 -78.3,11.9 -111.5,35.4 -58.4,41.2 -89.2,111.3 -80.2,182.1 2.9,23.5 74.2,581.8 198,1150.4 198.6,912.6 399.6,1285 693.3,1285 h 0.6 c 268,-0.5 496.5,-283.7 719,-891.2 142.5,-388.8 231.5,-770.8 235.2,-786.8 20.1,-86.8 -21.8,-176.1 -101.4,-216.2 l -1466.1,-738.1 c -27.4,-13.8 -57.2,-20.6 -86.9,-20.6"
         style="fill:#000072;fill-opacity:1;fill-rule:nonzero;stroke:none"
         id="path232" /><path
         d="m 10986.6,24420.9 c -13.3,0 -26.5,-0.8 -39.7,-2.4 -119.2,-14.8 -543,-218.3 -991.38,-2213.1 -164.13,-730.1 -276,-1460.7 -334.33,-1883.6 l 2890.21,1533.1 c -319,1126.8 -964.5,2566 -1524.8,2566 M 9381.75,19782.7 c -38.15,0 -76.15,11.3 -108.83,33.5 -59.27,40.4 -91.32,110.3 -83.23,181.5 1.31,11.4 132.11,1150.1 388.08,2289.7 486.83,2167.2 987.23,2473.1 1321.43,2514.7 521.1,64.9 1023.9,-437.1 1494.2,-1491.9 327.8,-735.3 523.9,-1473.2 532.1,-1504.3 22.9,-86.8 -17,-177.9 -96.3,-220 L 9472.31,19805.2 c -28.41,-15.1 -59.54,-22.5 -90.56,-22.5"
         style="fill:#000072;fill-opacity:1;fill-rule:nonzero;stroke:none"
         id="path234" /><path
         d="m 17123.4,21018 c 0,0 869.7,1304.6 1256.3,1159.7 386.5,-145 -145,-2367.6 -145,-2367.6 L 17123.4,21018"
         style="fill:#fa509c;fill-opacity:1;fill-rule:nonzero;stroke:none"
         id="path236" /><path
         d="m 11783.3,21962 c 0,0 -353.4,1527.6 -766.2,1528.4 -412.9,0.7 -699.9,-2266.4 -699.9,-2266.4 l 1466.1,738"
         style="fill:#fa509c;fill-opacity:1;fill-rule:nonzero;stroke:none"
         id="path238" /><path
         d="m 17282.5,21029.8 882.5,-959.3 c 44.3,205.5 108.4,522.8 157.6,847.4 155.6,1028.1 12.7,1142.6 11.3,1143.6 -163.1,61.5 -670.6,-480.3 -1051.4,-1031.7 m 952.2,-1344.7 c -34.5,0 -68,14.3 -92,40.4 l -1111.3,1207.9 c -39,42.4 -44,106 -12,154 217,325.4 959.4,1374 1404.2,1207.3 166.2,-62.3 314.2,-274.2 152.2,-1373.4 -84.4,-572.6 -218.2,-1134.7 -219.5,-1140.3 -10.7,-44.9 -45.4,-80.3 -90.1,-91.9 -10.4,-2.7 -21,-4 -31.5,-4"
         style="fill:#000072;fill-opacity:1;fill-rule:nonzero;stroke:none"
         id="path240" /><path
         d="m 11016.8,23365.4 c 0.4,-0.3 -173.7,-57 -390.8,-1073.9 -68.6,-321.1 -120.6,-640.6 -151.7,-848.5 l 1164.3,586.1 c -161.9,650.4 -445.8,1335.9 -621.8,1336.3 M 10317.2,21099 c -25.4,0 -50.6,7.7 -72.1,22.9 -37.8,26.7 -57.7,71.9 -51.9,117.8 0.7,5.7 73.9,578.8 197,1144.4 236,1084.3 449.1,1231.3 626.5,1231.3 h 0.6 c 475.1,-0.9 799.6,-1244.2 887.8,-1625.2 13,-56.1 -14.1,-113.9 -65.6,-139.8 l -1466.1,-738.1 c -17.7,-8.9 -37,-13.3 -56.2,-13.3"
         style="fill:#000072;fill-opacity:1;fill-rule:nonzero;stroke:none"
         id="path242" /><path
         d="m 9752.99,21173.6 c 53.96,314.2 120.01,662.6 197.99,1011.5 117.92,81.8 245.52,166.3 380.62,250.3 -2.7,-12.2 -5.4,-24.5 -8.1,-36.8 -67.8,-311.5 -119.9,-620 -153.6,-839.1 -145.6,-121.1 -284.64,-249.8 -416.91,-385.9"
         style="fill:#aa8fdb;fill-opacity:1;fill-rule:nonzero;stroke:none"
         id="path244" /><path
         d="m 10169.9,21559.5 c 33.7,219.1 85.8,527.6 153.6,839.1 2.7,12.3 5.4,24.6 8.1,36.8 26.7,16.7 53.8,33.3 81.2,49.9 -7.5,-32.8 -15.1,-66.6 -22.6,-101.2 -59.5,-273.1 -107.2,-547.9 -140.9,-759.7 -26.7,-21.4 -53.1,-43 -79.4,-64.9"
         style="fill:#000072;fill-opacity:1;fill-rule:nonzero;stroke:none"
         id="path246" /><path
         d="m 9513.07,20909.8 c 52.3,327 120.22,712 203.77,1107.9 72.86,53.7 151.13,109.9 234.14,167.4 -77.98,-348.9 -144.03,-697.3 -197.99,-1011.5 -82.76,-85.2 -162.8,-173.1 -239.92,-263.8"
         style="fill:#000072;fill-opacity:1;fill-rule:nonzero;stroke:none"
         id="path248" /><path
         d="m 11834.2,22503 c -28.7,92.1 -61.5,190.5 -97.8,289.4 -36.9,101 -74.1,193 -111.6,276.2 133,45.5 267.2,84.6 401.6,115.5 81.3,-177.6 158.3,-364.3 229.2,-552.9 -142.7,-37.1 -283,-79.8 -421.4,-128.2"
         style="fill:#aa8fdb;fill-opacity:1;fill-rule:nonzero;stroke:none"
         id="path250" /><path
         d="m 11772.9,22481.1 c -56.5,183.3 -127.4,384.2 -211.3,565.4 21,7.5 42.1,14.9 63.2,22.1 37.5,-83.2 74.7,-175.2 111.6,-276.2 36.3,-98.9 69.1,-197.3 97.8,-289.4 -20.4,-7.2 -40.9,-14.5 -61.3,-21.9"
         style="fill:#000072;fill-opacity:1;fill-rule:nonzero;stroke:none"
         id="path252" /><path
         d="m 12255.6,22631.2 c -70.9,188.6 -147.9,375.3 -229.2,552.9 64.8,14.8 129.5,27.8 194.2,38.7 82.5,-185.6 156.6,-372 221.3,-546.7 -62.4,-13.9 -124.6,-28.8 -186.3,-44.9"
         style="fill:#000072;fill-opacity:1;fill-rule:nonzero;stroke:none"
         id="path254" /><path
         d="m 10538.9,21840.7 c 24.8,141.7 54,296.1 87.1,450.8 29.8,139.7 58.8,261.3 86.7,367 195.8,107.4 402.1,208.9 613.8,296.9 73.5,-162 146.5,-358.9 211.2,-566.2 -352.3,-147.3 -687.2,-331.6 -998.8,-548.5"
         style="fill:#c84094;fill-opacity:1;fill-rule:nonzero;stroke:none"
         id="path256" /><path
         d="m 10249.3,21624.4 c 33.7,211.8 81.4,486.6 140.9,759.7 7.5,34.6 15.1,68.4 22.6,101.2 96.6,58.6 196.8,116.7 299.9,173.2 -27.9,-105.7 -56.9,-227.3 -86.7,-367 -33.1,-154.7 -62.3,-309.1 -87.1,-450.8 -98.9,-68.9 -195.5,-141 -289.6,-216.3 m 1288.4,764.8 c -64.7,207.3 -137.7,404.2 -211.2,566.2 77.7,32.3 156.1,62.8 235.1,91.1 83.9,-181.2 154.8,-382.1 211.3,-565.4 -79.2,-28.8 -157.7,-59.5 -235.2,-91.9"
         style="fill:#000072;fill-opacity:1;fill-rule:nonzero;stroke:none"
         id="path258" /><path
         d="m 18702,19346.9 c -72.7,188.6 -155.8,372.7 -248.8,551.1 44.7,200.5 129.2,599.7 190.2,1013.4 12.9,88.1 24.2,171.5 33.6,250.6 96.8,-122.5 186.9,-243.5 269.5,-359.5 -8.3,-65.3 -17.3,-132.6 -27,-201.8 -62.6,-445.3 -142.8,-884.1 -217.5,-1253.8"
         style="fill:#aa8fdb;fill-opacity:1;fill-rule:nonzero;stroke:none"
         id="path260" /><path
         d="m 18453.2,19898 c -16.2,31.2 -32.8,62.2 -49.6,93 46.9,216.2 119.3,571.2 172.2,930.3 16.9,114.8 30.5,219.8 40.9,316.1 20.4,-25.2 40.5,-50.3 60.3,-75.4 -9.4,-79.1 -20.7,-162.5 -33.6,-250.6 -61,-413.7 -145.5,-812.9 -190.2,-1013.4"
         style="fill:#000072;fill-opacity:1;fill-rule:nonzero;stroke:none"
         id="path262" /><path
         d="m 18855.9,18885.7 c -44.4,156.4 -95.8,310.3 -153.9,461.2 74.7,369.7 154.9,808.5 217.5,1253.8 9.7,69.2 18.7,136.5 27,201.8 75.5,-106 144.8,-207.9 207.5,-303.2 -93.8,-636.7 -215.1,-1233.7 -298.1,-1613.6"
         style="fill:#000072;fill-opacity:1;fill-rule:nonzero;stroke:none"
         id="path264" /><path
         d="m 17212.8,21472.4 c -111.7,97.3 -227.7,190.1 -347.6,278.2 185.7,215.1 382.3,423.9 578.4,609.4 114.4,-77.8 225.8,-162.9 333.6,-253.2 -98.4,-87.9 -203.8,-197.2 -316.9,-328.3 -90.3,-104.7 -174.8,-210.7 -247.5,-306.1"
         style="fill:#aa8fdb;fill-opacity:1;fill-rule:nonzero;stroke:none"
         id="path266" /><path
         d="m 17262,21429 c -16.3,14.6 -32.7,29.1 -49.2,43.4 72.7,95.4 157.2,201.4 247.5,306.1 113.1,131.1 218.5,240.4 316.9,328.3 17.6,-14.8 35.2,-29.7 52.6,-44.7 -205.8,-178.5 -409.3,-423 -567.8,-633.1"
         style="fill:#000072;fill-opacity:1;fill-rule:nonzero;stroke:none"
         id="path268" /><path
         d="m 16865.2,21750.6 c -62,45.5 -124.8,89.5 -188.9,132.5 156.3,190.2 344,406.3 547.2,614.8 74.5,-42.7 147.9,-88.9 220.1,-137.9 -196.1,-185.5 -392.7,-394.3 -578.4,-609.4"
         style="fill:#000072;fill-opacity:1;fill-rule:nonzero;stroke:none"
         id="path270" /><path
         d="m 18214.8,20310.1 c -219.3,343.1 -477,660.7 -768.3,946.3 192.3,254 398.4,487.6 568.4,637.9 131.2,-124.5 256.2,-255.3 373.9,-387.8 -9.2,-151.8 -29.3,-344.5 -66.2,-588.6 -32.8,-216.1 -72.1,-429 -107.8,-607.8"
         style="fill:#c84094;fill-opacity:1;fill-rule:nonzero;stroke:none"
         id="path272" /><path
         d="m 18403.6,19991 c -59.3,108.6 -122.3,215 -188.8,319.1 35.7,178.8 75,391.7 107.8,607.8 36.9,244.1 57,436.8 66.2,588.6 79.3,-89.3 155.4,-179.4 227.9,-269.1 -10.4,-96.3 -24,-201.3 -40.9,-316.1 -52.9,-359.1 -125.3,-714.1 -172.2,-930.3 m -957.1,1265.4 c -60.1,58.9 -121.6,116.5 -184.5,172.6 158.5,210.1 362,454.6 567.8,633.1 63,-54.4 124.7,-110.4 185.1,-167.8 -170,-150.3 -376.1,-383.9 -568.4,-637.9"
         style="fill:#000072;fill-opacity:1;fill-rule:nonzero;stroke:none"
         id="path274" /><path
         d="m 18999.6,16636.5 c -434.7,-2930 -3020.5,-3996.9 -5950.5,-3562.2 -2929.9,434.7 -5094.54,2206.5 -4659.82,5136.4 434.71,2930 3162.32,4952.8 6092.32,4518.1 2929.9,-434.7 4952.7,-3162.3 4518,-6092.3"
         style="fill:#d5b3f5;fill-opacity:1;fill-rule:nonzero;stroke:none"
         id="path276" /><path
         d="m 8264.89,17963.4 c 8.22,86.5 19.33,173.9 32.37,262.4 132.09,890.8 476.24,1697.7 973.6,2377.2 -9.6,-65.4 -18.38,-126.8 -26.28,-183.3 -318.09,-471.8 -564.46,-999.8 -721.07,-1570.7 -109.9,-283 -196.99,-578.9 -258.62,-885.6"
         style="fill:#9af0ff;fill-opacity:1;fill-rule:nonzero;stroke:none"
         id="path278" /><path
         d="m 9244.58,20419.7 c 7.9,56.5 16.68,117.9 26.28,183.3 77.07,105.3 157.99,207.8 242.21,306.8 -8.64,-54 -16.84,-106.4 -24.63,-157 -85.31,-107.6 -166.74,-218.7 -243.86,-333.1"
         style="fill:#9999c7;fill-opacity:1;fill-rule:nonzero;stroke:none"
         id="path280" /><path
         d="m 12644.9,22684.6 c -3.7,10.1 -7.3,20.2 -11.1,30.3 313.3,57.5 634.9,87.4 961.4,87.4 262,0 526.9,-19.2 793.9,-58.8 34.2,-5.1 68.3,-10.5 102.2,-16.2 -3.2,0.5 -6.5,1 -9.7,1.5 -266.9,39.6 -532,58.8 -793.9,58.8 -354.9,0 -703.8,-35.3 -1042.8,-103"
         style="fill:#9af0ff;fill-opacity:1;fill-rule:nonzero;stroke:none"
         id="path282" /><path
         d="m 12454.1,22642.9 c -4,11 -8.1,22.1 -12.2,33.2 63.7,14.1 127.6,27 191.9,38.8 3.8,-10.1 7.4,-20.2 11.1,-30.3 -63.9,-12.7 -127.6,-26.6 -190.8,-41.7"
         style="fill:#9999c7;fill-opacity:1;fill-rule:nonzero;stroke:none"
         id="path284" /><path
         d="m 9729.81,21036.4 c 7.47,44.9 15.18,90.6 23.18,137.2 132.27,136.1 271.31,264.8 416.91,385.9 -6,-38.7 -11.3,-74.7 -16.1,-107.3 -148.6,-130.5 -290.32,-269.4 -423.99,-415.8"
         style="fill:#ddd2f1;fill-opacity:1;fill-rule:nonzero;stroke:none"
         id="path286" /><path
         d="m 10153.8,21452.2 c 4.8,32.6 10.1,68.6 16.1,107.3 26.3,21.9 52.7,43.5 79.4,64.9 -5.8,-36.6 -11.2,-71.4 -16.1,-103.9 -26.8,-22.6 -53.1,-45.2 -79.4,-68.3"
         style="fill:#9999c7;fill-opacity:1;fill-rule:nonzero;stroke:none"
         id="path288" /><path
         d="m 9488.44,20752.8 c 7.79,50.6 15.99,103 24.63,157 77.12,90.7 157.16,178.6 239.92,263.8 -8,-46.6 -15.71,-92.3 -23.18,-137.2 -83.66,-91.7 -164.02,-186.1 -241.37,-283.6"
         style="fill:#9999c7;fill-opacity:1;fill-rule:nonzero;stroke:none"
         id="path290" /><path
         d="m 11847.6,22459.9 c -4.4,14.2 -8.8,28.6 -13.4,43.1 138.4,48.4 278.7,91.1 421.4,128.2 4.5,-11.9 9,-23.9 13.4,-35.8 -142.8,-39.5 -283.2,-84.7 -421.4,-135.5"
         style="fill:#ddd2f1;fill-opacity:1;fill-rule:nonzero;stroke:none"
         id="path292" /><path
         d="m 11786.4,22437 c -4.4,14.5 -8.9,29.3 -13.5,44.1 20.4,7.4 40.9,14.7 61.3,21.9 4.6,-14.5 9,-28.9 13.4,-43.1 -20.5,-7.5 -40.9,-15.2 -61.2,-22.9"
         style="fill:#9999c7;fill-opacity:1;fill-rule:nonzero;stroke:none"
         id="path294" /><path
         d="m 12269,22595.4 c -4.4,11.9 -8.9,23.9 -13.4,35.8 61.7,16.1 123.9,31 186.3,44.9 4.1,-11.1 8.2,-22.2 12.2,-33.2 -62.1,-14.8 -123.7,-30.6 -185.1,-47.5"
         style="fill:#9999c7;fill-opacity:1;fill-rule:nonzero;stroke:none"
         id="path296" /><path
         d="m 10523,21748.7 c 5.1,30 10.4,60.6 15.9,92 311.6,216.9 646.5,401.2 998.8,548.5 4.9,-15.9 9.8,-31.9 14.7,-47.9 -364.6,-159.3 -710.1,-358.5 -1029.4,-592.6"
         style="fill:#e9b3d4;fill-opacity:1;fill-rule:nonzero;stroke:none"
         id="path298" /><path
         d="m 10233.2,21520.5 c 4.9,32.5 10.3,67.3 16.1,103.9 94.1,75.3 190.7,147.4 289.6,216.3 -5.5,-31.4 -10.8,-62 -15.9,-92 -99.2,-72.7 -195.8,-148.8 -289.8,-228.2 m 1319.2,820.8 c -4.9,16 -9.8,32 -14.7,47.9 77.5,32.4 156,63.1 235.2,91.9 4.6,-14.8 9.1,-29.6 13.5,-44.1 -78.9,-30.1 -156.9,-62 -234,-95.7"
         style="fill:#9999c7;fill-opacity:1;fill-rule:nonzero;stroke:none"
         id="path300" /><path
         d="m 18860.4,16383.4 c 276.4,2826.1 -1711.4,5401.9 -4551.5,5823.2 -266.7,39.6 -531.8,58.8 -793.7,58.8 -157.4,0 -313.6,-7 -468.3,-20.6 v -0.5 c 15,-136.7 -198.6,-272.5 -477.4,-302.9 -38.1,-4.2 -75.5,-6.2 -111.7,-6.2 -180.4,0 -330,50.1 -390.8,129.4 -1599,-450.9 -2928.79,-1632.9 -3543.49,-3215.6 156.61,570.9 402.98,1098.9 721.07,1570.7 v 0 c 77.12,114.4 158.55,225.5 243.86,333.1 77.35,97.5 157.71,191.9 241.37,283.6 133.67,146.4 275.39,285.3 423.99,415.8 26.3,23.1 52.6,45.7 79.4,68.3 94,79.4 190.6,155.5 289.8,228.2 319.3,234.1 664.8,433.3 1029.4,592.6 77.1,33.7 155.1,65.6 234,95.7 20.3,7.7 40.7,15.4 61.2,22.9 138.2,50.8 278.6,96 421.4,135.5 61.4,16.9 123,32.7 185.1,47.5 63.2,15.1 126.9,29 190.8,41.7 v 0 c 339,67.7 687.9,103 1042.8,103 261.9,0 527,-19.2 793.9,-58.8 3.2,-0.5 6.5,-1 9.7,-1.5 2874.7,-481.9 4845.8,-3180.4 4416,-6076.2 -13.5,-90.8 -29,-180.2 -46.9,-267.7"
         style="fill:#eee1fb;fill-opacity:1;fill-rule:nonzero;stroke:none"
         id="path302" /><path
         d="m 17016.6,13538.6 -17.3,76.6 c 1018.3,566.2 1745.9,1521.5 1982,2906.2 37.8,-37.2 76.3,-73.7 115.5,-109.7 -262.2,-1384.4 -1025.5,-2328.2 -2080.2,-2873.1"
         style="fill:#02aee3;fill-opacity:1;fill-rule:nonzero;stroke:none"
         id="path304" /><path
         d="m 19185.2,17666.3 c -6.1,6.1 -11.8,11.8 -17.9,17.9 3.7,38.9 7,77.8 9.9,116.6 3.2,-44.7 5.9,-89.5 8,-134.5"
         style="fill:#cc763e;fill-opacity:1;fill-rule:nonzero;stroke:none"
         id="path306" /><path
         d="m 19164,16877.9 c -36.5,38.5 -72.2,77.6 -107.1,117.4 29.7,129.5 54.9,263.4 75.4,401.1 14.4,96.2 25.9,192.1 35,287.8 6.1,-6.1 11.8,-11.8 17.9,-17.9 12.2,-259.5 5.5,-522.8 -21.2,-788.4"
         style="fill:#a35e48;fill-opacity:1;fill-rule:nonzero;stroke:none"
         id="path308" /><path
         d="m 19096.8,16411.7 c -39.2,36 -77.7,72.5 -115.5,109.7 6.5,38 12.6,76.5 18.3,115.1 12.5,84 22.9,168 31.4,251.6 9,35.6 17.6,71.1 25.9,107.2 34.9,-39.8 70.6,-78.9 107.1,-117.4 -8.5,-85.1 -19.1,-170.5 -31.7,-256.1 -10.6,-71.1 -22.4,-141.1 -35.5,-210.1"
         style="fill:#000072;fill-opacity:1;fill-rule:nonzero;stroke:none"
         id="path310" /><path
         d="m 14406.1,12966.2 c -318.4,0 -644.3,20.1 -975.6,59.8 285.8,-29.9 567.5,-45 843.4,-45 865.2,0 1672.7,148.7 2369.1,457 l 14.7,-65 c -669.2,-274.3 -1434.7,-406.8 -2251.6,-406.8"
         style="fill:#cc006a;fill-opacity:1;fill-rule:nonzero;stroke:none"
         id="path312" /><path
         d="m 16657.7,13373 -14.7,65 c 122.2,54.1 241.2,113.2 356.3,177.2 l 17.3,-76.6 c -116.1,-59.9 -236.1,-115.2 -358.9,-165.6"
         style="fill:#000072;fill-opacity:1;fill-rule:nonzero;stroke:none"
         id="path314" /><path
         d="m 14273.9,12981 c -275.9,0 -557.6,15.1 -843.4,45 -82.6,9.9 -165.4,21.1 -248.5,33.4 -2816.5,417.9 -4925.53,2070.9 -4698.92,4800.8 195.68,-2268.5 2159.82,-3649.4 4698.92,-4026.3 416.6,-61.8 826.6,-93.2 1224.1,-93.2 2230,0 4077.3,987.9 4624.9,3147.4 -8.5,-83.6 -18.9,-167.6 -31.4,-251.6 -5.7,-38.6 -11.8,-77.1 -18.3,-115.1 -236.1,-1384.7 -963.7,-2340 -1982,-2906.2 -115.1,-64 -234.1,-123.1 -356.3,-177.2 -696.4,-308.3 -1503.9,-457 -2369.1,-457"
         style="fill:#aa8fdb;fill-opacity:1;fill-rule:nonzero;stroke:none"
         id="path316" /><path
         d="m 18999.6,16636.5 h 0.5 z M 13691.1,22594 c -2518.1,0 -4730.23,-1847.7 -5110.65,-4411.6 -454.85,-3065.8 2024.85,-4550.1 4497.05,-4916.9 2472.2,-366.9 5276.1,333.6 5730.9,3399.4 418.4,2819.8 -1535.3,5454.3 -4355.2,5872.7 -255.9,38 -510.7,56.4 -762.1,56.4 z m 589.9,-9807.2 c -405.2,0 -826.3,32 -1260.2,96.3 -1558.8,231.3 -2838.5,815 -3700.83,1687.9 -947.64,959.2 -1335.58,2227.7 -1121.87,3668.1 449.66,3030.7 3281.1,5130.4 6311.8,4680.9 3030.7,-449.7 5130.6,-3281.2 4680.9,-6311.9 -213.7,-1440.4 -953.2,-2541.6 -2138.6,-3184.3 -778.3,-422.1 -1721,-637 -2771.2,-637"
         style="fill:#000072;fill-opacity:1;fill-rule:nonzero;stroke:none"
         id="path318" /><path
         d="m 13300.5,17712.9 879.3,-73 c 99.4,-8.3 141.8,-130.6 68.9,-198.7 l -489.6,-456.5 c -50.3,-46.9 -130.3,-39.5 -171,15.9 l -389.7,529.6 c -58.5,79.5 3.8,190.9 102.1,182.7"
         style="fill:#000072;fill-opacity:1;fill-rule:nonzero;stroke:none"
         id="path320" /><path
         d="m 11815.5,17286.2 c 58.9,-127.4 109.9,-229.8 167.5,-321.8 56.7,-91.7 116.5,-172.6 184.4,-245.5 67.4,-72.7 141.2,-139.9 227.5,-191.4 86.9,-51.1 183.1,-83 288.6,-89.1 l 31.7,-0.3 40.6,1 c 28,-0.8 51.5,5 76.7,7.5 49.6,7.5 98,20.8 144.4,38.3 92.6,35.7 178.7,85.1 256.5,146.2 79.2,60.2 147.4,133.3 213.9,214.6 68.9,81.2 137.1,169.2 229.9,283.5 l 0.9,1.1 c 13.2,16.3 37.2,18.8 53.5,5.6 4.1,-3.4 7.5,-7.6 9.8,-12.1 71.4,-137.7 69,-297.7 21.7,-441.3 -49.7,-143.5 -143,-271.5 -257.3,-374.1 -115.6,-101.8 -255,-177.1 -403.4,-217.8 -74,-20.9 -149.9,-34.5 -226,-40.2 -37.8,-2 -77.1,-6.6 -112.5,-4 l -54.2,1.7 -28.2,0.8 -34.8,2.2 c -146.7,15.6 -298.3,54.6 -436.1,119.7 -138.6,64.5 -266.3,157.9 -362.3,278.6 -95.3,120.5 -160.3,265.1 -180.2,414.6 -19.4,149 3.5,302.7 83.2,427.6 10.8,16.9 33.3,21.9 50.2,11.1 6.1,-3.9 10.7,-9.3 13.5,-15.4 l 0.5,-1.1"
         style="fill:#000072;fill-opacity:1;fill-rule:nonzero;stroke:none"
         id="path322" /><path
         d="m 13741.4,17123.8 c 58,-125.3 108.1,-226.4 164.9,-317.3 55.6,-90.4 114.3,-170.5 180.7,-242.6 65.7,-72.2 138,-138.3 221.7,-190.7 83.6,-51.8 179.8,-86.1 279.5,-94.3 l 15,-2.2 c 0.9,0.4 1.3,0.5 2.4,0.1 l 19.8,-0.2 39.6,-0.5 c 26.7,-1.6 51.4,4.3 77,6 50.6,6.3 100,19 147.6,35.8 94.7,34.8 182.9,83.9 262.3,145.6 81,60.3 150.6,134.2 218.2,216.5 69.7,82.3 138.7,171.3 233,287.4 l 0.9,1.1 c 13.3,16.3 37.2,18.8 53.5,5.5 4.2,-3.4 7.5,-7.6 9.8,-12 72.5,-140 69,-302.7 19.3,-448.1 -51.8,-145.4 -148.2,-274.3 -265.7,-376.9 -119,-101.6 -261.9,-175.8 -413.4,-214.1 -75.4,-20 -152.8,-31.9 -230,-36.5 -38.6,-0.9 -77.9,-5.3 -115.3,-1.6 l -56.7,2.7 -28.4,1.4 c -14.9,1.5 -30.4,3.6 -45.5,6 l 15,-2.2 c -147.8,18.9 -293.8,59.2 -429.3,125.6 -135.4,65.7 -259.2,160.3 -351.8,280.4 -92,120 -154.1,262.8 -172.5,410 -17.6,146.8 5.6,297.7 84.2,420.6 10.8,16.9 33.4,21.8 50.3,11 6.1,-3.9 10.6,-9.3 13.4,-15.4 l 0.5,-1.1"
         style="fill:#000072;fill-opacity:1;fill-rule:nonzero;stroke:none"
         id="path324" /><path
         d="m 12867.5,16054.2 c -27.9,-364.1 2.7,-721.3 87.6,-1013.8 109.3,-375.8 294.8,-612.5 496.1,-633.2 202.6,-20.8 433.3,176.1 617,526.5 144.2,275.3 246.6,626.8 290.6,995.5 -307.3,84.4 -557.2,287.7 -703.8,554.1 -189.4,-238.4 -470.3,-397.4 -787.5,-429.1 z m 614,-2035.1 c -23.2,0 -46.4,1.2 -69.7,3.6 -369,37.8 -670.7,369.5 -827.9,909.9 -106.7,367.6 -138.9,799.2 -93.1,1248.1 3,29.3 6.1,57.5 9.6,86.2 12.4,101.1 101.1,175.5 202.9,169.3 420.3,-23.7 777.5,285.8 813.4,705.6 v 1.1 c 9.1,106.3 102.6,185.2 208.9,176.2 106.3,-9 185.3,-102.4 176.3,-208.8 l -0.1,-1 c -35.2,-421 266.1,-786 686.3,-831.4 102.9,-11 178.7,-101.1 172.2,-204.3 -2.5,-40.5 -6.1,-81.4 -10.2,-122.8 -45.2,-445.3 -162.6,-858.8 -339.6,-1196.5 -247,-471.4 -582.3,-735.2 -929,-735.2"
         style="fill:#000072;fill-opacity:1;fill-rule:nonzero;stroke:none"
         id="path326" /><path
         d="m 12979.9,14961.4 c 111.3,-329.8 284.5,-535 471.3,-554.2 188,-19.3 400.2,148.9 576.6,453.2 -95.3,215 -312.6,359.5 -552.3,359.5 -199.6,0 -383.4,-97.4 -495.6,-258.5 z m 501.6,-942.3 c -23.2,0 -46.4,1.2 -69.6,3.6 -369.1,37.8 -670.8,369.5 -828,909.9 -13.9,48.1 -8.7,99.6 14.6,143.9 171.8,326.9 507.9,530 877,530 435.3,0 825.6,-291 949.1,-707.5 14.4,-48.2 9.3,-100.2 -14.1,-144.7 -247,-471.4 -582.3,-735.2 -929,-735.2"
         style="fill:#000072;fill-opacity:1;fill-rule:nonzero;stroke:none"
         id="path328" /><path
         d="m 18999.6,16636.5 h 0.5 z M 13691.1,22594 c -2518.1,0 -4730.23,-1847.7 -5110.65,-4411.6 -454.85,-3065.8 2024.85,-4550.1 4497.05,-4916.9 2472.2,-366.9 5276.1,333.6 5730.9,3399.4 418.4,2819.8 -1535.3,5454.3 -4355.2,5872.7 -255.9,38 -510.7,56.4 -762.1,56.4 z m 589.9,-9807.2 c -405.2,0 -826.3,32 -1260.2,96.3 -1558.8,231.3 -2838.5,815 -3700.83,1687.9 -947.64,959.2 -1335.58,2227.7 -1121.87,3668.1 449.66,3030.7 3281.1,5130.4 6311.8,4680.9 3030.7,-449.7 5130.6,-3281.2 4680.9,-6311.9 -213.7,-1440.4 -953.2,-2541.6 -2138.6,-3184.3 -778.3,-422.1 -1721,-637 -2771.2,-637"
         style="fill:#000072;fill-opacity:1;fill-rule:nonzero;stroke:none"
         id="path330" /><path
         d="m 13300.5,17712.9 879.3,-73 c 99.4,-8.3 141.8,-130.6 68.9,-198.7 l -489.6,-456.5 c -50.3,-46.9 -130.3,-39.5 -171,15.9 l -389.7,529.6 c -58.5,79.5 3.8,190.9 102.1,182.7"
         style="fill:#000072;fill-opacity:1;fill-rule:nonzero;stroke:none"
         id="path332" /><path
         d="m 14567.4,16085.8 c -2.4,-38.2 -5.8,-76.8 -9.6,-116 -44,-432.9 -160,-823.3 -318.4,-1125.8 -215.5,-411.2 -509.8,-659.5 -807.9,-629.1 -296.7,30.5 -533.4,329.6 -662,771.7 -95.6,329.5 -130.9,738.3 -86.5,1174.6 2.9,27.5 5.8,54.6 9.2,82.1 520.9,-30 973.1,360.4 1017.1,883.2 -44.4,-524.2 338.2,-984.7 858.1,-1040.7"
         style="fill:#000072;fill-opacity:1;fill-rule:nonzero;stroke:none"
         id="path334" /><path
         d="m 14239.4,14844 c -215.5,-411.2 -509.8,-659.5 -807.9,-629.1 -296.7,30.5 -533.4,329.6 -662,771.7 133.4,253.6 399.6,426.6 706,426.6 360.9,0 666.3,-240.1 763.9,-569.2"
         style="fill:#ff48a0;fill-opacity:1;fill-rule:nonzero;stroke:none"
         id="path336" /><path
         d="m 12867.5,16054.2 c -27.9,-364.1 2.7,-721.3 87.6,-1013.8 109.3,-375.8 294.8,-612.5 496.1,-633.2 202.6,-20.8 433.3,176.1 617,526.5 144.2,275.3 246.6,626.8 290.6,995.5 -307.3,84.4 -557.2,287.7 -703.8,554.1 -189.4,-238.4 -470.3,-397.4 -787.5,-429.1 z m 614,-2035.1 c -23.2,0 -46.4,1.2 -69.7,3.6 -369,37.8 -670.7,369.5 -827.9,909.9 -106.7,367.6 -138.9,799.2 -93.1,1248.1 3,29.3 6.1,57.5 9.6,86.2 12.4,101.1 101.1,175.5 202.9,169.3 420.3,-23.7 777.5,285.8 813.4,705.6 v 1.1 c 9.1,106.3 102.6,185.2 208.9,176.2 106.3,-9 185.3,-102.4 176.3,-208.8 l -0.1,-1 c -35.2,-421 266.1,-786 686.3,-831.4 102.9,-11 178.7,-101.1 172.2,-204.3 -2.5,-40.5 -6.1,-81.4 -10.2,-122.8 -45.2,-445.3 -162.6,-858.8 -339.6,-1196.5 -247,-471.4 -582.3,-735.2 -929,-735.2"
         style="fill:#000072;fill-opacity:1;fill-rule:nonzero;stroke:none"
         id="path338" /><path
         d="m 9295.99,17732.4 c -155.41,32.5 -299.91,70.9 -443.52,108.7 -143.22,38 -284.25,74.7 -424.98,109.6 -140.7,36.3 -281.69,64 -424.82,93 -143.87,29.6 -288.43,46.1 -446.11,75.3 141.7,70.4 300.23,107.8 458.36,114.3 158.01,5.6 317.84,-8.4 470.07,-48 152.68,-38.1 300.09,-94.4 437.76,-168.4 136.8,-75.2 267.17,-164.9 373.24,-284.5"
         style="fill:#000072;fill-opacity:1;fill-rule:nonzero;stroke:none"
         id="path340" /><path
         d="m 9319.03,16627 c -158.32,-11.6 -307.83,-14.5 -456.29,-17.7 -148.15,-2.9 -293.83,-6.4 -438.73,-11.7 -145.26,-3.7 -288.43,-15.9 -434,-27.5 -146.47,-11.1 -289.97,-35.1 -449.6,-50.5 116.82,106.8 258.92,186.4 409.18,236.1 150.35,48.9 307.85,79.5 465.12,83.3 157.27,5.4 314.47,-8.1 467.21,-41.4 152.2,-34.5 302.22,-84.9 437.11,-170.6"
         style="fill:#000072;fill-opacity:1;fill-rule:nonzero;stroke:none"
         id="path342" /><path
         d="m 9709.73,15630.3 c -140.22,-74.4 -275.91,-137.2 -410.48,-200 -134.44,-62.4 -266.32,-124.3 -396.83,-187.5 -131.41,-62 -257.53,-130.9 -386.1,-200.1 -129.57,-69.2 -251.23,-149 -391.14,-227.4 63.89,144.8 161.86,274.9 279.35,381 117.88,105.3 249.72,196.8 392.12,263.6 141.74,68.4 291.07,119.3 444.25,150.5 153.23,29.7 310.82,44 468.83,19.9"
         style="fill:#000072;fill-opacity:1;fill-rule:nonzero;stroke:none"
         id="path344" /><path
         d="m 18174.1,16924.8 c 139.3,78.5 291.8,120.8 445.6,147.2 154.3,25.1 312,30.2 468.7,16.5 156.9,-12.2 312.5,-51.1 460.1,-107.9 147.4,-57.7 285,-144.7 396,-257.6 -158.6,23.9 -300.6,55.4 -446.3,74.4 -144.7,19.3 -287.1,39 -431.9,50.5 -144.4,13 -289.7,24.3 -437.5,35 -148.1,11.2 -297.2,21.9 -454.7,41.9"
         style="fill:#000072;fill-opacity:1;fill-rule:nonzero;stroke:none"
         id="path346" /><path
         d="m 17791.8,15887.3 c 155.5,37.1 313.8,35.8 468.9,18.8 155.2,-18.4 308.3,-56.8 455.2,-113.2 147.4,-54.9 286.3,-135.2 412.5,-230.4 125.8,-96 234.2,-217.6 309.8,-356.6 -145.9,66.5 -273.7,136 -408.5,194.3 -133.9,58.4 -265.2,116.6 -401.3,167.5 -135.3,52.2 -271.9,103.1 -411,154.1 -139.3,51.5 -279.7,102.9 -425.6,165.5"
         style="fill:#000072;fill-opacity:1;fill-rule:nonzero;stroke:none"
         id="path348" /><path
         d="m 17097.5,15072.5 c 157.2,-28.7 301.5,-93.7 436.7,-171.7 134.6,-79.4 259.2,-176.2 370.9,-287.1 112.8,-109.6 207.6,-239 284.7,-377.1 76.5,-138.5 126.7,-293.5 139.9,-451.2 -106.7,119.7 -195.7,234.8 -295.6,342.5 -99,107.4 -195.8,213.6 -299.8,315.1 -102.8,102.2 -207.2,203.8 -314,306.6 -106.7,103.2 -214.5,206.9 -322.8,322.9"
         style="fill:#000072;fill-opacity:1;fill-rule:nonzero;stroke:none"
         id="path350" /><path
         d="m 14639.6,6348.4 c -9.2,15.3 -12.8,21.2 -17.9,30.9 -4.5,9 -8.6,17.2 -12.5,26 -6.8,17 -13.6,34 -18.5,50.9 -10.4,34 -16.4,67.8 -20.5,101.7 -8.2,67.5 -2.9,134.5 5.5,199.5 8,65.2 23.9,128.6 42.6,190.3 20.3,61.5 44.6,121.3 76.8,178.3 5.2,9.1 16.8,12.4 26,7.2 4.7,-2.7 7.9,-7.1 9.1,-12 l 0.2,-0.6 c 7.8,-31.6 14.1,-62.6 19.2,-93 7,-30.6 11.3,-60.7 17.3,-90.4 11.3,-59.4 21.6,-117.4 34.1,-173.5 l 37.4,-162.8 c 6.2,-25.9 11.4,-51.8 16.4,-76.5 l 6.6,-36.6 c 1.2,-5.5 1.7,-11.8 2.6,-16.9 0.3,-4.5 2.3,-12.7 -0.5,-11.2 30.7,-61.8 5.5,-136.8 -56.3,-167.6 -61.8,-30.7 -136.8,-5.5 -167.6,56.3"
         style="fill:#000072;fill-opacity:1;fill-rule:nonzero;stroke:none"
         id="path352" /><path
         d="m 15305.4,6335.7 c -31.6,70.8 -41.8,133 -47.4,200.7 -5.3,66.4 -0.2,133.1 8,198.7 17.7,131.2 51.9,259.8 114.2,378 4.9,9.3 16.4,12.8 25.7,7.9 5,-2.6 8.3,-7.1 9.6,-12.1 l 0.1,-0.6 c 16,-64.4 26.5,-126.2 39.6,-187.1 11.1,-60.8 24.4,-120.3 36.1,-178.9 12.1,-58.6 26.9,-116 36.3,-172.9 9.7,-55.7 19.2,-116.5 18.5,-166.1 l -0.3,-18.3 c -1,-69.3 -58.1,-124.8 -127.5,-123.8 -50.4,0.8 -93.6,31.3 -112.9,74.5"
         style="fill:#000072;fill-opacity:1;fill-rule:nonzero;stroke:none"
         id="path354" /><path
         d="m 11481.3,7527.5 c -8.2,-4.3 -2.1,3 -1.6,5.5 l 7.1,13.2 c 5.5,9 10.8,19.7 17.3,29.6 11.7,21.6 25,43.2 38.1,66.8 25.5,46.9 55.7,95.7 81.9,148.8 27.3,52.4 53.2,107.7 80.1,164.2 13.1,28.4 26.3,57.1 40.7,86.1 13.1,29.2 27.5,58.5 43.6,88 l 0.3,0.5 c 5,9.2 16.5,12.6 25.8,7.6 4.9,-2.7 8.1,-7.3 9.4,-12.3 15.6,-65.6 23,-131.7 26.3,-198.5 1.6,-66.6 -0.5,-134.1 -10.7,-201.7 -9.5,-67.5 -24.7,-136.4 -54.1,-202.5 -14.1,-33.2 -32.2,-66 -54.5,-97.4 -11.3,-16 -23.9,-31.1 -38.3,-46.4 -6.8,-7.6 -15.7,-15.2 -23.6,-22.6 -10.4,-8.8 -15.2,-12.9 -35.5,-27.2 -54.8,-42 -133.3,-31.7 -175.3,23 -42.1,54.8 -31.8,133.3 23,175.3"
         style="fill:#000072;fill-opacity:1;fill-rule:nonzero;stroke:none"
         id="path356" /><path
         d="m 12033.6,7159.2 c -7.9,-2.2 0.1,4.2 1.9,7.3 l 11.2,13.1 25.7,30 c 17.3,21.6 35.8,44.1 54,68.4 35.7,48.7 74.6,100.8 108.8,158.6 35.6,56.8 68.2,118 101.6,180.7 l 49.3,96.2 c 15.6,32.8 32.5,65.6 51.1,98.8 l 0.4,0.7 c 5.1,9 16.4,12.2 25.4,7.1 5.3,-3 8.6,-8.3 9.4,-13.9 4.8,-37.7 7.9,-75.5 9.7,-113.6 1.3,-37.9 -0.6,-75.7 -1.6,-114.1 -6.1,-75.9 -16.2,-152.7 -37.2,-228.6 -19.9,-75.9 -47.5,-152.7 -92.2,-223.7 -21.8,-35.7 -47.9,-70.1 -79.2,-101.8 -15.4,-16.1 -32.9,-31 -51.7,-45.5 -9.7,-7.3 -20.1,-13.9 -30.9,-20.8 -12.8,-7.4 -19.5,-11.5 -43.4,-22.3 -61.6,-31 -136.8,-6.1 -167.8,55.5 -31,61.7 -6.1,136.9 55.5,167.9"
         style="fill:#000072;fill-opacity:1;fill-rule:nonzero;stroke:none"
         id="path358" /><path
         d="m 11307.3,18988.4 c -150.3,-512.2 10.7,-1010.4 359.6,-1112.8 348.9,-102.4 753.6,229.8 904,742 150.3,512.3 -10.7,1010.5 -359.6,1112.9 -348.9,102.4 -753.7,-229.8 -904,-742.1"
         style="fill:#000072;fill-opacity:1;fill-rule:nonzero;stroke:none"
         id="path360" /><path
         d="m 11959.3,18982.6 c -43.9,-149.6 3.1,-295.1 105,-325 101.9,-29.9 220.1,67.1 264,216.7 44,149.6 -3.1,295.2 -105,325.1 -101.9,29.9 -220.1,-67.2 -264,-216.8"
         style="fill:#ffffff;fill-opacity:1;fill-rule:nonzero;stroke:none"
         id="path362" /><path
         d="m 16490.6,18691.4 c -123.8,-16.8 -250.4,-38.9 -369.2,-69.9 -119.5,-30.7 -234.2,-70 -342.6,-117.8 -54.9,-22.5 -106,-51.5 -158.2,-77.9 l -74.3,-45.9 c -25.2,-14.4 -48.8,-31.2 -71.9,-48.7 -96.5,-64.6 -177.9,-147.7 -258.4,-232 l -172.4,265.1 c 38.2,9.3 63.7,13.2 94.2,17 29.2,4.1 58.1,6.2 86.9,8.4 57.6,3.9 114.9,2.7 171.9,-0.6 113.9,-7.2 226.6,-29.4 333.9,-66.2 106.6,-38.4 210.2,-85.2 300.5,-151.2 93.3,-60.8 171.7,-140.5 241,-222.8 20.3,-24 17.2,-60 -6.9,-80.3 -17.9,-15 -42.4,-17.2 -62.1,-7.4 l -6.1,3 c -45.3,22.6 -86.4,49.1 -130.6,69.8 -44.6,19.9 -86.9,41.9 -132.2,57.3 -88.5,34.1 -178.8,59.1 -270.2,72.4 -90.7,15.9 -182.7,20.9 -273.6,17.5 -45.5,-1.5 -90.7,-6.2 -135.2,-11.7 -22,-3.3 -44.2,-6.4 -65.4,-11 -11,-1.9 -21.1,-4.4 -31.3,-6.8 l -14.6,-3.5 -10.7,-2.9 -4.1,-1.1 c -88,-23.6 -178.4,28.5 -202,116.5 -14.5,54.1 0.3,109.9 33.8,149.7 94.1,110.4 196.4,217.7 319.6,297.8 58.1,44.9 124.9,75.9 188.3,111.3 67,28.3 132.8,59.2 202.5,77.9 137.6,42.5 279.5,65.1 420.2,66.6 141.4,0.1 278.7,-14.7 415.5,-60.6 30.1,-10.1 46.2,-42.6 36.2,-72.6 -7.2,-21.4 -25.7,-35.7 -46.6,-38.6 l -5.9,-0.8"
         style="fill:#000072;fill-opacity:1;fill-rule:nonzero;stroke:none"
         id="path364" /></g></g></svg>
